<?xml version="1.0" standalone="no"?>
<!DOCTYPE svg PUBLIC "-//W3C//DTD SVG 1.1//EN" "http://www.w3.org/Graphics/SVG/1.1/DTD/svg11.dtd">

<svg width="1000" height="1000" style="background:#fff" 
  xmlns="http://www.w3.org/2000/svg"
  xmlns:xlink="http://www.w3.org/1999/xlink">

<style type="text/css">
<![CDATA[

]]>
</style>

<path d="M -68,-15 l -56,97 l 112,0 l -56,-97 Z" fill="hsl(30, 70%, 50%)" stroke="hsl(30, 70%, 50%)"/>
<path d="M -68,-15 l 112,0 l -56,97 l -56,-97 Z" fill="hsl(32.0, 70%, 50%)" stroke="hsl(32.0, 70%, 50%)"/>
<path d="M 44,-15 l -56,97 l 112,0 l -56,-97 Z" fill="hsl(34, 70%, 50%)" stroke="hsl(34, 70%, 50%)"/>
<path d="M 44,-15 l 112,0 l -56,97 l -56,-97 Z" fill="hsl(36.0, 70%, 50%)" stroke="hsl(36.0, 70%, 50%)"/>
<path d="M 156,-15 l -56,97 l 112,0 l -56,-97 Z" fill="hsl(38, 70%, 50%)" stroke="hsl(38, 70%, 50%)"/>
<path d="M 156,-15 l 112,0 l -56,97 l -56,-97 Z" fill="hsl(40.0, 70%, 50%)" stroke="hsl(40.0, 70%, 50%)"/>
<path d="M 268,-15 l -56,97 l 112,0 l -56,-97 Z" fill="hsl(42, 70%, 50%)" stroke="hsl(42, 70%, 50%)"/>
<path d="M 268,-15 l 112,0 l -56,97 l -56,-97 Z" fill="hsl(44.0, 70%, 50%)" stroke="hsl(44.0, 70%, 50%)"/>
<path d="M 380,-15 l -56,97 l 112,0 l -56,-97 Z" fill="hsl(46, 70%, 50%)" stroke="hsl(46, 70%, 50%)"/>
<path d="M 380,-15 l 112,0 l -56,97 l -56,-97 Z" fill="hsl(48.0, 70%, 50%)" stroke="hsl(48.0, 70%, 50%)"/>
<path d="M 492,-15 l -56,97 l 112,0 l -56,-97 Z" fill="hsl(50, 70%, 50%)" stroke="hsl(50, 70%, 50%)"/>
<path d="M 492,-15 l 112,0 l -56,97 l -56,-97 Z" fill="hsl(52.0, 70%, 50%)" stroke="hsl(52.0, 70%, 50%)"/>
<path d="M 604,-15 l -56,97 l 112,0 l -56,-97 Z" fill="hsl(54, 70%, 50%)" stroke="hsl(54, 70%, 50%)"/>
<path d="M 604,-15 l 112,0 l -56,97 l -56,-97 Z" fill="hsl(56.0, 70%, 50%)" stroke="hsl(56.0, 70%, 50%)"/>
<path d="M 716,-15 l -56,97 l 112,0 l -56,-97 Z" fill="hsl(58, 70%, 50%)" stroke="hsl(58, 70%, 50%)"/>
<path d="M 716,-15 l 112,0 l -56,97 l -56,-97 Z" fill="hsl(60.0, 70%, 50%)" stroke="hsl(60.0, 70%, 50%)"/>
<path d="M 828,-15 l -56,97 l 112,0 l -56,-97 Z" fill="hsl(62, 70%, 50%)" stroke="hsl(62, 70%, 50%)"/>
<path d="M 828,-15 l 112,0 l -56,97 l -56,-97 Z" fill="hsl(64.0, 70%, 50%)" stroke="hsl(64.0, 70%, 50%)"/>
<path d="M 940,-15 l -56,97 l 112,0 l -56,-97 Z" fill="hsl(66, 70%, 50%)" stroke="hsl(66, 70%, 50%)"/>
<path d="M 940,-15 l 112,0 l -56,97 l -56,-97 Z" fill="hsl(68.0, 70%, 50%)" stroke="hsl(68.0, 70%, 50%)"/>
<path d="M 1052,-15 l -56,97 l 112,0 l -56,-97 Z" fill="hsl(70, 70%, 50%)" stroke="hsl(70, 70%, 50%)"/>
<path d="M 1052,-15 l 112,0 l -56,97 l -56,-97 Z" fill="hsl(72.0, 70%, 50%)" stroke="hsl(72.0, 70%, 50%)"/>
<path d="M -124,82 l -56,97 l 112,0 l -56,-97 Z" fill="hsl(30, 70%, 50%)" stroke="hsl(30, 70%, 50%)"/>
<path d="M -124,82 l 112,0 l -56,97 l -56,-97 Z" fill="hsl(32.0, 70%, 50%)" stroke="hsl(32.0, 70%, 50%)"/>
<path d="M -12,82 l -56,97 l 112,0 l -56,-97 Z" fill="hsl(34, 70%, 50%)" stroke="hsl(34, 70%, 50%)"/>
<path d="M -12,82 l 112,0 l -56,97 l -56,-97 Z" fill="hsl(36.0, 70%, 50%)" stroke="hsl(36.0, 70%, 50%)"/>
<path d="M 100,82 l -56,97 l 112,0 l -56,-97 Z" fill="hsl(38, 70%, 50%)" stroke="hsl(38, 70%, 50%)"/>
<path d="M 100,82 l 112,0 l -56,97 l -56,-97 Z" fill="hsl(40.0, 70%, 50%)" stroke="hsl(40.0, 70%, 50%)"/>
<path d="M 212,82 l -56,97 l 112,0 l -56,-97 Z" fill="hsl(42, 70%, 50%)" stroke="hsl(42, 70%, 50%)"/>
<path d="M 212,82 l 112,0 l -56,97 l -56,-97 Z" fill="hsl(44.0, 70%, 50%)" stroke="hsl(44.0, 70%, 50%)"/>
<path d="M 324,82 l -56,97 l 112,0 l -56,-97 Z" fill="hsl(46, 70%, 50%)" stroke="hsl(46, 70%, 50%)"/>
<path d="M 324,82 l 112,0 l -56,97 l -56,-97 Z" fill="hsl(48.0, 70%, 50%)" stroke="hsl(48.0, 70%, 50%)"/>
<path d="M 436,82 l -56,97 l 112,0 l -56,-97 Z" fill="hsl(50, 70%, 50%)" stroke="hsl(50, 70%, 50%)"/>
<path d="M 436,82 l 112,0 l -56,97 l -56,-97 Z" fill="hsl(52.0, 70%, 50%)" stroke="hsl(52.0, 70%, 50%)"/>
<path d="M 548,82 l -56,97 l 112,0 l -56,-97 Z" fill="hsl(54, 70%, 50%)" stroke="hsl(54, 70%, 50%)"/>
<path d="M 548,82 l 112,0 l -56,97 l -56,-97 Z" fill="hsl(56.0, 70%, 50%)" stroke="hsl(56.0, 70%, 50%)"/>
<path d="M 660,82 l -56,97 l 112,0 l -56,-97 Z" fill="hsl(58, 70%, 50%)" stroke="hsl(58, 70%, 50%)"/>
<path d="M 660,82 l 112,0 l -56,97 l -56,-97 Z" fill="hsl(60.0, 70%, 50%)" stroke="hsl(60.0, 70%, 50%)"/>
<path d="M 772,82 l -56,97 l 112,0 l -56,-97 Z" fill="hsl(62, 70%, 50%)" stroke="hsl(62, 70%, 50%)"/>
<path d="M 772,82 l 112,0 l -56,97 l -56,-97 Z" fill="hsl(64.0, 70%, 50%)" stroke="hsl(64.0, 70%, 50%)"/>
<path d="M 884,82 l -56,97 l 112,0 l -56,-97 Z" fill="hsl(66, 70%, 50%)" stroke="hsl(66, 70%, 50%)"/>
<path d="M 884,82 l 112,0 l -56,97 l -56,-97 Z" fill="hsl(68.0, 70%, 50%)" stroke="hsl(68.0, 70%, 50%)"/>
<path d="M 996,82 l -56,97 l 112,0 l -56,-97 Z" fill="hsl(70, 70%, 50%)" stroke="hsl(70, 70%, 50%)"/>
<path d="M 996,82 l 112,0 l -56,97 l -56,-97 Z" fill="hsl(72.0, 70%, 50%)" stroke="hsl(72.0, 70%, 50%)"/>
<path d="M -68,179 l -56,97 l 112,0 l -56,-97 Z" fill="hsl(30, 70%, 50%)" stroke="hsl(30, 70%, 50%)"/>
<path d="M -68,179 l 112,0 l -56,97 l -56,-97 Z" fill="hsl(32.0, 70%, 50%)" stroke="hsl(32.0, 70%, 50%)"/>
<path d="M 44,179 l -56,97 l 112,0 l -56,-97 Z" fill="hsl(34, 70%, 50%)" stroke="hsl(34, 70%, 50%)"/>
<path d="M 44,179 l 112,0 l -56,97 l -56,-97 Z" fill="hsl(36.0, 70%, 50%)" stroke="hsl(36.0, 70%, 50%)"/>
<path d="M 156,179 l -56,97 l 112,0 l -56,-97 Z" fill="hsl(38, 70%, 50%)" stroke="hsl(38, 70%, 50%)"/>
<path d="M 156,179 l 112,0 l -56,97 l -56,-97 Z" fill="hsl(40.0, 70%, 50%)" stroke="hsl(40.0, 70%, 50%)"/>
<path d="M 268,179 l -56,97 l 112,0 l -56,-97 Z" fill="hsl(42, 70%, 50%)" stroke="hsl(42, 70%, 50%)"/>
<path d="M 268,179 l 112,0 l -56,97 l -56,-97 Z" fill="hsl(44.0, 70%, 50%)" stroke="hsl(44.0, 70%, 50%)"/>
<path d="M 380,179 l -56,97 l 112,0 l -56,-97 Z" fill="hsl(46, 70%, 50%)" stroke="hsl(46, 70%, 50%)"/>
<path d="M 380,179 l 112,0 l -56,97 l -56,-97 Z" fill="hsl(48.0, 70%, 50%)" stroke="hsl(48.0, 70%, 50%)"/>
<path d="M 492,179 l -56,97 l 112,0 l -56,-97 Z" fill="hsl(50, 70%, 50%)" stroke="hsl(50, 70%, 50%)"/>
<path d="M 492,179 l 112,0 l -56,97 l -56,-97 Z" fill="hsl(52.0, 70%, 50%)" stroke="hsl(52.0, 70%, 50%)"/>
<path d="M 604,179 l -56,97 l 112,0 l -56,-97 Z" fill="hsl(54, 70%, 50%)" stroke="hsl(54, 70%, 50%)"/>
<path d="M 604,179 l 112,0 l -56,97 l -56,-97 Z" fill="hsl(56.0, 70%, 50%)" stroke="hsl(56.0, 70%, 50%)"/>
<path d="M 716,179 l -56,97 l 112,0 l -56,-97 Z" fill="hsl(58, 70%, 50%)" stroke="hsl(58, 70%, 50%)"/>
<path d="M 716,179 l 112,0 l -56,97 l -56,-97 Z" fill="hsl(60.0, 70%, 50%)" stroke="hsl(60.0, 70%, 50%)"/>
<path d="M 828,179 l -56,97 l 112,0 l -56,-97 Z" fill="hsl(62, 70%, 50%)" stroke="hsl(62, 70%, 50%)"/>
<path d="M 828,179 l 112,0 l -56,97 l -56,-97 Z" fill="hsl(64.0, 70%, 50%)" stroke="hsl(64.0, 70%, 50%)"/>
<path d="M 940,179 l -56,97 l 112,0 l -56,-97 Z" fill="hsl(66, 70%, 50%)" stroke="hsl(66, 70%, 50%)"/>
<path d="M 940,179 l 112,0 l -56,97 l -56,-97 Z" fill="hsl(68.0, 70%, 50%)" stroke="hsl(68.0, 70%, 50%)"/>
<path d="M 1052,179 l -56,97 l 112,0 l -56,-97 Z" fill="hsl(70, 70%, 50%)" stroke="hsl(70, 70%, 50%)"/>
<path d="M 1052,179 l 112,0 l -56,97 l -56,-97 Z" fill="hsl(72.0, 70%, 50%)" stroke="hsl(72.0, 70%, 50%)"/>
<path d="M -124,276 l -56,97 l 112,0 l -56,-97 Z" fill="hsl(30, 70%, 50%)" stroke="hsl(30, 70%, 50%)"/>
<path d="M -124,276 l 112,0 l -56,97 l -56,-97 Z" fill="hsl(32.0, 70%, 50%)" stroke="hsl(32.0, 70%, 50%)"/>
<path d="M -12,276 l -56,97 l 112,0 l -56,-97 Z" fill="hsl(34, 70%, 50%)" stroke="hsl(34, 70%, 50%)"/>
<path d="M -12,276 l 112,0 l -56,97 l -56,-97 Z" fill="hsl(36.0, 70%, 50%)" stroke="hsl(36.0, 70%, 50%)"/>
<path d="M 100,276 l -56,97 l 112,0 l -56,-97 Z" fill="hsl(38, 70%, 50%)" stroke="hsl(38, 70%, 50%)"/>
<path d="M 100,276 l 112,0 l -56,97 l -56,-97 Z" fill="hsl(40.0, 70%, 50%)" stroke="hsl(40.0, 70%, 50%)"/>
<path d="M 212,276 l -56,97 l 112,0 l -56,-97 Z" fill="hsl(42, 70%, 50%)" stroke="hsl(42, 70%, 50%)"/>
<path d="M 212,276 l 112,0 l -56,97 l -56,-97 Z" fill="hsl(44.0, 70%, 50%)" stroke="hsl(44.0, 70%, 50%)"/>
<path d="M 324,276 l -56,97 l 112,0 l -56,-97 Z" fill="hsl(46, 70%, 50%)" stroke="hsl(46, 70%, 50%)"/>
<path d="M 324,276 l 112,0 l -56,97 l -56,-97 Z" fill="hsl(48.0, 70%, 50%)" stroke="hsl(48.0, 70%, 50%)"/>
<path d="M 436,276 l -56,97 l 112,0 l -56,-97 Z" fill="hsl(50, 70%, 50%)" stroke="hsl(50, 70%, 50%)"/>
<path d="M 436,276 l 112,0 l -56,97 l -56,-97 Z" fill="hsl(52.0, 70%, 50%)" stroke="hsl(52.0, 70%, 50%)"/>
<path d="M 548,276 l -56,97 l 112,0 l -56,-97 Z" fill="hsl(54, 70%, 50%)" stroke="hsl(54, 70%, 50%)"/>
<path d="M 548,276 l 112,0 l -56,97 l -56,-97 Z" fill="hsl(56.0, 70%, 50%)" stroke="hsl(56.0, 70%, 50%)"/>
<path d="M 660,276 l -56,97 l 112,0 l -56,-97 Z" fill="hsl(58, 70%, 50%)" stroke="hsl(58, 70%, 50%)"/>
<path d="M 660,276 l 112,0 l -56,97 l -56,-97 Z" fill="hsl(60.0, 70%, 50%)" stroke="hsl(60.0, 70%, 50%)"/>
<path d="M 772,276 l -56,97 l 112,0 l -56,-97 Z" fill="hsl(62, 70%, 50%)" stroke="hsl(62, 70%, 50%)"/>
<path d="M 772,276 l 112,0 l -56,97 l -56,-97 Z" fill="hsl(64.0, 70%, 50%)" stroke="hsl(64.0, 70%, 50%)"/>
<path d="M 884,276 l -56,97 l 112,0 l -56,-97 Z" fill="hsl(66, 70%, 50%)" stroke="hsl(66, 70%, 50%)"/>
<path d="M 884,276 l 112,0 l -56,97 l -56,-97 Z" fill="hsl(68.0, 70%, 50%)" stroke="hsl(68.0, 70%, 50%)"/>
<path d="M 996,276 l -56,97 l 112,0 l -56,-97 Z" fill="hsl(70, 70%, 50%)" stroke="hsl(70, 70%, 50%)"/>
<path d="M 996,276 l 112,0 l -56,97 l -56,-97 Z" fill="hsl(72.0, 70%, 50%)" stroke="hsl(72.0, 70%, 50%)"/>
<path d="M -68,373 l -56,97 l 112,0 l -56,-97 Z" fill="hsl(30, 70%, 50%)" stroke="hsl(30, 70%, 50%)"/>
<path d="M -68,373 l 112,0 l -56,97 l -56,-97 Z" fill="hsl(32.0, 70%, 50%)" stroke="hsl(32.0, 70%, 50%)"/>
<path d="M 44,373 l -56,97 l 112,0 l -56,-97 Z" fill="hsl(34, 70%, 50%)" stroke="hsl(34, 70%, 50%)"/>
<path d="M 44,373 l 112,0 l -56,97 l -56,-97 Z" fill="hsl(36.0, 70%, 50%)" stroke="hsl(36.0, 70%, 50%)"/>
<path d="M 156,373 l -56,97 l 112,0 l -56,-97 Z" fill="hsl(38, 70%, 50%)" stroke="hsl(38, 70%, 50%)"/>
<path d="M 156,373 l 112,0 l -56,97 l -56,-97 Z" fill="hsl(40.0, 70%, 50%)" stroke="hsl(40.0, 70%, 50%)"/>
<path d="M 268,373 l -56,97 l 112,0 l -56,-97 Z" fill="hsl(42, 70%, 50%)" stroke="hsl(42, 70%, 50%)"/>
<path d="M 268,373 l 112,0 l -56,97 l -56,-97 Z" fill="hsl(44.0, 70%, 50%)" stroke="hsl(44.0, 70%, 50%)"/>
<path d="M 380,373 l -56,97 l 112,0 l -56,-97 Z" fill="hsl(46, 70%, 50%)" stroke="hsl(46, 70%, 50%)"/>
<path d="M 380,373 l 112,0 l -56,97 l -56,-97 Z" fill="hsl(48.0, 70%, 50%)" stroke="hsl(48.0, 70%, 50%)"/>
<path d="M 492,373 l -56,97 l 112,0 l -56,-97 Z" fill="hsl(50, 70%, 50%)" stroke="hsl(50, 70%, 50%)"/>
<path d="M 492,373 l 112,0 l -56,97 l -56,-97 Z" fill="hsl(52.0, 70%, 50%)" stroke="hsl(52.0, 70%, 50%)"/>
<path d="M 604,373 l -56,97 l 112,0 l -56,-97 Z" fill="hsl(54, 70%, 50%)" stroke="hsl(54, 70%, 50%)"/>
<path d="M 604,373 l 112,0 l -56,97 l -56,-97 Z" fill="hsl(56.0, 70%, 50%)" stroke="hsl(56.0, 70%, 50%)"/>
<path d="M 716,373 l -56,97 l 112,0 l -56,-97 Z" fill="hsl(58, 70%, 50%)" stroke="hsl(58, 70%, 50%)"/>
<path d="M 716,373 l 112,0 l -56,97 l -56,-97 Z" fill="hsl(60.0, 70%, 50%)" stroke="hsl(60.0, 70%, 50%)"/>
<path d="M 828,373 l -56,97 l 112,0 l -56,-97 Z" fill="hsl(62, 70%, 50%)" stroke="hsl(62, 70%, 50%)"/>
<path d="M 828,373 l 112,0 l -56,97 l -56,-97 Z" fill="hsl(64.0, 70%, 50%)" stroke="hsl(64.0, 70%, 50%)"/>
<path d="M 940,373 l -56,97 l 112,0 l -56,-97 Z" fill="hsl(66, 70%, 50%)" stroke="hsl(66, 70%, 50%)"/>
<path d="M 940,373 l 112,0 l -56,97 l -56,-97 Z" fill="hsl(68.0, 70%, 50%)" stroke="hsl(68.0, 70%, 50%)"/>
<path d="M 1052,373 l -56,97 l 112,0 l -56,-97 Z" fill="hsl(70, 70%, 50%)" stroke="hsl(70, 70%, 50%)"/>
<path d="M 1052,373 l 112,0 l -56,97 l -56,-97 Z" fill="hsl(72.0, 70%, 50%)" stroke="hsl(72.0, 70%, 50%)"/>
<path d="M -124,470 l -56,97 l 112,0 l -56,-97 Z" fill="hsl(30, 70%, 50%)" stroke="hsl(30, 70%, 50%)"/>
<path d="M -124,470 l 112,0 l -56,97 l -56,-97 Z" fill="hsl(32.0, 70%, 50%)" stroke="hsl(32.0, 70%, 50%)"/>
<path d="M -12,470 l -56,97 l 112,0 l -56,-97 Z" fill="hsl(34, 70%, 50%)" stroke="hsl(34, 70%, 50%)"/>
<path d="M -12,470 l 112,0 l -56,97 l -56,-97 Z" fill="hsl(36.0, 70%, 50%)" stroke="hsl(36.0, 70%, 50%)"/>
<path d="M 100,470 l -56,97 l 112,0 l -56,-97 Z" fill="hsl(38, 70%, 50%)" stroke="hsl(38, 70%, 50%)"/>
<path d="M 100,470 l 112,0 l -56,97 l -56,-97 Z" fill="hsl(40.0, 70%, 50%)" stroke="hsl(40.0, 70%, 50%)"/>
<path d="M 212,470 l -56,97 l 112,0 l -56,-97 Z" fill="hsl(42, 70%, 50%)" stroke="hsl(42, 70%, 50%)"/>
<path d="M 212,470 l 112,0 l -56,97 l -56,-97 Z" fill="hsl(44.0, 70%, 50%)" stroke="hsl(44.0, 70%, 50%)"/>
<path d="M 324,470 l -56,97 l 112,0 l -56,-97 Z" fill="hsl(46, 70%, 50%)" stroke="hsl(46, 70%, 50%)"/>
<path d="M 324,470 l 112,0 l -56,97 l -56,-97 Z" fill="hsl(48.0, 70%, 50%)" stroke="hsl(48.0, 70%, 50%)"/>
<path d="M 436,470 l -56,97 l 112,0 l -56,-97 Z" fill="hsl(50, 70%, 50%)" stroke="hsl(50, 70%, 50%)"/>
<path d="M 436,470 l 112,0 l -56,97 l -56,-97 Z" fill="hsl(52.0, 70%, 50%)" stroke="hsl(52.0, 70%, 50%)"/>
<path d="M 548,470 l -56,97 l 112,0 l -56,-97 Z" fill="hsl(54, 70%, 50%)" stroke="hsl(54, 70%, 50%)"/>
<path d="M 548,470 l 112,0 l -56,97 l -56,-97 Z" fill="hsl(56.0, 70%, 50%)" stroke="hsl(56.0, 70%, 50%)"/>
<path d="M 660,470 l -56,97 l 112,0 l -56,-97 Z" fill="hsl(58, 70%, 50%)" stroke="hsl(58, 70%, 50%)"/>
<path d="M 660,470 l 112,0 l -56,97 l -56,-97 Z" fill="hsl(60.0, 70%, 50%)" stroke="hsl(60.0, 70%, 50%)"/>
<path d="M 772,470 l -56,97 l 112,0 l -56,-97 Z" fill="hsl(62, 70%, 50%)" stroke="hsl(62, 70%, 50%)"/>
<path d="M 772,470 l 112,0 l -56,97 l -56,-97 Z" fill="hsl(64.0, 70%, 50%)" stroke="hsl(64.0, 70%, 50%)"/>
<path d="M 884,470 l -56,97 l 112,0 l -56,-97 Z" fill="hsl(66, 70%, 50%)" stroke="hsl(66, 70%, 50%)"/>
<path d="M 884,470 l 112,0 l -56,97 l -56,-97 Z" fill="hsl(68.0, 70%, 50%)" stroke="hsl(68.0, 70%, 50%)"/>
<path d="M 996,470 l -56,97 l 112,0 l -56,-97 Z" fill="hsl(70, 70%, 50%)" stroke="hsl(70, 70%, 50%)"/>
<path d="M 996,470 l 112,0 l -56,97 l -56,-97 Z" fill="hsl(72.0, 70%, 50%)" stroke="hsl(72.0, 70%, 50%)"/>
<path d="M -68,567 l -56,97 l 112,0 l -56,-97 Z" fill="hsl(30, 70%, 50%)" stroke="hsl(30, 70%, 50%)"/>
<path d="M -68,567 l 112,0 l -56,97 l -56,-97 Z" fill="hsl(32.0, 70%, 50%)" stroke="hsl(32.0, 70%, 50%)"/>
<path d="M 44,567 l -56,97 l 112,0 l -56,-97 Z" fill="hsl(34, 70%, 50%)" stroke="hsl(34, 70%, 50%)"/>
<path d="M 44,567 l 112,0 l -56,97 l -56,-97 Z" fill="hsl(36.0, 70%, 50%)" stroke="hsl(36.0, 70%, 50%)"/>
<path d="M 156,567 l -56,97 l 112,0 l -56,-97 Z" fill="hsl(38, 70%, 50%)" stroke="hsl(38, 70%, 50%)"/>
<path d="M 156,567 l 112,0 l -56,97 l -56,-97 Z" fill="hsl(40.0, 70%, 50%)" stroke="hsl(40.0, 70%, 50%)"/>
<path d="M 268,567 l -56,97 l 112,0 l -56,-97 Z" fill="hsl(42, 70%, 50%)" stroke="hsl(42, 70%, 50%)"/>
<path d="M 268,567 l 112,0 l -56,97 l -56,-97 Z" fill="hsl(44.0, 70%, 50%)" stroke="hsl(44.0, 70%, 50%)"/>
<path d="M 380,567 l -56,97 l 112,0 l -56,-97 Z" fill="hsl(46, 70%, 50%)" stroke="hsl(46, 70%, 50%)"/>
<path d="M 380,567 l 112,0 l -56,97 l -56,-97 Z" fill="hsl(48.0, 70%, 50%)" stroke="hsl(48.0, 70%, 50%)"/>
<path d="M 492,567 l -56,97 l 112,0 l -56,-97 Z" fill="hsl(50, 70%, 50%)" stroke="hsl(50, 70%, 50%)"/>
<path d="M 492,567 l 112,0 l -56,97 l -56,-97 Z" fill="hsl(52.0, 70%, 50%)" stroke="hsl(52.0, 70%, 50%)"/>
<path d="M 604,567 l -56,97 l 112,0 l -56,-97 Z" fill="hsl(54, 70%, 50%)" stroke="hsl(54, 70%, 50%)"/>
<path d="M 604,567 l 112,0 l -56,97 l -56,-97 Z" fill="hsl(56.0, 70%, 50%)" stroke="hsl(56.0, 70%, 50%)"/>
<path d="M 716,567 l -56,97 l 112,0 l -56,-97 Z" fill="hsl(58, 70%, 50%)" stroke="hsl(58, 70%, 50%)"/>
<path d="M 716,567 l 112,0 l -56,97 l -56,-97 Z" fill="hsl(60.0, 70%, 50%)" stroke="hsl(60.0, 70%, 50%)"/>
<path d="M 828,567 l -56,97 l 112,0 l -56,-97 Z" fill="hsl(62, 70%, 50%)" stroke="hsl(62, 70%, 50%)"/>
<path d="M 828,567 l 112,0 l -56,97 l -56,-97 Z" fill="hsl(64.0, 70%, 50%)" stroke="hsl(64.0, 70%, 50%)"/>
<path d="M 940,567 l -56,97 l 112,0 l -56,-97 Z" fill="hsl(66, 70%, 50%)" stroke="hsl(66, 70%, 50%)"/>
<path d="M 940,567 l 112,0 l -56,97 l -56,-97 Z" fill="hsl(68.0, 70%, 50%)" stroke="hsl(68.0, 70%, 50%)"/>
<path d="M 1052,567 l -56,97 l 112,0 l -56,-97 Z" fill="hsl(70, 70%, 50%)" stroke="hsl(70, 70%, 50%)"/>
<path d="M 1052,567 l 112,0 l -56,97 l -56,-97 Z" fill="hsl(72.0, 70%, 50%)" stroke="hsl(72.0, 70%, 50%)"/>
<path d="M -124,664 l -56,97 l 112,0 l -56,-97 Z" fill="hsl(30, 70%, 50%)" stroke="hsl(30, 70%, 50%)"/>
<path d="M -124,664 l 112,0 l -56,97 l -56,-97 Z" fill="hsl(32.0, 70%, 50%)" stroke="hsl(32.0, 70%, 50%)"/>
<path d="M -12,664 l -56,97 l 112,0 l -56,-97 Z" fill="hsl(34, 70%, 50%)" stroke="hsl(34, 70%, 50%)"/>
<path d="M -12,664 l 112,0 l -56,97 l -56,-97 Z" fill="hsl(36.0, 70%, 50%)" stroke="hsl(36.0, 70%, 50%)"/>
<path d="M 100,664 l -56,97 l 112,0 l -56,-97 Z" fill="hsl(38, 70%, 50%)" stroke="hsl(38, 70%, 50%)"/>
<path d="M 100,664 l 112,0 l -56,97 l -56,-97 Z" fill="hsl(40.0, 70%, 50%)" stroke="hsl(40.0, 70%, 50%)"/>
<path d="M 212,664 l -56,97 l 112,0 l -56,-97 Z" fill="hsl(42, 70%, 50%)" stroke="hsl(42, 70%, 50%)"/>
<path d="M 212,664 l 112,0 l -56,97 l -56,-97 Z" fill="hsl(44.0, 70%, 50%)" stroke="hsl(44.0, 70%, 50%)"/>
<path d="M 324,664 l -56,97 l 112,0 l -56,-97 Z" fill="hsl(46, 70%, 50%)" stroke="hsl(46, 70%, 50%)"/>
<path d="M 324,664 l 112,0 l -56,97 l -56,-97 Z" fill="hsl(48.0, 70%, 50%)" stroke="hsl(48.0, 70%, 50%)"/>
<path d="M 436,664 l -56,97 l 112,0 l -56,-97 Z" fill="hsl(50, 70%, 50%)" stroke="hsl(50, 70%, 50%)"/>
<path d="M 436,664 l 112,0 l -56,97 l -56,-97 Z" fill="hsl(52.0, 70%, 50%)" stroke="hsl(52.0, 70%, 50%)"/>
<path d="M 548,664 l -56,97 l 112,0 l -56,-97 Z" fill="hsl(54, 70%, 50%)" stroke="hsl(54, 70%, 50%)"/>
<path d="M 548,664 l 112,0 l -56,97 l -56,-97 Z" fill="hsl(56.0, 70%, 50%)" stroke="hsl(56.0, 70%, 50%)"/>
<path d="M 660,664 l -56,97 l 112,0 l -56,-97 Z" fill="hsl(58, 70%, 50%)" stroke="hsl(58, 70%, 50%)"/>
<path d="M 660,664 l 112,0 l -56,97 l -56,-97 Z" fill="hsl(60.0, 70%, 50%)" stroke="hsl(60.0, 70%, 50%)"/>
<path d="M 772,664 l -56,97 l 112,0 l -56,-97 Z" fill="hsl(62, 70%, 50%)" stroke="hsl(62, 70%, 50%)"/>
<path d="M 772,664 l 112,0 l -56,97 l -56,-97 Z" fill="hsl(64.0, 70%, 50%)" stroke="hsl(64.0, 70%, 50%)"/>
<path d="M 884,664 l -56,97 l 112,0 l -56,-97 Z" fill="hsl(66, 70%, 50%)" stroke="hsl(66, 70%, 50%)"/>
<path d="M 884,664 l 112,0 l -56,97 l -56,-97 Z" fill="hsl(68.0, 70%, 50%)" stroke="hsl(68.0, 70%, 50%)"/>
<path d="M 996,664 l -56,97 l 112,0 l -56,-97 Z" fill="hsl(70, 70%, 50%)" stroke="hsl(70, 70%, 50%)"/>
<path d="M 996,664 l 112,0 l -56,97 l -56,-97 Z" fill="hsl(72.0, 70%, 50%)" stroke="hsl(72.0, 70%, 50%)"/>
<path d="M -68,761 l -56,97 l 112,0 l -56,-97 Z" fill="hsl(30, 70%, 50%)" stroke="hsl(30, 70%, 50%)"/>
<path d="M -68,761 l 112,0 l -56,97 l -56,-97 Z" fill="hsl(32.0, 70%, 50%)" stroke="hsl(32.0, 70%, 50%)"/>
<path d="M 44,761 l -56,97 l 112,0 l -56,-97 Z" fill="hsl(34, 70%, 50%)" stroke="hsl(34, 70%, 50%)"/>
<path d="M 44,761 l 112,0 l -56,97 l -56,-97 Z" fill="hsl(36.0, 70%, 50%)" stroke="hsl(36.0, 70%, 50%)"/>
<path d="M 156,761 l -56,97 l 112,0 l -56,-97 Z" fill="hsl(38, 70%, 50%)" stroke="hsl(38, 70%, 50%)"/>
<path d="M 156,761 l 112,0 l -56,97 l -56,-97 Z" fill="hsl(40.0, 70%, 50%)" stroke="hsl(40.0, 70%, 50%)"/>
<path d="M 268,761 l -56,97 l 112,0 l -56,-97 Z" fill="hsl(42, 70%, 50%)" stroke="hsl(42, 70%, 50%)"/>
<path d="M 268,761 l 112,0 l -56,97 l -56,-97 Z" fill="hsl(44.0, 70%, 50%)" stroke="hsl(44.0, 70%, 50%)"/>
<path d="M 380,761 l -56,97 l 112,0 l -56,-97 Z" fill="hsl(46, 70%, 50%)" stroke="hsl(46, 70%, 50%)"/>
<path d="M 380,761 l 112,0 l -56,97 l -56,-97 Z" fill="hsl(48.0, 70%, 50%)" stroke="hsl(48.0, 70%, 50%)"/>
<path d="M 492,761 l -56,97 l 112,0 l -56,-97 Z" fill="hsl(50, 70%, 50%)" stroke="hsl(50, 70%, 50%)"/>
<path d="M 492,761 l 112,0 l -56,97 l -56,-97 Z" fill="hsl(52.0, 70%, 50%)" stroke="hsl(52.0, 70%, 50%)"/>
<path d="M 604,761 l -56,97 l 112,0 l -56,-97 Z" fill="hsl(54, 70%, 50%)" stroke="hsl(54, 70%, 50%)"/>
<path d="M 604,761 l 112,0 l -56,97 l -56,-97 Z" fill="hsl(56.0, 70%, 50%)" stroke="hsl(56.0, 70%, 50%)"/>
<path d="M 716,761 l -56,97 l 112,0 l -56,-97 Z" fill="hsl(58, 70%, 50%)" stroke="hsl(58, 70%, 50%)"/>
<path d="M 716,761 l 112,0 l -56,97 l -56,-97 Z" fill="hsl(60.0, 70%, 50%)" stroke="hsl(60.0, 70%, 50%)"/>
<path d="M 828,761 l -56,97 l 112,0 l -56,-97 Z" fill="hsl(62, 70%, 50%)" stroke="hsl(62, 70%, 50%)"/>
<path d="M 828,761 l 112,0 l -56,97 l -56,-97 Z" fill="hsl(64.0, 70%, 50%)" stroke="hsl(64.0, 70%, 50%)"/>
<path d="M 940,761 l -56,97 l 112,0 l -56,-97 Z" fill="hsl(66, 70%, 50%)" stroke="hsl(66, 70%, 50%)"/>
<path d="M 940,761 l 112,0 l -56,97 l -56,-97 Z" fill="hsl(68.0, 70%, 50%)" stroke="hsl(68.0, 70%, 50%)"/>
<path d="M 1052,761 l -56,97 l 112,0 l -56,-97 Z" fill="hsl(70, 70%, 50%)" stroke="hsl(70, 70%, 50%)"/>
<path d="M 1052,761 l 112,0 l -56,97 l -56,-97 Z" fill="hsl(72.0, 70%, 50%)" stroke="hsl(72.0, 70%, 50%)"/>
<path d="M -124,858 l -56,97 l 112,0 l -56,-97 Z" fill="hsl(30, 70%, 50%)" stroke="hsl(30, 70%, 50%)"/>
<path d="M -124,858 l 112,0 l -56,97 l -56,-97 Z" fill="hsl(32.0, 70%, 50%)" stroke="hsl(32.0, 70%, 50%)"/>
<path d="M -12,858 l -56,97 l 112,0 l -56,-97 Z" fill="hsl(34, 70%, 50%)" stroke="hsl(34, 70%, 50%)"/>
<path d="M -12,858 l 112,0 l -56,97 l -56,-97 Z" fill="hsl(36.0, 70%, 50%)" stroke="hsl(36.0, 70%, 50%)"/>
<path d="M 100,858 l -56,97 l 112,0 l -56,-97 Z" fill="hsl(38, 70%, 50%)" stroke="hsl(38, 70%, 50%)"/>
<path d="M 100,858 l 112,0 l -56,97 l -56,-97 Z" fill="hsl(40.0, 70%, 50%)" stroke="hsl(40.0, 70%, 50%)"/>
<path d="M 212,858 l -56,97 l 112,0 l -56,-97 Z" fill="hsl(42, 70%, 50%)" stroke="hsl(42, 70%, 50%)"/>
<path d="M 212,858 l 112,0 l -56,97 l -56,-97 Z" fill="hsl(44.0, 70%, 50%)" stroke="hsl(44.0, 70%, 50%)"/>
<path d="M 324,858 l -56,97 l 112,0 l -56,-97 Z" fill="hsl(46, 70%, 50%)" stroke="hsl(46, 70%, 50%)"/>
<path d="M 324,858 l 112,0 l -56,97 l -56,-97 Z" fill="hsl(48.0, 70%, 50%)" stroke="hsl(48.0, 70%, 50%)"/>
<path d="M 436,858 l -56,97 l 112,0 l -56,-97 Z" fill="hsl(50, 70%, 50%)" stroke="hsl(50, 70%, 50%)"/>
<path d="M 436,858 l 112,0 l -56,97 l -56,-97 Z" fill="hsl(52.0, 70%, 50%)" stroke="hsl(52.0, 70%, 50%)"/>
<path d="M 548,858 l -56,97 l 112,0 l -56,-97 Z" fill="hsl(54, 70%, 50%)" stroke="hsl(54, 70%, 50%)"/>
<path d="M 548,858 l 112,0 l -56,97 l -56,-97 Z" fill="hsl(56.0, 70%, 50%)" stroke="hsl(56.0, 70%, 50%)"/>
<path d="M 660,858 l -56,97 l 112,0 l -56,-97 Z" fill="hsl(58, 70%, 50%)" stroke="hsl(58, 70%, 50%)"/>
<path d="M 660,858 l 112,0 l -56,97 l -56,-97 Z" fill="hsl(60.0, 70%, 50%)" stroke="hsl(60.0, 70%, 50%)"/>
<path d="M 772,858 l -56,97 l 112,0 l -56,-97 Z" fill="hsl(62, 70%, 50%)" stroke="hsl(62, 70%, 50%)"/>
<path d="M 772,858 l 112,0 l -56,97 l -56,-97 Z" fill="hsl(64.0, 70%, 50%)" stroke="hsl(64.0, 70%, 50%)"/>
<path d="M 884,858 l -56,97 l 112,0 l -56,-97 Z" fill="hsl(66, 70%, 50%)" stroke="hsl(66, 70%, 50%)"/>
<path d="M 884,858 l 112,0 l -56,97 l -56,-97 Z" fill="hsl(68.0, 70%, 50%)" stroke="hsl(68.0, 70%, 50%)"/>
<path d="M 996,858 l -56,97 l 112,0 l -56,-97 Z" fill="hsl(70, 70%, 50%)" stroke="hsl(70, 70%, 50%)"/>
<path d="M 996,858 l 112,0 l -56,97 l -56,-97 Z" fill="hsl(72.0, 70%, 50%)" stroke="hsl(72.0, 70%, 50%)"/>
<path d="M -68,955 l -56,97 l 112,0 l -56,-97 Z" fill="hsl(30, 70%, 50%)" stroke="hsl(30, 70%, 50%)"/>
<path d="M -68,955 l 112,0 l -56,97 l -56,-97 Z" fill="hsl(32.0, 70%, 50%)" stroke="hsl(32.0, 70%, 50%)"/>
<path d="M 44,955 l -56,97 l 112,0 l -56,-97 Z" fill="hsl(34, 70%, 50%)" stroke="hsl(34, 70%, 50%)"/>
<path d="M 44,955 l 112,0 l -56,97 l -56,-97 Z" fill="hsl(36.0, 70%, 50%)" stroke="hsl(36.0, 70%, 50%)"/>
<path d="M 156,955 l -56,97 l 112,0 l -56,-97 Z" fill="hsl(38, 70%, 50%)" stroke="hsl(38, 70%, 50%)"/>
<path d="M 156,955 l 112,0 l -56,97 l -56,-97 Z" fill="hsl(40.0, 70%, 50%)" stroke="hsl(40.0, 70%, 50%)"/>
<path d="M 268,955 l -56,97 l 112,0 l -56,-97 Z" fill="hsl(42, 70%, 50%)" stroke="hsl(42, 70%, 50%)"/>
<path d="M 268,955 l 112,0 l -56,97 l -56,-97 Z" fill="hsl(44.0, 70%, 50%)" stroke="hsl(44.0, 70%, 50%)"/>
<path d="M 380,955 l -56,97 l 112,0 l -56,-97 Z" fill="hsl(46, 70%, 50%)" stroke="hsl(46, 70%, 50%)"/>
<path d="M 380,955 l 112,0 l -56,97 l -56,-97 Z" fill="hsl(48.0, 70%, 50%)" stroke="hsl(48.0, 70%, 50%)"/>
<path d="M 492,955 l -56,97 l 112,0 l -56,-97 Z" fill="hsl(50, 70%, 50%)" stroke="hsl(50, 70%, 50%)"/>
<path d="M 492,955 l 112,0 l -56,97 l -56,-97 Z" fill="hsl(52.0, 70%, 50%)" stroke="hsl(52.0, 70%, 50%)"/>
<path d="M 604,955 l -56,97 l 112,0 l -56,-97 Z" fill="hsl(54, 70%, 50%)" stroke="hsl(54, 70%, 50%)"/>
<path d="M 604,955 l 112,0 l -56,97 l -56,-97 Z" fill="hsl(56.0, 70%, 50%)" stroke="hsl(56.0, 70%, 50%)"/>
<path d="M 716,955 l -56,97 l 112,0 l -56,-97 Z" fill="hsl(58, 70%, 50%)" stroke="hsl(58, 70%, 50%)"/>
<path d="M 716,955 l 112,0 l -56,97 l -56,-97 Z" fill="hsl(60.0, 70%, 50%)" stroke="hsl(60.0, 70%, 50%)"/>
<path d="M 828,955 l -56,97 l 112,0 l -56,-97 Z" fill="hsl(62, 70%, 50%)" stroke="hsl(62, 70%, 50%)"/>
<path d="M 828,955 l 112,0 l -56,97 l -56,-97 Z" fill="hsl(64.0, 70%, 50%)" stroke="hsl(64.0, 70%, 50%)"/>
<path d="M 940,955 l -56,97 l 112,0 l -56,-97 Z" fill="hsl(66, 70%, 50%)" stroke="hsl(66, 70%, 50%)"/>
<path d="M 940,955 l 112,0 l -56,97 l -56,-97 Z" fill="hsl(68.0, 70%, 50%)" stroke="hsl(68.0, 70%, 50%)"/>
<path d="M 1052,955 l -56,97 l 112,0 l -56,-97 Z" fill="hsl(70, 70%, 50%)" stroke="hsl(70, 70%, 50%)"/>
<path d="M 1052,955 l 112,0 l -56,97 l -56,-97 Z" fill="hsl(72.0, 70%, 50%)" stroke="hsl(72.0, 70%, 50%)"/>

</svg>