<?xml version="1.0" standalone="no"?>
<!DOCTYPE svg PUBLIC "-//W3C//DTD SVG 1.1//EN" "http://www.w3.org/Graphics/SVG/1.1/DTD/svg11.dtd">

<svg width="1000" height="800" style="background:#fff" 
  xmlns="http://www.w3.org/2000/svg"
  xmlns:xlink="http://www.w3.org/1999/xlink">

<style type="text/css">
<![CDATA[

]]>
</style>

<path d="M -68,-15 l -56,97 l 112,0 l -56,-97 Z" fill="hsl(0, 60%, 50%)" stroke="hsl(0, 60%, 50%)"/>
<path d="M -68,-15 l 112,0 l -56,97 l -56,-97 Z" fill="hsl(5.0, 60%, 50%)" stroke="hsl(5.0, 60%, 50%)"/>
<path d="M 44,-15 l -56,97 l 112,0 l -56,-97 Z" fill="hsl(10, 60%, 50%)" stroke="hsl(10, 60%, 50%)"/>
<path d="M 44,-15 l 112,0 l -56,97 l -56,-97 Z" fill="hsl(15.0, 60%, 50%)" stroke="hsl(15.0, 60%, 50%)"/>
<path d="M 156,-15 l -56,97 l 112,0 l -56,-97 Z" fill="hsl(20, 60%, 50%)" stroke="hsl(20, 60%, 50%)"/>
<path d="M 156,-15 l 112,0 l -56,97 l -56,-97 Z" fill="hsl(25.0, 60%, 50%)" stroke="hsl(25.0, 60%, 50%)"/>
<path d="M 268,-15 l -56,97 l 112,0 l -56,-97 Z" fill="hsl(30, 60%, 50%)" stroke="hsl(30, 60%, 50%)"/>
<path d="M 268,-15 l 112,0 l -56,97 l -56,-97 Z" fill="hsl(35.0, 60%, 50%)" stroke="hsl(35.0, 60%, 50%)"/>
<path d="M 380,-15 l -56,97 l 112,0 l -56,-97 Z" fill="hsl(40, 60%, 50%)" stroke="hsl(40, 60%, 50%)"/>
<path d="M 380,-15 l 112,0 l -56,97 l -56,-97 Z" fill="hsl(45.0, 60%, 50%)" stroke="hsl(45.0, 60%, 50%)"/>
<path d="M 492,-15 l -56,97 l 112,0 l -56,-97 Z" fill="hsl(50, 60%, 50%)" stroke="hsl(50, 60%, 50%)"/>
<path d="M 492,-15 l 112,0 l -56,97 l -56,-97 Z" fill="hsl(55.0, 60%, 50%)" stroke="hsl(55.0, 60%, 50%)"/>
<path d="M 604,-15 l -56,97 l 112,0 l -56,-97 Z" fill="hsl(60, 60%, 50%)" stroke="hsl(60, 60%, 50%)"/>
<path d="M 604,-15 l 112,0 l -56,97 l -56,-97 Z" fill="hsl(65.0, 60%, 50%)" stroke="hsl(65.0, 60%, 50%)"/>
<path d="M 716,-15 l -56,97 l 112,0 l -56,-97 Z" fill="hsl(70, 60%, 50%)" stroke="hsl(70, 60%, 50%)"/>
<path d="M 716,-15 l 112,0 l -56,97 l -56,-97 Z" fill="hsl(75.0, 60%, 50%)" stroke="hsl(75.0, 60%, 50%)"/>
<path d="M 828,-15 l -56,97 l 112,0 l -56,-97 Z" fill="hsl(80, 60%, 50%)" stroke="hsl(80, 60%, 50%)"/>
<path d="M 828,-15 l 112,0 l -56,97 l -56,-97 Z" fill="hsl(85.0, 60%, 50%)" stroke="hsl(85.0, 60%, 50%)"/>
<path d="M 940,-15 l -56,97 l 112,0 l -56,-97 Z" fill="hsl(90, 60%, 50%)" stroke="hsl(90, 60%, 50%)"/>
<path d="M 940,-15 l 112,0 l -56,97 l -56,-97 Z" fill="hsl(95.0, 60%, 50%)" stroke="hsl(95.0, 60%, 50%)"/>
<path d="M 1052,-15 l -56,97 l 112,0 l -56,-97 Z" fill="hsl(100, 60%, 50%)" stroke="hsl(100, 60%, 50%)"/>
<path d="M 1052,-15 l 112,0 l -56,97 l -56,-97 Z" fill="hsl(105.0, 60%, 50%)" stroke="hsl(105.0, 60%, 50%)"/>
<path d="M -124,82 l -56,97 l 112,0 l -56,-97 Z" fill="hsl(0, 60%, 50%)" stroke="hsl(0, 60%, 50%)"/>
<path d="M -124,82 l 112,0 l -56,97 l -56,-97 Z" fill="hsl(5.0, 60%, 50%)" stroke="hsl(5.0, 60%, 50%)"/>
<path d="M -12,82 l -56,97 l 112,0 l -56,-97 Z" fill="hsl(10, 60%, 50%)" stroke="hsl(10, 60%, 50%)"/>
<path d="M -12,82 l 112,0 l -56,97 l -56,-97 Z" fill="hsl(15.0, 60%, 50%)" stroke="hsl(15.0, 60%, 50%)"/>
<path d="M 100,82 l -56,97 l 112,0 l -56,-97 Z" fill="hsl(20, 60%, 50%)" stroke="hsl(20, 60%, 50%)"/>
<path d="M 100,82 l 112,0 l -56,97 l -56,-97 Z" fill="hsl(25.0, 60%, 50%)" stroke="hsl(25.0, 60%, 50%)"/>
<path d="M 212,82 l -56,97 l 112,0 l -56,-97 Z" fill="hsl(30, 60%, 50%)" stroke="hsl(30, 60%, 50%)"/>
<path d="M 212,82 l 112,0 l -56,97 l -56,-97 Z" fill="hsl(35.0, 60%, 50%)" stroke="hsl(35.0, 60%, 50%)"/>
<path d="M 324,82 l -56,97 l 112,0 l -56,-97 Z" fill="hsl(40, 60%, 50%)" stroke="hsl(40, 60%, 50%)"/>
<path d="M 324,82 l 112,0 l -56,97 l -56,-97 Z" fill="hsl(45.0, 60%, 50%)" stroke="hsl(45.0, 60%, 50%)"/>
<path d="M 436,82 l -56,97 l 112,0 l -56,-97 Z" fill="hsl(50, 60%, 50%)" stroke="hsl(50, 60%, 50%)"/>
<path d="M 436,82 l 112,0 l -56,97 l -56,-97 Z" fill="hsl(55.0, 60%, 50%)" stroke="hsl(55.0, 60%, 50%)"/>
<path d="M 548,82 l -56,97 l 112,0 l -56,-97 Z" fill="hsl(60, 60%, 50%)" stroke="hsl(60, 60%, 50%)"/>
<path d="M 548,82 l 112,0 l -56,97 l -56,-97 Z" fill="hsl(65.0, 60%, 50%)" stroke="hsl(65.0, 60%, 50%)"/>
<path d="M 660,82 l -56,97 l 112,0 l -56,-97 Z" fill="hsl(70, 60%, 50%)" stroke="hsl(70, 60%, 50%)"/>
<path d="M 660,82 l 112,0 l -56,97 l -56,-97 Z" fill="hsl(75.0, 60%, 50%)" stroke="hsl(75.0, 60%, 50%)"/>
<path d="M 772,82 l -56,97 l 112,0 l -56,-97 Z" fill="hsl(80, 60%, 50%)" stroke="hsl(80, 60%, 50%)"/>
<path d="M 772,82 l 112,0 l -56,97 l -56,-97 Z" fill="hsl(85.0, 60%, 50%)" stroke="hsl(85.0, 60%, 50%)"/>
<path d="M 884,82 l -56,97 l 112,0 l -56,-97 Z" fill="hsl(90, 60%, 50%)" stroke="hsl(90, 60%, 50%)"/>
<path d="M 884,82 l 112,0 l -56,97 l -56,-97 Z" fill="hsl(95.0, 60%, 50%)" stroke="hsl(95.0, 60%, 50%)"/>
<path d="M 996,82 l -56,97 l 112,0 l -56,-97 Z" fill="hsl(100, 60%, 50%)" stroke="hsl(100, 60%, 50%)"/>
<path d="M 996,82 l 112,0 l -56,97 l -56,-97 Z" fill="hsl(105.0, 60%, 50%)" stroke="hsl(105.0, 60%, 50%)"/>
<path d="M -68,179 l -56,97 l 112,0 l -56,-97 Z" fill="hsl(0, 60%, 50%)" stroke="hsl(0, 60%, 50%)"/>
<path d="M -68,179 l 112,0 l -56,97 l -56,-97 Z" fill="hsl(5.0, 60%, 50%)" stroke="hsl(5.0, 60%, 50%)"/>
<path d="M 44,179 l -56,97 l 112,0 l -56,-97 Z" fill="hsl(10, 60%, 50%)" stroke="hsl(10, 60%, 50%)"/>
<path d="M 44,179 l 112,0 l -56,97 l -56,-97 Z" fill="hsl(15.0, 60%, 50%)" stroke="hsl(15.0, 60%, 50%)"/>
<path d="M 156,179 l -56,97 l 112,0 l -56,-97 Z" fill="hsl(20, 60%, 50%)" stroke="hsl(20, 60%, 50%)"/>
<path d="M 156,179 l 112,0 l -56,97 l -56,-97 Z" fill="hsl(25.0, 60%, 50%)" stroke="hsl(25.0, 60%, 50%)"/>
<path d="M 268,179 l -56,97 l 112,0 l -56,-97 Z" fill="hsl(30, 60%, 50%)" stroke="hsl(30, 60%, 50%)"/>
<path d="M 268,179 l 112,0 l -56,97 l -56,-97 Z" fill="hsl(35.0, 60%, 50%)" stroke="hsl(35.0, 60%, 50%)"/>
<path d="M 380,179 l -56,97 l 112,0 l -56,-97 Z" fill="hsl(40, 60%, 50%)" stroke="hsl(40, 60%, 50%)"/>
<path d="M 380,179 l 112,0 l -56,97 l -56,-97 Z" fill="hsl(45.0, 60%, 50%)" stroke="hsl(45.0, 60%, 50%)"/>
<path d="M 492,179 l -56,97 l 112,0 l -56,-97 Z" fill="hsl(50, 60%, 50%)" stroke="hsl(50, 60%, 50%)"/>
<path d="M 492,179 l 112,0 l -56,97 l -56,-97 Z" fill="hsl(55.0, 60%, 50%)" stroke="hsl(55.0, 60%, 50%)"/>
<path d="M 604,179 l -56,97 l 112,0 l -56,-97 Z" fill="hsl(60, 60%, 50%)" stroke="hsl(60, 60%, 50%)"/>
<path d="M 604,179 l 112,0 l -56,97 l -56,-97 Z" fill="hsl(65.0, 60%, 50%)" stroke="hsl(65.0, 60%, 50%)"/>
<path d="M 716,179 l -56,97 l 112,0 l -56,-97 Z" fill="hsl(70, 60%, 50%)" stroke="hsl(70, 60%, 50%)"/>
<path d="M 716,179 l 112,0 l -56,97 l -56,-97 Z" fill="hsl(75.0, 60%, 50%)" stroke="hsl(75.0, 60%, 50%)"/>
<path d="M 828,179 l -56,97 l 112,0 l -56,-97 Z" fill="hsl(80, 60%, 50%)" stroke="hsl(80, 60%, 50%)"/>
<path d="M 828,179 l 112,0 l -56,97 l -56,-97 Z" fill="hsl(85.0, 60%, 50%)" stroke="hsl(85.0, 60%, 50%)"/>
<path d="M 940,179 l -56,97 l 112,0 l -56,-97 Z" fill="hsl(90, 60%, 50%)" stroke="hsl(90, 60%, 50%)"/>
<path d="M 940,179 l 112,0 l -56,97 l -56,-97 Z" fill="hsl(95.0, 60%, 50%)" stroke="hsl(95.0, 60%, 50%)"/>
<path d="M 1052,179 l -56,97 l 112,0 l -56,-97 Z" fill="hsl(100, 60%, 50%)" stroke="hsl(100, 60%, 50%)"/>
<path d="M 1052,179 l 112,0 l -56,97 l -56,-97 Z" fill="hsl(105.0, 60%, 50%)" stroke="hsl(105.0, 60%, 50%)"/>
<path d="M -124,276 l -56,97 l 112,0 l -56,-97 Z" fill="hsl(0, 60%, 50%)" stroke="hsl(0, 60%, 50%)"/>
<path d="M -124,276 l 112,0 l -56,97 l -56,-97 Z" fill="hsl(5.0, 60%, 50%)" stroke="hsl(5.0, 60%, 50%)"/>
<path d="M -12,276 l -56,97 l 112,0 l -56,-97 Z" fill="hsl(10, 60%, 50%)" stroke="hsl(10, 60%, 50%)"/>
<path d="M -12,276 l 112,0 l -56,97 l -56,-97 Z" fill="hsl(15.0, 60%, 50%)" stroke="hsl(15.0, 60%, 50%)"/>
<path d="M 100,276 l -56,97 l 112,0 l -56,-97 Z" fill="hsl(20, 60%, 50%)" stroke="hsl(20, 60%, 50%)"/>
<path d="M 100,276 l 112,0 l -56,97 l -56,-97 Z" fill="hsl(25.0, 60%, 50%)" stroke="hsl(25.0, 60%, 50%)"/>
<path d="M 212,276 l -56,97 l 112,0 l -56,-97 Z" fill="hsl(30, 60%, 50%)" stroke="hsl(30, 60%, 50%)"/>
<path d="M 212,276 l 112,0 l -56,97 l -56,-97 Z" fill="hsl(35.0, 60%, 50%)" stroke="hsl(35.0, 60%, 50%)"/>
<path d="M 324,276 l -56,97 l 112,0 l -56,-97 Z" fill="hsl(40, 60%, 50%)" stroke="hsl(40, 60%, 50%)"/>
<path d="M 324,276 l 112,0 l -56,97 l -56,-97 Z" fill="hsl(45.0, 60%, 50%)" stroke="hsl(45.0, 60%, 50%)"/>
<path d="M 436,276 l -56,97 l 112,0 l -56,-97 Z" fill="hsl(50, 60%, 50%)" stroke="hsl(50, 60%, 50%)"/>
<path d="M 436,276 l 112,0 l -56,97 l -56,-97 Z" fill="hsl(55.0, 60%, 50%)" stroke="hsl(55.0, 60%, 50%)"/>
<path d="M 548,276 l -56,97 l 112,0 l -56,-97 Z" fill="hsl(60, 60%, 50%)" stroke="hsl(60, 60%, 50%)"/>
<path d="M 548,276 l 112,0 l -56,97 l -56,-97 Z" fill="hsl(65.0, 60%, 50%)" stroke="hsl(65.0, 60%, 50%)"/>
<path d="M 660,276 l -56,97 l 112,0 l -56,-97 Z" fill="hsl(70, 60%, 50%)" stroke="hsl(70, 60%, 50%)"/>
<path d="M 660,276 l 112,0 l -56,97 l -56,-97 Z" fill="hsl(75.0, 60%, 50%)" stroke="hsl(75.0, 60%, 50%)"/>
<path d="M 772,276 l -56,97 l 112,0 l -56,-97 Z" fill="hsl(80, 60%, 50%)" stroke="hsl(80, 60%, 50%)"/>
<path d="M 772,276 l 112,0 l -56,97 l -56,-97 Z" fill="hsl(85.0, 60%, 50%)" stroke="hsl(85.0, 60%, 50%)"/>
<path d="M 884,276 l -56,97 l 112,0 l -56,-97 Z" fill="hsl(90, 60%, 50%)" stroke="hsl(90, 60%, 50%)"/>
<path d="M 884,276 l 112,0 l -56,97 l -56,-97 Z" fill="hsl(95.0, 60%, 50%)" stroke="hsl(95.0, 60%, 50%)"/>
<path d="M 996,276 l -56,97 l 112,0 l -56,-97 Z" fill="hsl(100, 60%, 50%)" stroke="hsl(100, 60%, 50%)"/>
<path d="M 996,276 l 112,0 l -56,97 l -56,-97 Z" fill="hsl(105.0, 60%, 50%)" stroke="hsl(105.0, 60%, 50%)"/>
<path d="M -68,373 l -56,97 l 112,0 l -56,-97 Z" fill="hsl(0, 60%, 50%)" stroke="hsl(0, 60%, 50%)"/>
<path d="M -68,373 l 112,0 l -56,97 l -56,-97 Z" fill="hsl(5.0, 60%, 50%)" stroke="hsl(5.0, 60%, 50%)"/>
<path d="M 44,373 l -56,97 l 112,0 l -56,-97 Z" fill="hsl(10, 60%, 50%)" stroke="hsl(10, 60%, 50%)"/>
<path d="M 44,373 l 112,0 l -56,97 l -56,-97 Z" fill="hsl(15.0, 60%, 50%)" stroke="hsl(15.0, 60%, 50%)"/>
<path d="M 156,373 l -56,97 l 112,0 l -56,-97 Z" fill="hsl(20, 60%, 50%)" stroke="hsl(20, 60%, 50%)"/>
<path d="M 156,373 l 112,0 l -56,97 l -56,-97 Z" fill="hsl(25.0, 60%, 50%)" stroke="hsl(25.0, 60%, 50%)"/>
<path d="M 268,373 l -56,97 l 112,0 l -56,-97 Z" fill="hsl(30, 60%, 50%)" stroke="hsl(30, 60%, 50%)"/>
<path d="M 268,373 l 112,0 l -56,97 l -56,-97 Z" fill="hsl(35.0, 60%, 50%)" stroke="hsl(35.0, 60%, 50%)"/>
<path d="M 380,373 l -56,97 l 112,0 l -56,-97 Z" fill="hsl(40, 60%, 50%)" stroke="hsl(40, 60%, 50%)"/>
<path d="M 380,373 l 112,0 l -56,97 l -56,-97 Z" fill="hsl(45.0, 60%, 50%)" stroke="hsl(45.0, 60%, 50%)"/>
<path d="M 492,373 l -56,97 l 112,0 l -56,-97 Z" fill="hsl(50, 60%, 50%)" stroke="hsl(50, 60%, 50%)"/>
<path d="M 492,373 l 112,0 l -56,97 l -56,-97 Z" fill="hsl(55.0, 60%, 50%)" stroke="hsl(55.0, 60%, 50%)"/>
<path d="M 604,373 l -56,97 l 112,0 l -56,-97 Z" fill="hsl(60, 60%, 50%)" stroke="hsl(60, 60%, 50%)"/>
<path d="M 604,373 l 112,0 l -56,97 l -56,-97 Z" fill="hsl(65.0, 60%, 50%)" stroke="hsl(65.0, 60%, 50%)"/>
<path d="M 716,373 l -56,97 l 112,0 l -56,-97 Z" fill="hsl(70, 60%, 50%)" stroke="hsl(70, 60%, 50%)"/>
<path d="M 716,373 l 112,0 l -56,97 l -56,-97 Z" fill="hsl(75.0, 60%, 50%)" stroke="hsl(75.0, 60%, 50%)"/>
<path d="M 828,373 l -56,97 l 112,0 l -56,-97 Z" fill="hsl(80, 60%, 50%)" stroke="hsl(80, 60%, 50%)"/>
<path d="M 828,373 l 112,0 l -56,97 l -56,-97 Z" fill="hsl(85.0, 60%, 50%)" stroke="hsl(85.0, 60%, 50%)"/>
<path d="M 940,373 l -56,97 l 112,0 l -56,-97 Z" fill="hsl(90, 60%, 50%)" stroke="hsl(90, 60%, 50%)"/>
<path d="M 940,373 l 112,0 l -56,97 l -56,-97 Z" fill="hsl(95.0, 60%, 50%)" stroke="hsl(95.0, 60%, 50%)"/>
<path d="M 1052,373 l -56,97 l 112,0 l -56,-97 Z" fill="hsl(100, 60%, 50%)" stroke="hsl(100, 60%, 50%)"/>
<path d="M 1052,373 l 112,0 l -56,97 l -56,-97 Z" fill="hsl(105.0, 60%, 50%)" stroke="hsl(105.0, 60%, 50%)"/>
<path d="M -124,470 l -56,97 l 112,0 l -56,-97 Z" fill="hsl(0, 60%, 50%)" stroke="hsl(0, 60%, 50%)"/>
<path d="M -124,470 l 112,0 l -56,97 l -56,-97 Z" fill="hsl(5.0, 60%, 50%)" stroke="hsl(5.0, 60%, 50%)"/>
<path d="M -12,470 l -56,97 l 112,0 l -56,-97 Z" fill="hsl(10, 60%, 50%)" stroke="hsl(10, 60%, 50%)"/>
<path d="M -12,470 l 112,0 l -56,97 l -56,-97 Z" fill="hsl(15.0, 60%, 50%)" stroke="hsl(15.0, 60%, 50%)"/>
<path d="M 100,470 l -56,97 l 112,0 l -56,-97 Z" fill="hsl(20, 60%, 50%)" stroke="hsl(20, 60%, 50%)"/>
<path d="M 100,470 l 112,0 l -56,97 l -56,-97 Z" fill="hsl(25.0, 60%, 50%)" stroke="hsl(25.0, 60%, 50%)"/>
<path d="M 212,470 l -56,97 l 112,0 l -56,-97 Z" fill="hsl(30, 60%, 50%)" stroke="hsl(30, 60%, 50%)"/>
<path d="M 212,470 l 112,0 l -56,97 l -56,-97 Z" fill="hsl(35.0, 60%, 50%)" stroke="hsl(35.0, 60%, 50%)"/>
<path d="M 324,470 l -56,97 l 112,0 l -56,-97 Z" fill="hsl(40, 60%, 50%)" stroke="hsl(40, 60%, 50%)"/>
<path d="M 324,470 l 112,0 l -56,97 l -56,-97 Z" fill="hsl(45.0, 60%, 50%)" stroke="hsl(45.0, 60%, 50%)"/>
<path d="M 436,470 l -56,97 l 112,0 l -56,-97 Z" fill="hsl(50, 60%, 50%)" stroke="hsl(50, 60%, 50%)"/>
<path d="M 436,470 l 112,0 l -56,97 l -56,-97 Z" fill="hsl(55.0, 60%, 50%)" stroke="hsl(55.0, 60%, 50%)"/>
<path d="M 548,470 l -56,97 l 112,0 l -56,-97 Z" fill="hsl(60, 60%, 50%)" stroke="hsl(60, 60%, 50%)"/>
<path d="M 548,470 l 112,0 l -56,97 l -56,-97 Z" fill="hsl(65.0, 60%, 50%)" stroke="hsl(65.0, 60%, 50%)"/>
<path d="M 660,470 l -56,97 l 112,0 l -56,-97 Z" fill="hsl(70, 60%, 50%)" stroke="hsl(70, 60%, 50%)"/>
<path d="M 660,470 l 112,0 l -56,97 l -56,-97 Z" fill="hsl(75.0, 60%, 50%)" stroke="hsl(75.0, 60%, 50%)"/>
<path d="M 772,470 l -56,97 l 112,0 l -56,-97 Z" fill="hsl(80, 60%, 50%)" stroke="hsl(80, 60%, 50%)"/>
<path d="M 772,470 l 112,0 l -56,97 l -56,-97 Z" fill="hsl(85.0, 60%, 50%)" stroke="hsl(85.0, 60%, 50%)"/>
<path d="M 884,470 l -56,97 l 112,0 l -56,-97 Z" fill="hsl(90, 60%, 50%)" stroke="hsl(90, 60%, 50%)"/>
<path d="M 884,470 l 112,0 l -56,97 l -56,-97 Z" fill="hsl(95.0, 60%, 50%)" stroke="hsl(95.0, 60%, 50%)"/>
<path d="M 996,470 l -56,97 l 112,0 l -56,-97 Z" fill="hsl(100, 60%, 50%)" stroke="hsl(100, 60%, 50%)"/>
<path d="M 996,470 l 112,0 l -56,97 l -56,-97 Z" fill="hsl(105.0, 60%, 50%)" stroke="hsl(105.0, 60%, 50%)"/>
<path d="M -68,567 l -56,97 l 112,0 l -56,-97 Z" fill="hsl(0, 60%, 50%)" stroke="hsl(0, 60%, 50%)"/>
<path d="M -68,567 l 112,0 l -56,97 l -56,-97 Z" fill="hsl(5.0, 60%, 50%)" stroke="hsl(5.0, 60%, 50%)"/>
<path d="M 44,567 l -56,97 l 112,0 l -56,-97 Z" fill="hsl(10, 60%, 50%)" stroke="hsl(10, 60%, 50%)"/>
<path d="M 44,567 l 112,0 l -56,97 l -56,-97 Z" fill="hsl(15.0, 60%, 50%)" stroke="hsl(15.0, 60%, 50%)"/>
<path d="M 156,567 l -56,97 l 112,0 l -56,-97 Z" fill="hsl(20, 60%, 50%)" stroke="hsl(20, 60%, 50%)"/>
<path d="M 156,567 l 112,0 l -56,97 l -56,-97 Z" fill="hsl(25.0, 60%, 50%)" stroke="hsl(25.0, 60%, 50%)"/>
<path d="M 268,567 l -56,97 l 112,0 l -56,-97 Z" fill="hsl(30, 60%, 50%)" stroke="hsl(30, 60%, 50%)"/>
<path d="M 268,567 l 112,0 l -56,97 l -56,-97 Z" fill="hsl(35.0, 60%, 50%)" stroke="hsl(35.0, 60%, 50%)"/>
<path d="M 380,567 l -56,97 l 112,0 l -56,-97 Z" fill="hsl(40, 60%, 50%)" stroke="hsl(40, 60%, 50%)"/>
<path d="M 380,567 l 112,0 l -56,97 l -56,-97 Z" fill="hsl(45.0, 60%, 50%)" stroke="hsl(45.0, 60%, 50%)"/>
<path d="M 492,567 l -56,97 l 112,0 l -56,-97 Z" fill="hsl(50, 60%, 50%)" stroke="hsl(50, 60%, 50%)"/>
<path d="M 492,567 l 112,0 l -56,97 l -56,-97 Z" fill="hsl(55.0, 60%, 50%)" stroke="hsl(55.0, 60%, 50%)"/>
<path d="M 604,567 l -56,97 l 112,0 l -56,-97 Z" fill="hsl(60, 60%, 50%)" stroke="hsl(60, 60%, 50%)"/>
<path d="M 604,567 l 112,0 l -56,97 l -56,-97 Z" fill="hsl(65.0, 60%, 50%)" stroke="hsl(65.0, 60%, 50%)"/>
<path d="M 716,567 l -56,97 l 112,0 l -56,-97 Z" fill="hsl(70, 60%, 50%)" stroke="hsl(70, 60%, 50%)"/>
<path d="M 716,567 l 112,0 l -56,97 l -56,-97 Z" fill="hsl(75.0, 60%, 50%)" stroke="hsl(75.0, 60%, 50%)"/>
<path d="M 828,567 l -56,97 l 112,0 l -56,-97 Z" fill="hsl(80, 60%, 50%)" stroke="hsl(80, 60%, 50%)"/>
<path d="M 828,567 l 112,0 l -56,97 l -56,-97 Z" fill="hsl(85.0, 60%, 50%)" stroke="hsl(85.0, 60%, 50%)"/>
<path d="M 940,567 l -56,97 l 112,0 l -56,-97 Z" fill="hsl(90, 60%, 50%)" stroke="hsl(90, 60%, 50%)"/>
<path d="M 940,567 l 112,0 l -56,97 l -56,-97 Z" fill="hsl(95.0, 60%, 50%)" stroke="hsl(95.0, 60%, 50%)"/>
<path d="M 1052,567 l -56,97 l 112,0 l -56,-97 Z" fill="hsl(100, 60%, 50%)" stroke="hsl(100, 60%, 50%)"/>
<path d="M 1052,567 l 112,0 l -56,97 l -56,-97 Z" fill="hsl(105.0, 60%, 50%)" stroke="hsl(105.0, 60%, 50%)"/>
<path d="M -124,664 l -56,97 l 112,0 l -56,-97 Z" fill="hsl(0, 60%, 50%)" stroke="hsl(0, 60%, 50%)"/>
<path d="M -124,664 l 112,0 l -56,97 l -56,-97 Z" fill="hsl(5.0, 60%, 50%)" stroke="hsl(5.0, 60%, 50%)"/>
<path d="M -12,664 l -56,97 l 112,0 l -56,-97 Z" fill="hsl(10, 60%, 50%)" stroke="hsl(10, 60%, 50%)"/>
<path d="M -12,664 l 112,0 l -56,97 l -56,-97 Z" fill="hsl(15.0, 60%, 50%)" stroke="hsl(15.0, 60%, 50%)"/>
<path d="M 100,664 l -56,97 l 112,0 l -56,-97 Z" fill="hsl(20, 60%, 50%)" stroke="hsl(20, 60%, 50%)"/>
<path d="M 100,664 l 112,0 l -56,97 l -56,-97 Z" fill="hsl(25.0, 60%, 50%)" stroke="hsl(25.0, 60%, 50%)"/>
<path d="M 212,664 l -56,97 l 112,0 l -56,-97 Z" fill="hsl(30, 60%, 50%)" stroke="hsl(30, 60%, 50%)"/>
<path d="M 212,664 l 112,0 l -56,97 l -56,-97 Z" fill="hsl(35.0, 60%, 50%)" stroke="hsl(35.0, 60%, 50%)"/>
<path d="M 324,664 l -56,97 l 112,0 l -56,-97 Z" fill="hsl(40, 60%, 50%)" stroke="hsl(40, 60%, 50%)"/>
<path d="M 324,664 l 112,0 l -56,97 l -56,-97 Z" fill="hsl(45.0, 60%, 50%)" stroke="hsl(45.0, 60%, 50%)"/>
<path d="M 436,664 l -56,97 l 112,0 l -56,-97 Z" fill="hsl(50, 60%, 50%)" stroke="hsl(50, 60%, 50%)"/>
<path d="M 436,664 l 112,0 l -56,97 l -56,-97 Z" fill="hsl(55.0, 60%, 50%)" stroke="hsl(55.0, 60%, 50%)"/>
<path d="M 548,664 l -56,97 l 112,0 l -56,-97 Z" fill="hsl(60, 60%, 50%)" stroke="hsl(60, 60%, 50%)"/>
<path d="M 548,664 l 112,0 l -56,97 l -56,-97 Z" fill="hsl(65.0, 60%, 50%)" stroke="hsl(65.0, 60%, 50%)"/>
<path d="M 660,664 l -56,97 l 112,0 l -56,-97 Z" fill="hsl(70, 60%, 50%)" stroke="hsl(70, 60%, 50%)"/>
<path d="M 660,664 l 112,0 l -56,97 l -56,-97 Z" fill="hsl(75.0, 60%, 50%)" stroke="hsl(75.0, 60%, 50%)"/>
<path d="M 772,664 l -56,97 l 112,0 l -56,-97 Z" fill="hsl(80, 60%, 50%)" stroke="hsl(80, 60%, 50%)"/>
<path d="M 772,664 l 112,0 l -56,97 l -56,-97 Z" fill="hsl(85.0, 60%, 50%)" stroke="hsl(85.0, 60%, 50%)"/>
<path d="M 884,664 l -56,97 l 112,0 l -56,-97 Z" fill="hsl(90, 60%, 50%)" stroke="hsl(90, 60%, 50%)"/>
<path d="M 884,664 l 112,0 l -56,97 l -56,-97 Z" fill="hsl(95.0, 60%, 50%)" stroke="hsl(95.0, 60%, 50%)"/>
<path d="M 996,664 l -56,97 l 112,0 l -56,-97 Z" fill="hsl(100, 60%, 50%)" stroke="hsl(100, 60%, 50%)"/>
<path d="M 996,664 l 112,0 l -56,97 l -56,-97 Z" fill="hsl(105.0, 60%, 50%)" stroke="hsl(105.0, 60%, 50%)"/>
<path d="M -68,761 l -56,97 l 112,0 l -56,-97 Z" fill="hsl(0, 60%, 50%)" stroke="hsl(0, 60%, 50%)"/>
<path d="M -68,761 l 112,0 l -56,97 l -56,-97 Z" fill="hsl(5.0, 60%, 50%)" stroke="hsl(5.0, 60%, 50%)"/>
<path d="M 44,761 l -56,97 l 112,0 l -56,-97 Z" fill="hsl(10, 60%, 50%)" stroke="hsl(10, 60%, 50%)"/>
<path d="M 44,761 l 112,0 l -56,97 l -56,-97 Z" fill="hsl(15.0, 60%, 50%)" stroke="hsl(15.0, 60%, 50%)"/>
<path d="M 156,761 l -56,97 l 112,0 l -56,-97 Z" fill="hsl(20, 60%, 50%)" stroke="hsl(20, 60%, 50%)"/>
<path d="M 156,761 l 112,0 l -56,97 l -56,-97 Z" fill="hsl(25.0, 60%, 50%)" stroke="hsl(25.0, 60%, 50%)"/>
<path d="M 268,761 l -56,97 l 112,0 l -56,-97 Z" fill="hsl(30, 60%, 50%)" stroke="hsl(30, 60%, 50%)"/>
<path d="M 268,761 l 112,0 l -56,97 l -56,-97 Z" fill="hsl(35.0, 60%, 50%)" stroke="hsl(35.0, 60%, 50%)"/>
<path d="M 380,761 l -56,97 l 112,0 l -56,-97 Z" fill="hsl(40, 60%, 50%)" stroke="hsl(40, 60%, 50%)"/>
<path d="M 380,761 l 112,0 l -56,97 l -56,-97 Z" fill="hsl(45.0, 60%, 50%)" stroke="hsl(45.0, 60%, 50%)"/>
<path d="M 492,761 l -56,97 l 112,0 l -56,-97 Z" fill="hsl(50, 60%, 50%)" stroke="hsl(50, 60%, 50%)"/>
<path d="M 492,761 l 112,0 l -56,97 l -56,-97 Z" fill="hsl(55.0, 60%, 50%)" stroke="hsl(55.0, 60%, 50%)"/>
<path d="M 604,761 l -56,97 l 112,0 l -56,-97 Z" fill="hsl(60, 60%, 50%)" stroke="hsl(60, 60%, 50%)"/>
<path d="M 604,761 l 112,0 l -56,97 l -56,-97 Z" fill="hsl(65.0, 60%, 50%)" stroke="hsl(65.0, 60%, 50%)"/>
<path d="M 716,761 l -56,97 l 112,0 l -56,-97 Z" fill="hsl(70, 60%, 50%)" stroke="hsl(70, 60%, 50%)"/>
<path d="M 716,761 l 112,0 l -56,97 l -56,-97 Z" fill="hsl(75.0, 60%, 50%)" stroke="hsl(75.0, 60%, 50%)"/>
<path d="M 828,761 l -56,97 l 112,0 l -56,-97 Z" fill="hsl(80, 60%, 50%)" stroke="hsl(80, 60%, 50%)"/>
<path d="M 828,761 l 112,0 l -56,97 l -56,-97 Z" fill="hsl(85.0, 60%, 50%)" stroke="hsl(85.0, 60%, 50%)"/>
<path d="M 940,761 l -56,97 l 112,0 l -56,-97 Z" fill="hsl(90, 60%, 50%)" stroke="hsl(90, 60%, 50%)"/>
<path d="M 940,761 l 112,0 l -56,97 l -56,-97 Z" fill="hsl(95.0, 60%, 50%)" stroke="hsl(95.0, 60%, 50%)"/>
<path d="M 1052,761 l -56,97 l 112,0 l -56,-97 Z" fill="hsl(100, 60%, 50%)" stroke="hsl(100, 60%, 50%)"/>
<path d="M 1052,761 l 112,0 l -56,97 l -56,-97 Z" fill="hsl(105.0, 60%, 50%)" stroke="hsl(105.0, 60%, 50%)"/>
<path d="M -124,858 l -56,97 l 112,0 l -56,-97 Z" fill="hsl(0, 60%, 50%)" stroke="hsl(0, 60%, 50%)"/>
<path d="M -124,858 l 112,0 l -56,97 l -56,-97 Z" fill="hsl(5.0, 60%, 50%)" stroke="hsl(5.0, 60%, 50%)"/>
<path d="M -12,858 l -56,97 l 112,0 l -56,-97 Z" fill="hsl(10, 60%, 50%)" stroke="hsl(10, 60%, 50%)"/>
<path d="M -12,858 l 112,0 l -56,97 l -56,-97 Z" fill="hsl(15.0, 60%, 50%)" stroke="hsl(15.0, 60%, 50%)"/>
<path d="M 100,858 l -56,97 l 112,0 l -56,-97 Z" fill="hsl(20, 60%, 50%)" stroke="hsl(20, 60%, 50%)"/>
<path d="M 100,858 l 112,0 l -56,97 l -56,-97 Z" fill="hsl(25.0, 60%, 50%)" stroke="hsl(25.0, 60%, 50%)"/>
<path d="M 212,858 l -56,97 l 112,0 l -56,-97 Z" fill="hsl(30, 60%, 50%)" stroke="hsl(30, 60%, 50%)"/>
<path d="M 212,858 l 112,0 l -56,97 l -56,-97 Z" fill="hsl(35.0, 60%, 50%)" stroke="hsl(35.0, 60%, 50%)"/>
<path d="M 324,858 l -56,97 l 112,0 l -56,-97 Z" fill="hsl(40, 60%, 50%)" stroke="hsl(40, 60%, 50%)"/>
<path d="M 324,858 l 112,0 l -56,97 l -56,-97 Z" fill="hsl(45.0, 60%, 50%)" stroke="hsl(45.0, 60%, 50%)"/>
<path d="M 436,858 l -56,97 l 112,0 l -56,-97 Z" fill="hsl(50, 60%, 50%)" stroke="hsl(50, 60%, 50%)"/>
<path d="M 436,858 l 112,0 l -56,97 l -56,-97 Z" fill="hsl(55.0, 60%, 50%)" stroke="hsl(55.0, 60%, 50%)"/>
<path d="M 548,858 l -56,97 l 112,0 l -56,-97 Z" fill="hsl(60, 60%, 50%)" stroke="hsl(60, 60%, 50%)"/>
<path d="M 548,858 l 112,0 l -56,97 l -56,-97 Z" fill="hsl(65.0, 60%, 50%)" stroke="hsl(65.0, 60%, 50%)"/>
<path d="M 660,858 l -56,97 l 112,0 l -56,-97 Z" fill="hsl(70, 60%, 50%)" stroke="hsl(70, 60%, 50%)"/>
<path d="M 660,858 l 112,0 l -56,97 l -56,-97 Z" fill="hsl(75.0, 60%, 50%)" stroke="hsl(75.0, 60%, 50%)"/>
<path d="M 772,858 l -56,97 l 112,0 l -56,-97 Z" fill="hsl(80, 60%, 50%)" stroke="hsl(80, 60%, 50%)"/>
<path d="M 772,858 l 112,0 l -56,97 l -56,-97 Z" fill="hsl(85.0, 60%, 50%)" stroke="hsl(85.0, 60%, 50%)"/>
<path d="M 884,858 l -56,97 l 112,0 l -56,-97 Z" fill="hsl(90, 60%, 50%)" stroke="hsl(90, 60%, 50%)"/>
<path d="M 884,858 l 112,0 l -56,97 l -56,-97 Z" fill="hsl(95.0, 60%, 50%)" stroke="hsl(95.0, 60%, 50%)"/>
<path d="M 996,858 l -56,97 l 112,0 l -56,-97 Z" fill="hsl(100, 60%, 50%)" stroke="hsl(100, 60%, 50%)"/>
<path d="M 996,858 l 112,0 l -56,97 l -56,-97 Z" fill="hsl(105.0, 60%, 50%)" stroke="hsl(105.0, 60%, 50%)"/>

</svg>