<?xml version="1.0" standalone="no"?>
<!DOCTYPE svg PUBLIC "-//W3C//DTD SVG 1.1//EN" "http://www.w3.org/Graphics/SVG/1.1/DTD/svg11.dtd">

<svg width="1000" height="1000" style="background:#fff" 
  xmlns="http://www.w3.org/2000/svg"
  xmlns:xlink="http://www.w3.org/1999/xlink">

<style type="text/css">
<![CDATA[

]]>
</style>

<path d="M -68,-15 l -56,97 l 112,0 l -56,-97 Z" fill="hsl(260, 70%, 50%)" stroke="hsl(260, 70%, 50%)"/>
<path d="M -68,-15 l 112,0 l -56,97 l -56,-97 Z" fill="hsl(262.0, 70%, 50%)" stroke="hsl(262.0, 70%, 50%)"/>
<path d="M 44,-15 l -56,97 l 112,0 l -56,-97 Z" fill="hsl(264, 70%, 50%)" stroke="hsl(264, 70%, 50%)"/>
<path d="M 44,-15 l 112,0 l -56,97 l -56,-97 Z" fill="hsl(266.0, 70%, 50%)" stroke="hsl(266.0, 70%, 50%)"/>
<path d="M 156,-15 l -56,97 l 112,0 l -56,-97 Z" fill="hsl(268, 70%, 50%)" stroke="hsl(268, 70%, 50%)"/>
<path d="M 156,-15 l 112,0 l -56,97 l -56,-97 Z" fill="hsl(270.0, 70%, 50%)" stroke="hsl(270.0, 70%, 50%)"/>
<path d="M 268,-15 l -56,97 l 112,0 l -56,-97 Z" fill="hsl(272, 70%, 50%)" stroke="hsl(272, 70%, 50%)"/>
<path d="M 268,-15 l 112,0 l -56,97 l -56,-97 Z" fill="hsl(274.0, 70%, 50%)" stroke="hsl(274.0, 70%, 50%)"/>
<path d="M 380,-15 l -56,97 l 112,0 l -56,-97 Z" fill="hsl(276, 70%, 50%)" stroke="hsl(276, 70%, 50%)"/>
<path d="M 380,-15 l 112,0 l -56,97 l -56,-97 Z" fill="hsl(278.0, 70%, 50%)" stroke="hsl(278.0, 70%, 50%)"/>
<path d="M 492,-15 l -56,97 l 112,0 l -56,-97 Z" fill="hsl(280, 70%, 50%)" stroke="hsl(280, 70%, 50%)"/>
<path d="M 492,-15 l 112,0 l -56,97 l -56,-97 Z" fill="hsl(282.0, 70%, 50%)" stroke="hsl(282.0, 70%, 50%)"/>
<path d="M 604,-15 l -56,97 l 112,0 l -56,-97 Z" fill="hsl(284, 70%, 50%)" stroke="hsl(284, 70%, 50%)"/>
<path d="M 604,-15 l 112,0 l -56,97 l -56,-97 Z" fill="hsl(286.0, 70%, 50%)" stroke="hsl(286.0, 70%, 50%)"/>
<path d="M 716,-15 l -56,97 l 112,0 l -56,-97 Z" fill="hsl(288, 70%, 50%)" stroke="hsl(288, 70%, 50%)"/>
<path d="M 716,-15 l 112,0 l -56,97 l -56,-97 Z" fill="hsl(290.0, 70%, 50%)" stroke="hsl(290.0, 70%, 50%)"/>
<path d="M 828,-15 l -56,97 l 112,0 l -56,-97 Z" fill="hsl(292, 70%, 50%)" stroke="hsl(292, 70%, 50%)"/>
<path d="M 828,-15 l 112,0 l -56,97 l -56,-97 Z" fill="hsl(294.0, 70%, 50%)" stroke="hsl(294.0, 70%, 50%)"/>
<path d="M 940,-15 l -56,97 l 112,0 l -56,-97 Z" fill="hsl(296, 70%, 50%)" stroke="hsl(296, 70%, 50%)"/>
<path d="M 940,-15 l 112,0 l -56,97 l -56,-97 Z" fill="hsl(298.0, 70%, 50%)" stroke="hsl(298.0, 70%, 50%)"/>
<path d="M 1052,-15 l -56,97 l 112,0 l -56,-97 Z" fill="hsl(300, 70%, 50%)" stroke="hsl(300, 70%, 50%)"/>
<path d="M 1052,-15 l 112,0 l -56,97 l -56,-97 Z" fill="hsl(302.0, 70%, 50%)" stroke="hsl(302.0, 70%, 50%)"/>
<path d="M -124,82 l -56,97 l 112,0 l -56,-97 Z" fill="hsl(260, 70%, 50%)" stroke="hsl(260, 70%, 50%)"/>
<path d="M -124,82 l 112,0 l -56,97 l -56,-97 Z" fill="hsl(262.0, 70%, 50%)" stroke="hsl(262.0, 70%, 50%)"/>
<path d="M -12,82 l -56,97 l 112,0 l -56,-97 Z" fill="hsl(264, 70%, 50%)" stroke="hsl(264, 70%, 50%)"/>
<path d="M -12,82 l 112,0 l -56,97 l -56,-97 Z" fill="hsl(266.0, 70%, 50%)" stroke="hsl(266.0, 70%, 50%)"/>
<path d="M 100,82 l -56,97 l 112,0 l -56,-97 Z" fill="hsl(268, 70%, 50%)" stroke="hsl(268, 70%, 50%)"/>
<path d="M 100,82 l 112,0 l -56,97 l -56,-97 Z" fill="hsl(270.0, 70%, 50%)" stroke="hsl(270.0, 70%, 50%)"/>
<path d="M 212,82 l -56,97 l 112,0 l -56,-97 Z" fill="hsl(272, 70%, 50%)" stroke="hsl(272, 70%, 50%)"/>
<path d="M 212,82 l 112,0 l -56,97 l -56,-97 Z" fill="hsl(274.0, 70%, 50%)" stroke="hsl(274.0, 70%, 50%)"/>
<path d="M 324,82 l -56,97 l 112,0 l -56,-97 Z" fill="hsl(276, 70%, 50%)" stroke="hsl(276, 70%, 50%)"/>
<path d="M 324,82 l 112,0 l -56,97 l -56,-97 Z" fill="hsl(278.0, 70%, 50%)" stroke="hsl(278.0, 70%, 50%)"/>
<path d="M 436,82 l -56,97 l 112,0 l -56,-97 Z" fill="hsl(280, 70%, 50%)" stroke="hsl(280, 70%, 50%)"/>
<path d="M 436,82 l 112,0 l -56,97 l -56,-97 Z" fill="hsl(282.0, 70%, 50%)" stroke="hsl(282.0, 70%, 50%)"/>
<path d="M 548,82 l -56,97 l 112,0 l -56,-97 Z" fill="hsl(284, 70%, 50%)" stroke="hsl(284, 70%, 50%)"/>
<path d="M 548,82 l 112,0 l -56,97 l -56,-97 Z" fill="hsl(286.0, 70%, 50%)" stroke="hsl(286.0, 70%, 50%)"/>
<path d="M 660,82 l -56,97 l 112,0 l -56,-97 Z" fill="hsl(288, 70%, 50%)" stroke="hsl(288, 70%, 50%)"/>
<path d="M 660,82 l 112,0 l -56,97 l -56,-97 Z" fill="hsl(290.0, 70%, 50%)" stroke="hsl(290.0, 70%, 50%)"/>
<path d="M 772,82 l -56,97 l 112,0 l -56,-97 Z" fill="hsl(292, 70%, 50%)" stroke="hsl(292, 70%, 50%)"/>
<path d="M 772,82 l 112,0 l -56,97 l -56,-97 Z" fill="hsl(294.0, 70%, 50%)" stroke="hsl(294.0, 70%, 50%)"/>
<path d="M 884,82 l -56,97 l 112,0 l -56,-97 Z" fill="hsl(296, 70%, 50%)" stroke="hsl(296, 70%, 50%)"/>
<path d="M 884,82 l 112,0 l -56,97 l -56,-97 Z" fill="hsl(298.0, 70%, 50%)" stroke="hsl(298.0, 70%, 50%)"/>
<path d="M 996,82 l -56,97 l 112,0 l -56,-97 Z" fill="hsl(300, 70%, 50%)" stroke="hsl(300, 70%, 50%)"/>
<path d="M 996,82 l 112,0 l -56,97 l -56,-97 Z" fill="hsl(302.0, 70%, 50%)" stroke="hsl(302.0, 70%, 50%)"/>
<path d="M -68,179 l -56,97 l 112,0 l -56,-97 Z" fill="hsl(260, 70%, 50%)" stroke="hsl(260, 70%, 50%)"/>
<path d="M -68,179 l 112,0 l -56,97 l -56,-97 Z" fill="hsl(262.0, 70%, 50%)" stroke="hsl(262.0, 70%, 50%)"/>
<path d="M 44,179 l -56,97 l 112,0 l -56,-97 Z" fill="hsl(264, 70%, 50%)" stroke="hsl(264, 70%, 50%)"/>
<path d="M 44,179 l 112,0 l -56,97 l -56,-97 Z" fill="hsl(266.0, 70%, 50%)" stroke="hsl(266.0, 70%, 50%)"/>
<path d="M 156,179 l -56,97 l 112,0 l -56,-97 Z" fill="hsl(268, 70%, 50%)" stroke="hsl(268, 70%, 50%)"/>
<path d="M 156,179 l 112,0 l -56,97 l -56,-97 Z" fill="hsl(270.0, 70%, 50%)" stroke="hsl(270.0, 70%, 50%)"/>
<path d="M 268,179 l -56,97 l 112,0 l -56,-97 Z" fill="hsl(272, 70%, 50%)" stroke="hsl(272, 70%, 50%)"/>
<path d="M 268,179 l 112,0 l -56,97 l -56,-97 Z" fill="hsl(274.0, 70%, 50%)" stroke="hsl(274.0, 70%, 50%)"/>
<path d="M 380,179 l -56,97 l 112,0 l -56,-97 Z" fill="hsl(276, 70%, 50%)" stroke="hsl(276, 70%, 50%)"/>
<path d="M 380,179 l 112,0 l -56,97 l -56,-97 Z" fill="hsl(278.0, 70%, 50%)" stroke="hsl(278.0, 70%, 50%)"/>
<path d="M 492,179 l -56,97 l 112,0 l -56,-97 Z" fill="hsl(280, 70%, 50%)" stroke="hsl(280, 70%, 50%)"/>
<path d="M 492,179 l 112,0 l -56,97 l -56,-97 Z" fill="hsl(282.0, 70%, 50%)" stroke="hsl(282.0, 70%, 50%)"/>
<path d="M 604,179 l -56,97 l 112,0 l -56,-97 Z" fill="hsl(284, 70%, 50%)" stroke="hsl(284, 70%, 50%)"/>
<path d="M 604,179 l 112,0 l -56,97 l -56,-97 Z" fill="hsl(286.0, 70%, 50%)" stroke="hsl(286.0, 70%, 50%)"/>
<path d="M 716,179 l -56,97 l 112,0 l -56,-97 Z" fill="hsl(288, 70%, 50%)" stroke="hsl(288, 70%, 50%)"/>
<path d="M 716,179 l 112,0 l -56,97 l -56,-97 Z" fill="hsl(290.0, 70%, 50%)" stroke="hsl(290.0, 70%, 50%)"/>
<path d="M 828,179 l -56,97 l 112,0 l -56,-97 Z" fill="hsl(292, 70%, 50%)" stroke="hsl(292, 70%, 50%)"/>
<path d="M 828,179 l 112,0 l -56,97 l -56,-97 Z" fill="hsl(294.0, 70%, 50%)" stroke="hsl(294.0, 70%, 50%)"/>
<path d="M 940,179 l -56,97 l 112,0 l -56,-97 Z" fill="hsl(296, 70%, 50%)" stroke="hsl(296, 70%, 50%)"/>
<path d="M 940,179 l 112,0 l -56,97 l -56,-97 Z" fill="hsl(298.0, 70%, 50%)" stroke="hsl(298.0, 70%, 50%)"/>
<path d="M 1052,179 l -56,97 l 112,0 l -56,-97 Z" fill="hsl(300, 70%, 50%)" stroke="hsl(300, 70%, 50%)"/>
<path d="M 1052,179 l 112,0 l -56,97 l -56,-97 Z" fill="hsl(302.0, 70%, 50%)" stroke="hsl(302.0, 70%, 50%)"/>
<path d="M -124,276 l -56,97 l 112,0 l -56,-97 Z" fill="hsl(260, 70%, 50%)" stroke="hsl(260, 70%, 50%)"/>
<path d="M -124,276 l 112,0 l -56,97 l -56,-97 Z" fill="hsl(262.0, 70%, 50%)" stroke="hsl(262.0, 70%, 50%)"/>
<path d="M -12,276 l -56,97 l 112,0 l -56,-97 Z" fill="hsl(264, 70%, 50%)" stroke="hsl(264, 70%, 50%)"/>
<path d="M -12,276 l 112,0 l -56,97 l -56,-97 Z" fill="hsl(266.0, 70%, 50%)" stroke="hsl(266.0, 70%, 50%)"/>
<path d="M 100,276 l -56,97 l 112,0 l -56,-97 Z" fill="hsl(268, 70%, 50%)" stroke="hsl(268, 70%, 50%)"/>
<path d="M 100,276 l 112,0 l -56,97 l -56,-97 Z" fill="hsl(270.0, 70%, 50%)" stroke="hsl(270.0, 70%, 50%)"/>
<path d="M 212,276 l -56,97 l 112,0 l -56,-97 Z" fill="hsl(272, 70%, 50%)" stroke="hsl(272, 70%, 50%)"/>
<path d="M 212,276 l 112,0 l -56,97 l -56,-97 Z" fill="hsl(274.0, 70%, 50%)" stroke="hsl(274.0, 70%, 50%)"/>
<path d="M 324,276 l -56,97 l 112,0 l -56,-97 Z" fill="hsl(276, 70%, 50%)" stroke="hsl(276, 70%, 50%)"/>
<path d="M 324,276 l 112,0 l -56,97 l -56,-97 Z" fill="hsl(278.0, 70%, 50%)" stroke="hsl(278.0, 70%, 50%)"/>
<path d="M 436,276 l -56,97 l 112,0 l -56,-97 Z" fill="hsl(280, 70%, 50%)" stroke="hsl(280, 70%, 50%)"/>
<path d="M 436,276 l 112,0 l -56,97 l -56,-97 Z" fill="hsl(282.0, 70%, 50%)" stroke="hsl(282.0, 70%, 50%)"/>
<path d="M 548,276 l -56,97 l 112,0 l -56,-97 Z" fill="hsl(284, 70%, 50%)" stroke="hsl(284, 70%, 50%)"/>
<path d="M 548,276 l 112,0 l -56,97 l -56,-97 Z" fill="hsl(286.0, 70%, 50%)" stroke="hsl(286.0, 70%, 50%)"/>
<path d="M 660,276 l -56,97 l 112,0 l -56,-97 Z" fill="hsl(288, 70%, 50%)" stroke="hsl(288, 70%, 50%)"/>
<path d="M 660,276 l 112,0 l -56,97 l -56,-97 Z" fill="hsl(290.0, 70%, 50%)" stroke="hsl(290.0, 70%, 50%)"/>
<path d="M 772,276 l -56,97 l 112,0 l -56,-97 Z" fill="hsl(292, 70%, 50%)" stroke="hsl(292, 70%, 50%)"/>
<path d="M 772,276 l 112,0 l -56,97 l -56,-97 Z" fill="hsl(294.0, 70%, 50%)" stroke="hsl(294.0, 70%, 50%)"/>
<path d="M 884,276 l -56,97 l 112,0 l -56,-97 Z" fill="hsl(296, 70%, 50%)" stroke="hsl(296, 70%, 50%)"/>
<path d="M 884,276 l 112,0 l -56,97 l -56,-97 Z" fill="hsl(298.0, 70%, 50%)" stroke="hsl(298.0, 70%, 50%)"/>
<path d="M 996,276 l -56,97 l 112,0 l -56,-97 Z" fill="hsl(300, 70%, 50%)" stroke="hsl(300, 70%, 50%)"/>
<path d="M 996,276 l 112,0 l -56,97 l -56,-97 Z" fill="hsl(302.0, 70%, 50%)" stroke="hsl(302.0, 70%, 50%)"/>
<path d="M -68,373 l -56,97 l 112,0 l -56,-97 Z" fill="hsl(260, 70%, 50%)" stroke="hsl(260, 70%, 50%)"/>
<path d="M -68,373 l 112,0 l -56,97 l -56,-97 Z" fill="hsl(262.0, 70%, 50%)" stroke="hsl(262.0, 70%, 50%)"/>
<path d="M 44,373 l -56,97 l 112,0 l -56,-97 Z" fill="hsl(264, 70%, 50%)" stroke="hsl(264, 70%, 50%)"/>
<path d="M 44,373 l 112,0 l -56,97 l -56,-97 Z" fill="hsl(266.0, 70%, 50%)" stroke="hsl(266.0, 70%, 50%)"/>
<path d="M 156,373 l -56,97 l 112,0 l -56,-97 Z" fill="hsl(268, 70%, 50%)" stroke="hsl(268, 70%, 50%)"/>
<path d="M 156,373 l 112,0 l -56,97 l -56,-97 Z" fill="hsl(270.0, 70%, 50%)" stroke="hsl(270.0, 70%, 50%)"/>
<path d="M 268,373 l -56,97 l 112,0 l -56,-97 Z" fill="hsl(272, 70%, 50%)" stroke="hsl(272, 70%, 50%)"/>
<path d="M 268,373 l 112,0 l -56,97 l -56,-97 Z" fill="hsl(274.0, 70%, 50%)" stroke="hsl(274.0, 70%, 50%)"/>
<path d="M 380,373 l -56,97 l 112,0 l -56,-97 Z" fill="hsl(276, 70%, 50%)" stroke="hsl(276, 70%, 50%)"/>
<path d="M 380,373 l 112,0 l -56,97 l -56,-97 Z" fill="hsl(278.0, 70%, 50%)" stroke="hsl(278.0, 70%, 50%)"/>
<path d="M 492,373 l -56,97 l 112,0 l -56,-97 Z" fill="hsl(280, 70%, 50%)" stroke="hsl(280, 70%, 50%)"/>
<path d="M 492,373 l 112,0 l -56,97 l -56,-97 Z" fill="hsl(282.0, 70%, 50%)" stroke="hsl(282.0, 70%, 50%)"/>
<path d="M 604,373 l -56,97 l 112,0 l -56,-97 Z" fill="hsl(284, 70%, 50%)" stroke="hsl(284, 70%, 50%)"/>
<path d="M 604,373 l 112,0 l -56,97 l -56,-97 Z" fill="hsl(286.0, 70%, 50%)" stroke="hsl(286.0, 70%, 50%)"/>
<path d="M 716,373 l -56,97 l 112,0 l -56,-97 Z" fill="hsl(288, 70%, 50%)" stroke="hsl(288, 70%, 50%)"/>
<path d="M 716,373 l 112,0 l -56,97 l -56,-97 Z" fill="hsl(290.0, 70%, 50%)" stroke="hsl(290.0, 70%, 50%)"/>
<path d="M 828,373 l -56,97 l 112,0 l -56,-97 Z" fill="hsl(292, 70%, 50%)" stroke="hsl(292, 70%, 50%)"/>
<path d="M 828,373 l 112,0 l -56,97 l -56,-97 Z" fill="hsl(294.0, 70%, 50%)" stroke="hsl(294.0, 70%, 50%)"/>
<path d="M 940,373 l -56,97 l 112,0 l -56,-97 Z" fill="hsl(296, 70%, 50%)" stroke="hsl(296, 70%, 50%)"/>
<path d="M 940,373 l 112,0 l -56,97 l -56,-97 Z" fill="hsl(298.0, 70%, 50%)" stroke="hsl(298.0, 70%, 50%)"/>
<path d="M 1052,373 l -56,97 l 112,0 l -56,-97 Z" fill="hsl(300, 70%, 50%)" stroke="hsl(300, 70%, 50%)"/>
<path d="M 1052,373 l 112,0 l -56,97 l -56,-97 Z" fill="hsl(302.0, 70%, 50%)" stroke="hsl(302.0, 70%, 50%)"/>
<path d="M -124,470 l -56,97 l 112,0 l -56,-97 Z" fill="hsl(260, 70%, 50%)" stroke="hsl(260, 70%, 50%)"/>
<path d="M -124,470 l 112,0 l -56,97 l -56,-97 Z" fill="hsl(262.0, 70%, 50%)" stroke="hsl(262.0, 70%, 50%)"/>
<path d="M -12,470 l -56,97 l 112,0 l -56,-97 Z" fill="hsl(264, 70%, 50%)" stroke="hsl(264, 70%, 50%)"/>
<path d="M -12,470 l 112,0 l -56,97 l -56,-97 Z" fill="hsl(266.0, 70%, 50%)" stroke="hsl(266.0, 70%, 50%)"/>
<path d="M 100,470 l -56,97 l 112,0 l -56,-97 Z" fill="hsl(268, 70%, 50%)" stroke="hsl(268, 70%, 50%)"/>
<path d="M 100,470 l 112,0 l -56,97 l -56,-97 Z" fill="hsl(270.0, 70%, 50%)" stroke="hsl(270.0, 70%, 50%)"/>
<path d="M 212,470 l -56,97 l 112,0 l -56,-97 Z" fill="hsl(272, 70%, 50%)" stroke="hsl(272, 70%, 50%)"/>
<path d="M 212,470 l 112,0 l -56,97 l -56,-97 Z" fill="hsl(274.0, 70%, 50%)" stroke="hsl(274.0, 70%, 50%)"/>
<path d="M 324,470 l -56,97 l 112,0 l -56,-97 Z" fill="hsl(276, 70%, 50%)" stroke="hsl(276, 70%, 50%)"/>
<path d="M 324,470 l 112,0 l -56,97 l -56,-97 Z" fill="hsl(278.0, 70%, 50%)" stroke="hsl(278.0, 70%, 50%)"/>
<path d="M 436,470 l -56,97 l 112,0 l -56,-97 Z" fill="hsl(280, 70%, 50%)" stroke="hsl(280, 70%, 50%)"/>
<path d="M 436,470 l 112,0 l -56,97 l -56,-97 Z" fill="hsl(282.0, 70%, 50%)" stroke="hsl(282.0, 70%, 50%)"/>
<path d="M 548,470 l -56,97 l 112,0 l -56,-97 Z" fill="hsl(284, 70%, 50%)" stroke="hsl(284, 70%, 50%)"/>
<path d="M 548,470 l 112,0 l -56,97 l -56,-97 Z" fill="hsl(286.0, 70%, 50%)" stroke="hsl(286.0, 70%, 50%)"/>
<path d="M 660,470 l -56,97 l 112,0 l -56,-97 Z" fill="hsl(288, 70%, 50%)" stroke="hsl(288, 70%, 50%)"/>
<path d="M 660,470 l 112,0 l -56,97 l -56,-97 Z" fill="hsl(290.0, 70%, 50%)" stroke="hsl(290.0, 70%, 50%)"/>
<path d="M 772,470 l -56,97 l 112,0 l -56,-97 Z" fill="hsl(292, 70%, 50%)" stroke="hsl(292, 70%, 50%)"/>
<path d="M 772,470 l 112,0 l -56,97 l -56,-97 Z" fill="hsl(294.0, 70%, 50%)" stroke="hsl(294.0, 70%, 50%)"/>
<path d="M 884,470 l -56,97 l 112,0 l -56,-97 Z" fill="hsl(296, 70%, 50%)" stroke="hsl(296, 70%, 50%)"/>
<path d="M 884,470 l 112,0 l -56,97 l -56,-97 Z" fill="hsl(298.0, 70%, 50%)" stroke="hsl(298.0, 70%, 50%)"/>
<path d="M 996,470 l -56,97 l 112,0 l -56,-97 Z" fill="hsl(300, 70%, 50%)" stroke="hsl(300, 70%, 50%)"/>
<path d="M 996,470 l 112,0 l -56,97 l -56,-97 Z" fill="hsl(302.0, 70%, 50%)" stroke="hsl(302.0, 70%, 50%)"/>
<path d="M -68,567 l -56,97 l 112,0 l -56,-97 Z" fill="hsl(260, 70%, 50%)" stroke="hsl(260, 70%, 50%)"/>
<path d="M -68,567 l 112,0 l -56,97 l -56,-97 Z" fill="hsl(262.0, 70%, 50%)" stroke="hsl(262.0, 70%, 50%)"/>
<path d="M 44,567 l -56,97 l 112,0 l -56,-97 Z" fill="hsl(264, 70%, 50%)" stroke="hsl(264, 70%, 50%)"/>
<path d="M 44,567 l 112,0 l -56,97 l -56,-97 Z" fill="hsl(266.0, 70%, 50%)" stroke="hsl(266.0, 70%, 50%)"/>
<path d="M 156,567 l -56,97 l 112,0 l -56,-97 Z" fill="hsl(268, 70%, 50%)" stroke="hsl(268, 70%, 50%)"/>
<path d="M 156,567 l 112,0 l -56,97 l -56,-97 Z" fill="hsl(270.0, 70%, 50%)" stroke="hsl(270.0, 70%, 50%)"/>
<path d="M 268,567 l -56,97 l 112,0 l -56,-97 Z" fill="hsl(272, 70%, 50%)" stroke="hsl(272, 70%, 50%)"/>
<path d="M 268,567 l 112,0 l -56,97 l -56,-97 Z" fill="hsl(274.0, 70%, 50%)" stroke="hsl(274.0, 70%, 50%)"/>
<path d="M 380,567 l -56,97 l 112,0 l -56,-97 Z" fill="hsl(276, 70%, 50%)" stroke="hsl(276, 70%, 50%)"/>
<path d="M 380,567 l 112,0 l -56,97 l -56,-97 Z" fill="hsl(278.0, 70%, 50%)" stroke="hsl(278.0, 70%, 50%)"/>
<path d="M 492,567 l -56,97 l 112,0 l -56,-97 Z" fill="hsl(280, 70%, 50%)" stroke="hsl(280, 70%, 50%)"/>
<path d="M 492,567 l 112,0 l -56,97 l -56,-97 Z" fill="hsl(282.0, 70%, 50%)" stroke="hsl(282.0, 70%, 50%)"/>
<path d="M 604,567 l -56,97 l 112,0 l -56,-97 Z" fill="hsl(284, 70%, 50%)" stroke="hsl(284, 70%, 50%)"/>
<path d="M 604,567 l 112,0 l -56,97 l -56,-97 Z" fill="hsl(286.0, 70%, 50%)" stroke="hsl(286.0, 70%, 50%)"/>
<path d="M 716,567 l -56,97 l 112,0 l -56,-97 Z" fill="hsl(288, 70%, 50%)" stroke="hsl(288, 70%, 50%)"/>
<path d="M 716,567 l 112,0 l -56,97 l -56,-97 Z" fill="hsl(290.0, 70%, 50%)" stroke="hsl(290.0, 70%, 50%)"/>
<path d="M 828,567 l -56,97 l 112,0 l -56,-97 Z" fill="hsl(292, 70%, 50%)" stroke="hsl(292, 70%, 50%)"/>
<path d="M 828,567 l 112,0 l -56,97 l -56,-97 Z" fill="hsl(294.0, 70%, 50%)" stroke="hsl(294.0, 70%, 50%)"/>
<path d="M 940,567 l -56,97 l 112,0 l -56,-97 Z" fill="hsl(296, 70%, 50%)" stroke="hsl(296, 70%, 50%)"/>
<path d="M 940,567 l 112,0 l -56,97 l -56,-97 Z" fill="hsl(298.0, 70%, 50%)" stroke="hsl(298.0, 70%, 50%)"/>
<path d="M 1052,567 l -56,97 l 112,0 l -56,-97 Z" fill="hsl(300, 70%, 50%)" stroke="hsl(300, 70%, 50%)"/>
<path d="M 1052,567 l 112,0 l -56,97 l -56,-97 Z" fill="hsl(302.0, 70%, 50%)" stroke="hsl(302.0, 70%, 50%)"/>
<path d="M -124,664 l -56,97 l 112,0 l -56,-97 Z" fill="hsl(260, 70%, 50%)" stroke="hsl(260, 70%, 50%)"/>
<path d="M -124,664 l 112,0 l -56,97 l -56,-97 Z" fill="hsl(262.0, 70%, 50%)" stroke="hsl(262.0, 70%, 50%)"/>
<path d="M -12,664 l -56,97 l 112,0 l -56,-97 Z" fill="hsl(264, 70%, 50%)" stroke="hsl(264, 70%, 50%)"/>
<path d="M -12,664 l 112,0 l -56,97 l -56,-97 Z" fill="hsl(266.0, 70%, 50%)" stroke="hsl(266.0, 70%, 50%)"/>
<path d="M 100,664 l -56,97 l 112,0 l -56,-97 Z" fill="hsl(268, 70%, 50%)" stroke="hsl(268, 70%, 50%)"/>
<path d="M 100,664 l 112,0 l -56,97 l -56,-97 Z" fill="hsl(270.0, 70%, 50%)" stroke="hsl(270.0, 70%, 50%)"/>
<path d="M 212,664 l -56,97 l 112,0 l -56,-97 Z" fill="hsl(272, 70%, 50%)" stroke="hsl(272, 70%, 50%)"/>
<path d="M 212,664 l 112,0 l -56,97 l -56,-97 Z" fill="hsl(274.0, 70%, 50%)" stroke="hsl(274.0, 70%, 50%)"/>
<path d="M 324,664 l -56,97 l 112,0 l -56,-97 Z" fill="hsl(276, 70%, 50%)" stroke="hsl(276, 70%, 50%)"/>
<path d="M 324,664 l 112,0 l -56,97 l -56,-97 Z" fill="hsl(278.0, 70%, 50%)" stroke="hsl(278.0, 70%, 50%)"/>
<path d="M 436,664 l -56,97 l 112,0 l -56,-97 Z" fill="hsl(280, 70%, 50%)" stroke="hsl(280, 70%, 50%)"/>
<path d="M 436,664 l 112,0 l -56,97 l -56,-97 Z" fill="hsl(282.0, 70%, 50%)" stroke="hsl(282.0, 70%, 50%)"/>
<path d="M 548,664 l -56,97 l 112,0 l -56,-97 Z" fill="hsl(284, 70%, 50%)" stroke="hsl(284, 70%, 50%)"/>
<path d="M 548,664 l 112,0 l -56,97 l -56,-97 Z" fill="hsl(286.0, 70%, 50%)" stroke="hsl(286.0, 70%, 50%)"/>
<path d="M 660,664 l -56,97 l 112,0 l -56,-97 Z" fill="hsl(288, 70%, 50%)" stroke="hsl(288, 70%, 50%)"/>
<path d="M 660,664 l 112,0 l -56,97 l -56,-97 Z" fill="hsl(290.0, 70%, 50%)" stroke="hsl(290.0, 70%, 50%)"/>
<path d="M 772,664 l -56,97 l 112,0 l -56,-97 Z" fill="hsl(292, 70%, 50%)" stroke="hsl(292, 70%, 50%)"/>
<path d="M 772,664 l 112,0 l -56,97 l -56,-97 Z" fill="hsl(294.0, 70%, 50%)" stroke="hsl(294.0, 70%, 50%)"/>
<path d="M 884,664 l -56,97 l 112,0 l -56,-97 Z" fill="hsl(296, 70%, 50%)" stroke="hsl(296, 70%, 50%)"/>
<path d="M 884,664 l 112,0 l -56,97 l -56,-97 Z" fill="hsl(298.0, 70%, 50%)" stroke="hsl(298.0, 70%, 50%)"/>
<path d="M 996,664 l -56,97 l 112,0 l -56,-97 Z" fill="hsl(300, 70%, 50%)" stroke="hsl(300, 70%, 50%)"/>
<path d="M 996,664 l 112,0 l -56,97 l -56,-97 Z" fill="hsl(302.0, 70%, 50%)" stroke="hsl(302.0, 70%, 50%)"/>
<path d="M -68,761 l -56,97 l 112,0 l -56,-97 Z" fill="hsl(260, 70%, 50%)" stroke="hsl(260, 70%, 50%)"/>
<path d="M -68,761 l 112,0 l -56,97 l -56,-97 Z" fill="hsl(262.0, 70%, 50%)" stroke="hsl(262.0, 70%, 50%)"/>
<path d="M 44,761 l -56,97 l 112,0 l -56,-97 Z" fill="hsl(264, 70%, 50%)" stroke="hsl(264, 70%, 50%)"/>
<path d="M 44,761 l 112,0 l -56,97 l -56,-97 Z" fill="hsl(266.0, 70%, 50%)" stroke="hsl(266.0, 70%, 50%)"/>
<path d="M 156,761 l -56,97 l 112,0 l -56,-97 Z" fill="hsl(268, 70%, 50%)" stroke="hsl(268, 70%, 50%)"/>
<path d="M 156,761 l 112,0 l -56,97 l -56,-97 Z" fill="hsl(270.0, 70%, 50%)" stroke="hsl(270.0, 70%, 50%)"/>
<path d="M 268,761 l -56,97 l 112,0 l -56,-97 Z" fill="hsl(272, 70%, 50%)" stroke="hsl(272, 70%, 50%)"/>
<path d="M 268,761 l 112,0 l -56,97 l -56,-97 Z" fill="hsl(274.0, 70%, 50%)" stroke="hsl(274.0, 70%, 50%)"/>
<path d="M 380,761 l -56,97 l 112,0 l -56,-97 Z" fill="hsl(276, 70%, 50%)" stroke="hsl(276, 70%, 50%)"/>
<path d="M 380,761 l 112,0 l -56,97 l -56,-97 Z" fill="hsl(278.0, 70%, 50%)" stroke="hsl(278.0, 70%, 50%)"/>
<path d="M 492,761 l -56,97 l 112,0 l -56,-97 Z" fill="hsl(280, 70%, 50%)" stroke="hsl(280, 70%, 50%)"/>
<path d="M 492,761 l 112,0 l -56,97 l -56,-97 Z" fill="hsl(282.0, 70%, 50%)" stroke="hsl(282.0, 70%, 50%)"/>
<path d="M 604,761 l -56,97 l 112,0 l -56,-97 Z" fill="hsl(284, 70%, 50%)" stroke="hsl(284, 70%, 50%)"/>
<path d="M 604,761 l 112,0 l -56,97 l -56,-97 Z" fill="hsl(286.0, 70%, 50%)" stroke="hsl(286.0, 70%, 50%)"/>
<path d="M 716,761 l -56,97 l 112,0 l -56,-97 Z" fill="hsl(288, 70%, 50%)" stroke="hsl(288, 70%, 50%)"/>
<path d="M 716,761 l 112,0 l -56,97 l -56,-97 Z" fill="hsl(290.0, 70%, 50%)" stroke="hsl(290.0, 70%, 50%)"/>
<path d="M 828,761 l -56,97 l 112,0 l -56,-97 Z" fill="hsl(292, 70%, 50%)" stroke="hsl(292, 70%, 50%)"/>
<path d="M 828,761 l 112,0 l -56,97 l -56,-97 Z" fill="hsl(294.0, 70%, 50%)" stroke="hsl(294.0, 70%, 50%)"/>
<path d="M 940,761 l -56,97 l 112,0 l -56,-97 Z" fill="hsl(296, 70%, 50%)" stroke="hsl(296, 70%, 50%)"/>
<path d="M 940,761 l 112,0 l -56,97 l -56,-97 Z" fill="hsl(298.0, 70%, 50%)" stroke="hsl(298.0, 70%, 50%)"/>
<path d="M 1052,761 l -56,97 l 112,0 l -56,-97 Z" fill="hsl(300, 70%, 50%)" stroke="hsl(300, 70%, 50%)"/>
<path d="M 1052,761 l 112,0 l -56,97 l -56,-97 Z" fill="hsl(302.0, 70%, 50%)" stroke="hsl(302.0, 70%, 50%)"/>
<path d="M -124,858 l -56,97 l 112,0 l -56,-97 Z" fill="hsl(260, 70%, 50%)" stroke="hsl(260, 70%, 50%)"/>
<path d="M -124,858 l 112,0 l -56,97 l -56,-97 Z" fill="hsl(262.0, 70%, 50%)" stroke="hsl(262.0, 70%, 50%)"/>
<path d="M -12,858 l -56,97 l 112,0 l -56,-97 Z" fill="hsl(264, 70%, 50%)" stroke="hsl(264, 70%, 50%)"/>
<path d="M -12,858 l 112,0 l -56,97 l -56,-97 Z" fill="hsl(266.0, 70%, 50%)" stroke="hsl(266.0, 70%, 50%)"/>
<path d="M 100,858 l -56,97 l 112,0 l -56,-97 Z" fill="hsl(268, 70%, 50%)" stroke="hsl(268, 70%, 50%)"/>
<path d="M 100,858 l 112,0 l -56,97 l -56,-97 Z" fill="hsl(270.0, 70%, 50%)" stroke="hsl(270.0, 70%, 50%)"/>
<path d="M 212,858 l -56,97 l 112,0 l -56,-97 Z" fill="hsl(272, 70%, 50%)" stroke="hsl(272, 70%, 50%)"/>
<path d="M 212,858 l 112,0 l -56,97 l -56,-97 Z" fill="hsl(274.0, 70%, 50%)" stroke="hsl(274.0, 70%, 50%)"/>
<path d="M 324,858 l -56,97 l 112,0 l -56,-97 Z" fill="hsl(276, 70%, 50%)" stroke="hsl(276, 70%, 50%)"/>
<path d="M 324,858 l 112,0 l -56,97 l -56,-97 Z" fill="hsl(278.0, 70%, 50%)" stroke="hsl(278.0, 70%, 50%)"/>
<path d="M 436,858 l -56,97 l 112,0 l -56,-97 Z" fill="hsl(280, 70%, 50%)" stroke="hsl(280, 70%, 50%)"/>
<path d="M 436,858 l 112,0 l -56,97 l -56,-97 Z" fill="hsl(282.0, 70%, 50%)" stroke="hsl(282.0, 70%, 50%)"/>
<path d="M 548,858 l -56,97 l 112,0 l -56,-97 Z" fill="hsl(284, 70%, 50%)" stroke="hsl(284, 70%, 50%)"/>
<path d="M 548,858 l 112,0 l -56,97 l -56,-97 Z" fill="hsl(286.0, 70%, 50%)" stroke="hsl(286.0, 70%, 50%)"/>
<path d="M 660,858 l -56,97 l 112,0 l -56,-97 Z" fill="hsl(288, 70%, 50%)" stroke="hsl(288, 70%, 50%)"/>
<path d="M 660,858 l 112,0 l -56,97 l -56,-97 Z" fill="hsl(290.0, 70%, 50%)" stroke="hsl(290.0, 70%, 50%)"/>
<path d="M 772,858 l -56,97 l 112,0 l -56,-97 Z" fill="hsl(292, 70%, 50%)" stroke="hsl(292, 70%, 50%)"/>
<path d="M 772,858 l 112,0 l -56,97 l -56,-97 Z" fill="hsl(294.0, 70%, 50%)" stroke="hsl(294.0, 70%, 50%)"/>
<path d="M 884,858 l -56,97 l 112,0 l -56,-97 Z" fill="hsl(296, 70%, 50%)" stroke="hsl(296, 70%, 50%)"/>
<path d="M 884,858 l 112,0 l -56,97 l -56,-97 Z" fill="hsl(298.0, 70%, 50%)" stroke="hsl(298.0, 70%, 50%)"/>
<path d="M 996,858 l -56,97 l 112,0 l -56,-97 Z" fill="hsl(300, 70%, 50%)" stroke="hsl(300, 70%, 50%)"/>
<path d="M 996,858 l 112,0 l -56,97 l -56,-97 Z" fill="hsl(302.0, 70%, 50%)" stroke="hsl(302.0, 70%, 50%)"/>
<path d="M -68,955 l -56,97 l 112,0 l -56,-97 Z" fill="hsl(260, 70%, 50%)" stroke="hsl(260, 70%, 50%)"/>
<path d="M -68,955 l 112,0 l -56,97 l -56,-97 Z" fill="hsl(262.0, 70%, 50%)" stroke="hsl(262.0, 70%, 50%)"/>
<path d="M 44,955 l -56,97 l 112,0 l -56,-97 Z" fill="hsl(264, 70%, 50%)" stroke="hsl(264, 70%, 50%)"/>
<path d="M 44,955 l 112,0 l -56,97 l -56,-97 Z" fill="hsl(266.0, 70%, 50%)" stroke="hsl(266.0, 70%, 50%)"/>
<path d="M 156,955 l -56,97 l 112,0 l -56,-97 Z" fill="hsl(268, 70%, 50%)" stroke="hsl(268, 70%, 50%)"/>
<path d="M 156,955 l 112,0 l -56,97 l -56,-97 Z" fill="hsl(270.0, 70%, 50%)" stroke="hsl(270.0, 70%, 50%)"/>
<path d="M 268,955 l -56,97 l 112,0 l -56,-97 Z" fill="hsl(272, 70%, 50%)" stroke="hsl(272, 70%, 50%)"/>
<path d="M 268,955 l 112,0 l -56,97 l -56,-97 Z" fill="hsl(274.0, 70%, 50%)" stroke="hsl(274.0, 70%, 50%)"/>
<path d="M 380,955 l -56,97 l 112,0 l -56,-97 Z" fill="hsl(276, 70%, 50%)" stroke="hsl(276, 70%, 50%)"/>
<path d="M 380,955 l 112,0 l -56,97 l -56,-97 Z" fill="hsl(278.0, 70%, 50%)" stroke="hsl(278.0, 70%, 50%)"/>
<path d="M 492,955 l -56,97 l 112,0 l -56,-97 Z" fill="hsl(280, 70%, 50%)" stroke="hsl(280, 70%, 50%)"/>
<path d="M 492,955 l 112,0 l -56,97 l -56,-97 Z" fill="hsl(282.0, 70%, 50%)" stroke="hsl(282.0, 70%, 50%)"/>
<path d="M 604,955 l -56,97 l 112,0 l -56,-97 Z" fill="hsl(284, 70%, 50%)" stroke="hsl(284, 70%, 50%)"/>
<path d="M 604,955 l 112,0 l -56,97 l -56,-97 Z" fill="hsl(286.0, 70%, 50%)" stroke="hsl(286.0, 70%, 50%)"/>
<path d="M 716,955 l -56,97 l 112,0 l -56,-97 Z" fill="hsl(288, 70%, 50%)" stroke="hsl(288, 70%, 50%)"/>
<path d="M 716,955 l 112,0 l -56,97 l -56,-97 Z" fill="hsl(290.0, 70%, 50%)" stroke="hsl(290.0, 70%, 50%)"/>
<path d="M 828,955 l -56,97 l 112,0 l -56,-97 Z" fill="hsl(292, 70%, 50%)" stroke="hsl(292, 70%, 50%)"/>
<path d="M 828,955 l 112,0 l -56,97 l -56,-97 Z" fill="hsl(294.0, 70%, 50%)" stroke="hsl(294.0, 70%, 50%)"/>
<path d="M 940,955 l -56,97 l 112,0 l -56,-97 Z" fill="hsl(296, 70%, 50%)" stroke="hsl(296, 70%, 50%)"/>
<path d="M 940,955 l 112,0 l -56,97 l -56,-97 Z" fill="hsl(298.0, 70%, 50%)" stroke="hsl(298.0, 70%, 50%)"/>
<path d="M 1052,955 l -56,97 l 112,0 l -56,-97 Z" fill="hsl(300, 70%, 50%)" stroke="hsl(300, 70%, 50%)"/>
<path d="M 1052,955 l 112,0 l -56,97 l -56,-97 Z" fill="hsl(302.0, 70%, 50%)" stroke="hsl(302.0, 70%, 50%)"/>

</svg>