<?xml version="1.0" standalone="no"?>
<!DOCTYPE svg PUBLIC "-//W3C//DTD SVG 1.1//EN" "http://www.w3.org/Graphics/SVG/1.1/DTD/svg11.dtd">

<svg width="800" height="1000" style="background:#fff" 
  xmlns="http://www.w3.org/2000/svg"
  xmlns:xlink="http://www.w3.org/1999/xlink">

<style type="text/css">
<![CDATA[

]]>
</style>

<g transform="rotate(30 0 0)">
<path d="M 47,-671 l -56,97 l 112,0 l -56,-97 Z" fill="rgb(228, 4, 141)" stroke="rgb(228, 4, 141)" stroke-width="50" stroke-linejoin="round"/>
<path d="M 132,-671 l 112,0 l -56,97 l -56,-97 Z" fill="rgb(26, 29, 188)" stroke="rgb(26, 29, 188)" stroke-width="50" stroke-linejoin="round"/>
<path d="M 329,-671 l -56,97 l 112,0 l -56,-97 Z" fill="rgb(39, 197, 50)" stroke="rgb(39, 197, 50)" stroke-width="50" stroke-linejoin="round"/>
<path d="M 414,-671 l 112,0 l -56,97 l -56,-97 Z" fill="rgb(34, 39, 110)" stroke="rgb(34, 39, 110)" stroke-width="50" stroke-linejoin="round"/>
<path d="M 611,-671 l -56,97 l 112,0 l -56,-97 Z" fill="rgb(80, 104, 253)" stroke="rgb(80, 104, 253)" stroke-width="50" stroke-linejoin="round"/>
<path d="M 696,-671 l 112,0 l -56,97 l -56,-97 Z" fill="rgb(167, 29, 215)" stroke="rgb(167, 29, 215)" stroke-width="50" stroke-linejoin="round"/>
<path d="M 893,-671 l -56,97 l 112,0 l -56,-97 Z" fill="rgb(141, 10, 98)" stroke="rgb(141, 10, 98)" stroke-width="50" stroke-linejoin="round"/>
<path d="M 978,-671 l 112,0 l -56,97 l -56,-97 Z" fill="rgb(112, 186, 245)" stroke="rgb(112, 186, 245)" stroke-width="50" stroke-linejoin="round"/>
<path d="M 1175,-671 l -56,97 l 112,0 l -56,-97 Z" fill="rgb(81, 209, 129)" stroke="rgb(81, 209, 129)" stroke-width="50" stroke-linejoin="round"/>
<path d="M 1260,-671 l 112,0 l -56,97 l -56,-97 Z" fill="rgb(88, 225, 180)" stroke="rgb(88, 225, 180)" stroke-width="50" stroke-linejoin="round"/>
<path d="M 1457,-671 l -56,97 l 112,0 l -56,-97 Z" fill="rgb(235, 221, 38)" stroke="rgb(235, 221, 38)" stroke-width="50" stroke-linejoin="round"/>
<path d="M 1542,-671 l 112,0 l -56,97 l -56,-97 Z" fill="rgb(40, 115, 168)" stroke="rgb(40, 115, 168)" stroke-width="50" stroke-linejoin="round"/>
<path d="M 1739,-671 l -56,97 l 112,0 l -56,-97 Z" fill="rgb(224, 100, 218)" stroke="rgb(224, 100, 218)" stroke-width="50" stroke-linejoin="round"/>
<path d="M 1824,-671 l 112,0 l -56,97 l -56,-97 Z" fill="rgb(183, 141, 53)" stroke="rgb(183, 141, 53)" stroke-width="50" stroke-linejoin="round"/>
<path d="M 2021,-671 l -56,97 l 112,0 l -56,-97 Z" fill="rgb(151, 213, 226)" stroke="rgb(151, 213, 226)" stroke-width="50" stroke-linejoin="round"/>
<path d="M 2106,-671 l 112,0 l -56,97 l -56,-97 Z" fill="rgb(187, 227, 36)" stroke="rgb(187, 227, 36)" stroke-width="50" stroke-linejoin="round"/>
<path d="M 2303,-671 l -56,97 l 112,0 l -56,-97 Z" fill="rgb(222, 178, 27)" stroke="rgb(222, 178, 27)" stroke-width="50" stroke-linejoin="round"/>
<path d="M 2388,-671 l 112,0 l -56,97 l -56,-97 Z" fill="rgb(142, 248, 171)" stroke="rgb(142, 248, 171)" stroke-width="50" stroke-linejoin="round"/>
<path d="M 2585,-671 l -56,97 l 112,0 l -56,-97 Z" fill="rgb(71, 226, 43)" stroke="rgb(71, 226, 43)" stroke-width="50" stroke-linejoin="round"/>
<path d="M 2670,-671 l 112,0 l -56,97 l -56,-97 Z" fill="rgb(215, 114, 127)" stroke="rgb(215, 114, 127)" stroke-width="50" stroke-linejoin="round"/>
<path d="M -73,-392 l -56,97 l 112,0 l -56,-97 Z" fill="rgb(17, 245, 96)" stroke="rgb(17, 245, 96)" stroke-width="50" stroke-linejoin="round"/>
<path d="M 12,-392 l 112,0 l -56,97 l -56,-97 Z" fill="rgb(15, 36, 208)" stroke="rgb(15, 36, 208)" stroke-width="50" stroke-linejoin="round"/>
<path d="M 209,-392 l -56,97 l 112,0 l -56,-97 Z" fill="rgb(175, 172, 37)" stroke="rgb(175, 172, 37)" stroke-width="50" stroke-linejoin="round"/>
<path d="M 294,-392 l 112,0 l -56,97 l -56,-97 Z" fill="rgb(74, 89, 247)" stroke="rgb(74, 89, 247)" stroke-width="50" stroke-linejoin="round"/>
<path d="M 491,-392 l -56,97 l 112,0 l -56,-97 Z" fill="rgb(123, 41, 191)" stroke="rgb(123, 41, 191)" stroke-width="50" stroke-linejoin="round"/>
<path d="M 576,-392 l 112,0 l -56,97 l -56,-97 Z" fill="rgb(184, 86, 75)" stroke="rgb(184, 86, 75)" stroke-width="50" stroke-linejoin="round"/>
<path d="M 773,-392 l -56,97 l 112,0 l -56,-97 Z" fill="rgb(250, 15, 159)" stroke="rgb(250, 15, 159)" stroke-width="50" stroke-linejoin="round"/>
<path d="M 858,-392 l 112,0 l -56,97 l -56,-97 Z" fill="rgb(103, 22, 102)" stroke="rgb(103, 22, 102)" stroke-width="50" stroke-linejoin="round"/>
<path d="M 1055,-392 l -56,97 l 112,0 l -56,-97 Z" fill="rgb(36, 21, 89)" stroke="rgb(36, 21, 89)" stroke-width="50" stroke-linejoin="round"/>
<path d="M 1140,-392 l 112,0 l -56,97 l -56,-97 Z" fill="rgb(85, 17, 176)" stroke="rgb(85, 17, 176)" stroke-width="50" stroke-linejoin="round"/>
<path d="M 1337,-392 l -56,97 l 112,0 l -56,-97 Z" fill="rgb(144, 8, 27)" stroke="rgb(144, 8, 27)" stroke-width="50" stroke-linejoin="round"/>
<path d="M 1422,-392 l 112,0 l -56,97 l -56,-97 Z" fill="rgb(229, 62, 220)" stroke="rgb(229, 62, 220)" stroke-width="50" stroke-linejoin="round"/>
<path d="M 1619,-392 l -56,97 l 112,0 l -56,-97 Z" fill="rgb(87, 168, 154)" stroke="rgb(87, 168, 154)" stroke-width="50" stroke-linejoin="round"/>
<path d="M 1704,-392 l 112,0 l -56,97 l -56,-97 Z" fill="rgb(198, 25, 134)" stroke="rgb(198, 25, 134)" stroke-width="50" stroke-linejoin="round"/>
<path d="M 1901,-392 l -56,97 l 112,0 l -56,-97 Z" fill="rgb(85, 95, 84)" stroke="rgb(85, 95, 84)" stroke-width="50" stroke-linejoin="round"/>
<path d="M 1986,-392 l 112,0 l -56,97 l -56,-97 Z" fill="rgb(252, 186, 29)" stroke="rgb(252, 186, 29)" stroke-width="50" stroke-linejoin="round"/>
<path d="M 2183,-392 l -56,97 l 112,0 l -56,-97 Z" fill="rgb(43, 205, 176)" stroke="rgb(43, 205, 176)" stroke-width="50" stroke-linejoin="round"/>
<path d="M 2268,-392 l 112,0 l -56,97 l -56,-97 Z" fill="rgb(33, 191, 253)" stroke="rgb(33, 191, 253)" stroke-width="50" stroke-linejoin="round"/>
<path d="M 2465,-392 l -56,97 l 112,0 l -56,-97 Z" fill="rgb(173, 194, 38)" stroke="rgb(173, 194, 38)" stroke-width="50" stroke-linejoin="round"/>
<path d="M 2550,-392 l 112,0 l -56,97 l -56,-97 Z" fill="rgb(37, 133, 75)" stroke="rgb(37, 133, 75)" stroke-width="50" stroke-linejoin="round"/>
<path d="M -193,-113 l -56,97 l 112,0 l -56,-97 Z" fill="rgb(154, 22, 179)" stroke="rgb(154, 22, 179)" stroke-width="50" stroke-linejoin="round"/>
<path d="M -108,-113 l 112,0 l -56,97 l -56,-97 Z" fill="rgb(103, 65, 77)" stroke="rgb(103, 65, 77)" stroke-width="50" stroke-linejoin="round"/>
<path d="M 89,-113 l -56,97 l 112,0 l -56,-97 Z" fill="rgb(201, 39, 34)" stroke="rgb(201, 39, 34)" stroke-width="50" stroke-linejoin="round"/>
<path d="M 174,-113 l 112,0 l -56,97 l -56,-97 Z" fill="rgb(164, 12, 132)" stroke="rgb(164, 12, 132)" stroke-width="50" stroke-linejoin="round"/>
<path d="M 371,-113 l -56,97 l 112,0 l -56,-97 Z" fill="rgb(135, 235, 154)" stroke="rgb(135, 235, 154)" stroke-width="50" stroke-linejoin="round"/>
<path d="M 456,-113 l 112,0 l -56,97 l -56,-97 Z" fill="rgb(216, 11, 240)" stroke="rgb(216, 11, 240)" stroke-width="50" stroke-linejoin="round"/>
<path d="M 653,-113 l -56,97 l 112,0 l -56,-97 Z" fill="rgb(166, 143, 132)" stroke="rgb(166, 143, 132)" stroke-width="50" stroke-linejoin="round"/>
<path d="M 738,-113 l 112,0 l -56,97 l -56,-97 Z" fill="rgb(221, 136, 102)" stroke="rgb(221, 136, 102)" stroke-width="50" stroke-linejoin="round"/>
<path d="M 935,-113 l -56,97 l 112,0 l -56,-97 Z" fill="rgb(183, 105, 152)" stroke="rgb(183, 105, 152)" stroke-width="50" stroke-linejoin="round"/>
<path d="M 1020,-113 l 112,0 l -56,97 l -56,-97 Z" fill="rgb(87, 37, 161)" stroke="rgb(87, 37, 161)" stroke-width="50" stroke-linejoin="round"/>
<path d="M 1217,-113 l -56,97 l 112,0 l -56,-97 Z" fill="rgb(139, 58, 138)" stroke="rgb(139, 58, 138)" stroke-width="50" stroke-linejoin="round"/>
<path d="M 1302,-113 l 112,0 l -56,97 l -56,-97 Z" fill="rgb(124, 215, 128)" stroke="rgb(124, 215, 128)" stroke-width="50" stroke-linejoin="round"/>
<path d="M 1499,-113 l -56,97 l 112,0 l -56,-97 Z" fill="rgb(204, 94, 53)" stroke="rgb(204, 94, 53)" stroke-width="50" stroke-linejoin="round"/>
<path d="M 1584,-113 l 112,0 l -56,97 l -56,-97 Z" fill="rgb(206, 62, 222)" stroke="rgb(206, 62, 222)" stroke-width="50" stroke-linejoin="round"/>
<path d="M 1781,-113 l -56,97 l 112,0 l -56,-97 Z" fill="rgb(233, 192, 175)" stroke="rgb(233, 192, 175)" stroke-width="50" stroke-linejoin="round"/>
<path d="M 1866,-113 l 112,0 l -56,97 l -56,-97 Z" fill="rgb(102, 72, 9)" stroke="rgb(102, 72, 9)" stroke-width="50" stroke-linejoin="round"/>
<path d="M 2063,-113 l -56,97 l 112,0 l -56,-97 Z" fill="rgb(160, 117, 116)" stroke="rgb(160, 117, 116)" stroke-width="50" stroke-linejoin="round"/>
<path d="M 2148,-113 l 112,0 l -56,97 l -56,-97 Z" fill="rgb(235, 94, 92)" stroke="rgb(235, 94, 92)" stroke-width="50" stroke-linejoin="round"/>
<path d="M 2345,-113 l -56,97 l 112,0 l -56,-97 Z" fill="rgb(157, 106, 0)" stroke="rgb(157, 106, 0)" stroke-width="50" stroke-linejoin="round"/>
<path d="M 2430,-113 l 112,0 l -56,97 l -56,-97 Z" fill="rgb(108, 106, 219)" stroke="rgb(108, 106, 219)" stroke-width="50" stroke-linejoin="round"/>
<path d="M -313,166 l -56,97 l 112,0 l -56,-97 Z" fill="rgb(119, 237, 117)" stroke="rgb(119, 237, 117)" stroke-width="50" stroke-linejoin="round"/>
<path d="M -228,166 l 112,0 l -56,97 l -56,-97 Z" fill="rgb(2, 42, 222)" stroke="rgb(2, 42, 222)" stroke-width="50" stroke-linejoin="round"/>
<path d="M -31,166 l -56,97 l 112,0 l -56,-97 Z" fill="rgb(45, 166, 105)" stroke="rgb(45, 166, 105)" stroke-width="50" stroke-linejoin="round"/>
<path d="M 54,166 l 112,0 l -56,97 l -56,-97 Z" fill="rgb(96, 30, 107)" stroke="rgb(96, 30, 107)" stroke-width="50" stroke-linejoin="round"/>
<path d="M 251,166 l -56,97 l 112,0 l -56,-97 Z" fill="rgb(89, 22, 216)" stroke="rgb(89, 22, 216)" stroke-width="50" stroke-linejoin="round"/>
<path d="M 336,166 l 112,0 l -56,97 l -56,-97 Z" fill="rgb(235, 170, 63)" stroke="rgb(235, 170, 63)" stroke-width="50" stroke-linejoin="round"/>
<path d="M 533,166 l -56,97 l 112,0 l -56,-97 Z" fill="rgb(140, 1, 127)" stroke="rgb(140, 1, 127)" stroke-width="50" stroke-linejoin="round"/>
<path d="M 618,166 l 112,0 l -56,97 l -56,-97 Z" fill="rgb(36, 60, 31)" stroke="rgb(36, 60, 31)" stroke-width="50" stroke-linejoin="round"/>
<path d="M 815,166 l -56,97 l 112,0 l -56,-97 Z" fill="rgb(219, 69, 225)" stroke="rgb(219, 69, 225)" stroke-width="50" stroke-linejoin="round"/>
<path d="M 900,166 l 112,0 l -56,97 l -56,-97 Z" fill="rgb(241, 142, 93)" stroke="rgb(241, 142, 93)" stroke-width="50" stroke-linejoin="round"/>
<path d="M 1097,166 l -56,97 l 112,0 l -56,-97 Z" fill="rgb(212, 20, 150)" stroke="rgb(212, 20, 150)" stroke-width="50" stroke-linejoin="round"/>
<path d="M 1182,166 l 112,0 l -56,97 l -56,-97 Z" fill="rgb(94, 121, 176)" stroke="rgb(94, 121, 176)" stroke-width="50" stroke-linejoin="round"/>
<path d="M 1379,166 l -56,97 l 112,0 l -56,-97 Z" fill="rgb(65, 173, 217)" stroke="rgb(65, 173, 217)" stroke-width="50" stroke-linejoin="round"/>
<path d="M 1464,166 l 112,0 l -56,97 l -56,-97 Z" fill="rgb(147, 191, 77)" stroke="rgb(147, 191, 77)" stroke-width="50" stroke-linejoin="round"/>
<path d="M 1661,166 l -56,97 l 112,0 l -56,-97 Z" fill="rgb(53, 13, 216)" stroke="rgb(53, 13, 216)" stroke-width="50" stroke-linejoin="round"/>
<path d="M 1746,166 l 112,0 l -56,97 l -56,-97 Z" fill="rgb(66, 169, 15)" stroke="rgb(66, 169, 15)" stroke-width="50" stroke-linejoin="round"/>
<path d="M 1943,166 l -56,97 l 112,0 l -56,-97 Z" fill="rgb(228, 72, 8)" stroke="rgb(228, 72, 8)" stroke-width="50" stroke-linejoin="round"/>
<path d="M 2028,166 l 112,0 l -56,97 l -56,-97 Z" fill="rgb(27, 30, 43)" stroke="rgb(27, 30, 43)" stroke-width="50" stroke-linejoin="round"/>
<path d="M 2225,166 l -56,97 l 112,0 l -56,-97 Z" fill="rgb(139, 108, 216)" stroke="rgb(139, 108, 216)" stroke-width="50" stroke-linejoin="round"/>
<path d="M 2310,166 l 112,0 l -56,97 l -56,-97 Z" fill="rgb(160, 217, 176)" stroke="rgb(160, 217, 176)" stroke-width="50" stroke-linejoin="round"/>
<path d="M -433,445 l -56,97 l 112,0 l -56,-97 Z" fill="rgb(45, 58, 92)" stroke="rgb(45, 58, 92)" stroke-width="50" stroke-linejoin="round"/>
<path d="M -348,445 l 112,0 l -56,97 l -56,-97 Z" fill="rgb(0, 221, 101)" stroke="rgb(0, 221, 101)" stroke-width="50" stroke-linejoin="round"/>
<path d="M -151,445 l -56,97 l 112,0 l -56,-97 Z" fill="rgb(108, 208, 170)" stroke="rgb(108, 208, 170)" stroke-width="50" stroke-linejoin="round"/>
<path d="M -66,445 l 112,0 l -56,97 l -56,-97 Z" fill="rgb(173, 154, 110)" stroke="rgb(173, 154, 110)" stroke-width="50" stroke-linejoin="round"/>
<path d="M 131,445 l -56,97 l 112,0 l -56,-97 Z" fill="rgb(20, 46, 86)" stroke="rgb(20, 46, 86)" stroke-width="50" stroke-linejoin="round"/>
<path d="M 216,445 l 112,0 l -56,97 l -56,-97 Z" fill="rgb(147, 159, 210)" stroke="rgb(147, 159, 210)" stroke-width="50" stroke-linejoin="round"/>
<path d="M 413,445 l -56,97 l 112,0 l -56,-97 Z" fill="rgb(210, 85, 86)" stroke="rgb(210, 85, 86)" stroke-width="50" stroke-linejoin="round"/>
<path d="M 498,445 l 112,0 l -56,97 l -56,-97 Z" fill="rgb(235, 21, 247)" stroke="rgb(235, 21, 247)" stroke-width="50" stroke-linejoin="round"/>
<path d="M 695,445 l -56,97 l 112,0 l -56,-97 Z" fill="rgb(163, 25, 187)" stroke="rgb(163, 25, 187)" stroke-width="50" stroke-linejoin="round"/>
<path d="M 780,445 l 112,0 l -56,97 l -56,-97 Z" fill="rgb(234, 108, 107)" stroke="rgb(234, 108, 107)" stroke-width="50" stroke-linejoin="round"/>
<path d="M 977,445 l -56,97 l 112,0 l -56,-97 Z" fill="rgb(239, 198, 73)" stroke="rgb(239, 198, 73)" stroke-width="50" stroke-linejoin="round"/>
<path d="M 1062,445 l 112,0 l -56,97 l -56,-97 Z" fill="rgb(97, 155, 45)" stroke="rgb(97, 155, 45)" stroke-width="50" stroke-linejoin="round"/>
<path d="M 1259,445 l -56,97 l 112,0 l -56,-97 Z" fill="rgb(210, 194, 225)" stroke="rgb(210, 194, 225)" stroke-width="50" stroke-linejoin="round"/>
<path d="M 1344,445 l 112,0 l -56,97 l -56,-97 Z" fill="rgb(48, 177, 34)" stroke="rgb(48, 177, 34)" stroke-width="50" stroke-linejoin="round"/>
<path d="M 1541,445 l -56,97 l 112,0 l -56,-97 Z" fill="rgb(76, 48, 123)" stroke="rgb(76, 48, 123)" stroke-width="50" stroke-linejoin="round"/>
<path d="M 1626,445 l 112,0 l -56,97 l -56,-97 Z" fill="rgb(191, 185, 31)" stroke="rgb(191, 185, 31)" stroke-width="50" stroke-linejoin="round"/>
<path d="M 1823,445 l -56,97 l 112,0 l -56,-97 Z" fill="rgb(219, 139, 127)" stroke="rgb(219, 139, 127)" stroke-width="50" stroke-linejoin="round"/>
<path d="M 1908,445 l 112,0 l -56,97 l -56,-97 Z" fill="rgb(231, 100, 207)" stroke="rgb(231, 100, 207)" stroke-width="50" stroke-linejoin="round"/>
<path d="M 2105,445 l -56,97 l 112,0 l -56,-97 Z" fill="rgb(123, 38, 103)" stroke="rgb(123, 38, 103)" stroke-width="50" stroke-linejoin="round"/>
<path d="M 2190,445 l 112,0 l -56,97 l -56,-97 Z" fill="rgb(251, 59, 100)" stroke="rgb(251, 59, 100)" stroke-width="50" stroke-linejoin="round"/>
<path d="M -553,724 l -56,97 l 112,0 l -56,-97 Z" fill="rgb(226, 203, 147)" stroke="rgb(226, 203, 147)" stroke-width="50" stroke-linejoin="round"/>
<path d="M -468,724 l 112,0 l -56,97 l -56,-97 Z" fill="rgb(148, 84, 38)" stroke="rgb(148, 84, 38)" stroke-width="50" stroke-linejoin="round"/>
<path d="M -271,724 l -56,97 l 112,0 l -56,-97 Z" fill="rgb(197, 50, 242)" stroke="rgb(197, 50, 242)" stroke-width="50" stroke-linejoin="round"/>
<path d="M -186,724 l 112,0 l -56,97 l -56,-97 Z" fill="rgb(114, 76, 37)" stroke="rgb(114, 76, 37)" stroke-width="50" stroke-linejoin="round"/>
<path d="M 11,724 l -56,97 l 112,0 l -56,-97 Z" fill="rgb(227, 7, 137)" stroke="rgb(227, 7, 137)" stroke-width="50" stroke-linejoin="round"/>
<path d="M 96,724 l 112,0 l -56,97 l -56,-97 Z" fill="rgb(252, 31, 93)" stroke="rgb(252, 31, 93)" stroke-width="50" stroke-linejoin="round"/>
<path d="M 293,724 l -56,97 l 112,0 l -56,-97 Z" fill="rgb(155, 185, 3)" stroke="rgb(155, 185, 3)" stroke-width="50" stroke-linejoin="round"/>
<path d="M 378,724 l 112,0 l -56,97 l -56,-97 Z" fill="rgb(53, 99, 87)" stroke="rgb(53, 99, 87)" stroke-width="50" stroke-linejoin="round"/>
<path d="M 575,724 l -56,97 l 112,0 l -56,-97 Z" fill="rgb(178, 156, 13)" stroke="rgb(178, 156, 13)" stroke-width="50" stroke-linejoin="round"/>
<path d="M 660,724 l 112,0 l -56,97 l -56,-97 Z" fill="rgb(238, 110, 205)" stroke="rgb(238, 110, 205)" stroke-width="50" stroke-linejoin="round"/>
<path d="M 857,724 l -56,97 l 112,0 l -56,-97 Z" fill="rgb(209, 77, 141)" stroke="rgb(209, 77, 141)" stroke-width="50" stroke-linejoin="round"/>
<path d="M 942,724 l 112,0 l -56,97 l -56,-97 Z" fill="rgb(93, 248, 12)" stroke="rgb(93, 248, 12)" stroke-width="50" stroke-linejoin="round"/>
<path d="M 1139,724 l -56,97 l 112,0 l -56,-97 Z" fill="rgb(172, 215, 51)" stroke="rgb(172, 215, 51)" stroke-width="50" stroke-linejoin="round"/>
<path d="M 1224,724 l 112,0 l -56,97 l -56,-97 Z" fill="rgb(13, 67, 131)" stroke="rgb(13, 67, 131)" stroke-width="50" stroke-linejoin="round"/>
<path d="M 1421,724 l -56,97 l 112,0 l -56,-97 Z" fill="rgb(53, 163, 81)" stroke="rgb(53, 163, 81)" stroke-width="50" stroke-linejoin="round"/>
<path d="M 1506,724 l 112,0 l -56,97 l -56,-97 Z" fill="rgb(156, 51, 138)" stroke="rgb(156, 51, 138)" stroke-width="50" stroke-linejoin="round"/>
<path d="M 1703,724 l -56,97 l 112,0 l -56,-97 Z" fill="rgb(195, 161, 98)" stroke="rgb(195, 161, 98)" stroke-width="50" stroke-linejoin="round"/>
<path d="M 1788,724 l 112,0 l -56,97 l -56,-97 Z" fill="rgb(207, 212, 107)" stroke="rgb(207, 212, 107)" stroke-width="50" stroke-linejoin="round"/>
<path d="M 1985,724 l -56,97 l 112,0 l -56,-97 Z" fill="rgb(58, 65, 199)" stroke="rgb(58, 65, 199)" stroke-width="50" stroke-linejoin="round"/>
<path d="M 2070,724 l 112,0 l -56,97 l -56,-97 Z" fill="rgb(226, 145, 37)" stroke="rgb(226, 145, 37)" stroke-width="50" stroke-linejoin="round"/>
<path d="M -673,1003 l -56,97 l 112,0 l -56,-97 Z" fill="rgb(236, 166, 73)" stroke="rgb(236, 166, 73)" stroke-width="50" stroke-linejoin="round"/>
<path d="M -588,1003 l 112,0 l -56,97 l -56,-97 Z" fill="rgb(93, 82, 96)" stroke="rgb(93, 82, 96)" stroke-width="50" stroke-linejoin="round"/>
<path d="M -391,1003 l -56,97 l 112,0 l -56,-97 Z" fill="rgb(91, 145, 14)" stroke="rgb(91, 145, 14)" stroke-width="50" stroke-linejoin="round"/>
<path d="M -306,1003 l 112,0 l -56,97 l -56,-97 Z" fill="rgb(224, 118, 43)" stroke="rgb(224, 118, 43)" stroke-width="50" stroke-linejoin="round"/>
<path d="M -109,1003 l -56,97 l 112,0 l -56,-97 Z" fill="rgb(162, 8, 161)" stroke="rgb(162, 8, 161)" stroke-width="50" stroke-linejoin="round"/>
<path d="M -24,1003 l 112,0 l -56,97 l -56,-97 Z" fill="rgb(215, 224, 66)" stroke="rgb(215, 224, 66)" stroke-width="50" stroke-linejoin="round"/>
<path d="M 173,1003 l -56,97 l 112,0 l -56,-97 Z" fill="rgb(83, 63, 105)" stroke="rgb(83, 63, 105)" stroke-width="50" stroke-linejoin="round"/>
<path d="M 258,1003 l 112,0 l -56,97 l -56,-97 Z" fill="rgb(225, 155, 149)" stroke="rgb(225, 155, 149)" stroke-width="50" stroke-linejoin="round"/>
<path d="M 455,1003 l -56,97 l 112,0 l -56,-97 Z" fill="rgb(143, 243, 158)" stroke="rgb(143, 243, 158)" stroke-width="50" stroke-linejoin="round"/>
<path d="M 540,1003 l 112,0 l -56,97 l -56,-97 Z" fill="rgb(27, 50, 195)" stroke="rgb(27, 50, 195)" stroke-width="50" stroke-linejoin="round"/>
<path d="M 737,1003 l -56,97 l 112,0 l -56,-97 Z" fill="rgb(28, 41, 214)" stroke="rgb(28, 41, 214)" stroke-width="50" stroke-linejoin="round"/>
<path d="M 822,1003 l 112,0 l -56,97 l -56,-97 Z" fill="rgb(213, 243, 88)" stroke="rgb(213, 243, 88)" stroke-width="50" stroke-linejoin="round"/>
<path d="M 1019,1003 l -56,97 l 112,0 l -56,-97 Z" fill="rgb(94, 169, 252)" stroke="rgb(94, 169, 252)" stroke-width="50" stroke-linejoin="round"/>
<path d="M 1104,1003 l 112,0 l -56,97 l -56,-97 Z" fill="rgb(6, 57, 107)" stroke="rgb(6, 57, 107)" stroke-width="50" stroke-linejoin="round"/>
<path d="M 1301,1003 l -56,97 l 112,0 l -56,-97 Z" fill="rgb(59, 130, 182)" stroke="rgb(59, 130, 182)" stroke-width="50" stroke-linejoin="round"/>
<path d="M 1386,1003 l 112,0 l -56,97 l -56,-97 Z" fill="rgb(72, 251, 51)" stroke="rgb(72, 251, 51)" stroke-width="50" stroke-linejoin="round"/>
<path d="M 1583,1003 l -56,97 l 112,0 l -56,-97 Z" fill="rgb(65, 246, 224)" stroke="rgb(65, 246, 224)" stroke-width="50" stroke-linejoin="round"/>
<path d="M 1668,1003 l 112,0 l -56,97 l -56,-97 Z" fill="rgb(107, 209, 166)" stroke="rgb(107, 209, 166)" stroke-width="50" stroke-linejoin="round"/>
<path d="M 1865,1003 l -56,97 l 112,0 l -56,-97 Z" fill="rgb(237, 73, 204)" stroke="rgb(237, 73, 204)" stroke-width="50" stroke-linejoin="round"/>
<path d="M 1950,1003 l 112,0 l -56,97 l -56,-97 Z" fill="rgb(35, 96, 57)" stroke="rgb(35, 96, 57)" stroke-width="50" stroke-linejoin="round"/>
</g>

</svg>