<?xml version="1.0" standalone="no"?>
<!DOCTYPE svg PUBLIC "-//W3C//DTD SVG 1.1//EN" "http://www.w3.org/Graphics/SVG/1.1/DTD/svg11.dtd">

<svg width="800" height="1000" style="background:#fff" 
  xmlns="http://www.w3.org/2000/svg"
  xmlns:xlink="http://www.w3.org/1999/xlink">

<style type="text/css">
<![CDATA[

]]>
</style>

<g transform="rotate(30 0 0)">
<path d="M -53,-705 l -56,97 l 112,0 l -56,-97 Z" fill="" stroke="" stroke-width="50" stroke-linejoin="round"/>
<path d="M 32,-705 l 112,0 l -56,97 l -56,-97 Z" fill="rgb(217, 219, 75)" stroke="rgb(217, 219, 75)" stroke-width="50" stroke-linejoin="round"/>
<path d="M 229,-705 l -56,97 l 112,0 l -56,-97 Z" fill="rgb(217, 219, 75)" stroke="rgb(217, 219, 75)" stroke-width="50" stroke-linejoin="round"/>
<path d="M 314,-705 l 112,0 l -56,97 l -56,-97 Z" fill="rgb(249, 78, 202)" stroke="rgb(249, 78, 202)" stroke-width="50" stroke-linejoin="round"/>
<path d="M 511,-705 l -56,97 l 112,0 l -56,-97 Z" fill="rgb(249, 78, 202)" stroke="rgb(249, 78, 202)" stroke-width="50" stroke-linejoin="round"/>
<path d="M 596,-705 l 112,0 l -56,97 l -56,-97 Z" fill="rgb(210, 50, 49)" stroke="rgb(210, 50, 49)" stroke-width="50" stroke-linejoin="round"/>
<path d="M 793,-705 l -56,97 l 112,0 l -56,-97 Z" fill="rgb(210, 50, 49)" stroke="rgb(210, 50, 49)" stroke-width="50" stroke-linejoin="round"/>
<path d="M 878,-705 l 112,0 l -56,97 l -56,-97 Z" fill="rgb(200, 22, 131)" stroke="rgb(200, 22, 131)" stroke-width="50" stroke-linejoin="round"/>
<path d="M 1075,-705 l -56,97 l 112,0 l -56,-97 Z" fill="rgb(200, 22, 131)" stroke="rgb(200, 22, 131)" stroke-width="50" stroke-linejoin="round"/>
<path d="M 1160,-705 l 112,0 l -56,97 l -56,-97 Z" fill="rgb(213, 42, 131)" stroke="rgb(213, 42, 131)" stroke-width="50" stroke-linejoin="round"/>
<path d="M 1357,-705 l -56,97 l 112,0 l -56,-97 Z" fill="rgb(213, 42, 131)" stroke="rgb(213, 42, 131)" stroke-width="50" stroke-linejoin="round"/>
<path d="M 1442,-705 l 112,0 l -56,97 l -56,-97 Z" fill="rgb(19, 97, 9)" stroke="rgb(19, 97, 9)" stroke-width="50" stroke-linejoin="round"/>
<path d="M 1639,-705 l -56,97 l 112,0 l -56,-97 Z" fill="rgb(19, 97, 9)" stroke="rgb(19, 97, 9)" stroke-width="50" stroke-linejoin="round"/>
<path d="M 1724,-705 l 112,0 l -56,97 l -56,-97 Z" fill="rgb(60, 207, 249)" stroke="rgb(60, 207, 249)" stroke-width="50" stroke-linejoin="round"/>
<path d="M 1921,-705 l -56,97 l 112,0 l -56,-97 Z" fill="rgb(60, 207, 249)" stroke="rgb(60, 207, 249)" stroke-width="50" stroke-linejoin="round"/>
<path d="M 2006,-705 l 112,0 l -56,97 l -56,-97 Z" fill="rgb(84, 100, 70)" stroke="rgb(84, 100, 70)" stroke-width="50" stroke-linejoin="round"/>
<path d="M 2203,-705 l -56,97 l 112,0 l -56,-97 Z" fill="rgb(84, 100, 70)" stroke="rgb(84, 100, 70)" stroke-width="50" stroke-linejoin="round"/>
<path d="M 2288,-705 l 112,0 l -56,97 l -56,-97 Z" fill="rgb(218, 148, 97)" stroke="rgb(218, 148, 97)" stroke-width="50" stroke-linejoin="round"/>
<path d="M 2485,-705 l -56,97 l 112,0 l -56,-97 Z" fill="rgb(218, 148, 97)" stroke="rgb(218, 148, 97)" stroke-width="50" stroke-linejoin="round"/>
<path d="M 2570,-705 l 112,0 l -56,97 l -56,-97 Z" fill="rgb(206, 65, 200)" stroke="rgb(206, 65, 200)" stroke-width="50" stroke-linejoin="round"/>
<path d="M 89,-460 l -56,97 l 112,0 l -56,-97 Z" fill="rgb(206, 65, 200)" stroke="rgb(206, 65, 200)" stroke-width="50" stroke-linejoin="round"/>
<path d="M 174,-460 l 112,0 l -56,97 l -56,-97 Z" fill="rgb(74, 194, 154)" stroke="rgb(74, 194, 154)" stroke-width="50" stroke-linejoin="round"/>
<path d="M 371,-460 l -56,97 l 112,0 l -56,-97 Z" fill="rgb(74, 194, 154)" stroke="rgb(74, 194, 154)" stroke-width="50" stroke-linejoin="round"/>
<path d="M 456,-460 l 112,0 l -56,97 l -56,-97 Z" fill="rgb(81, 253, 239)" stroke="rgb(81, 253, 239)" stroke-width="50" stroke-linejoin="round"/>
<path d="M 653,-460 l -56,97 l 112,0 l -56,-97 Z" fill="rgb(81, 253, 239)" stroke="rgb(81, 253, 239)" stroke-width="50" stroke-linejoin="round"/>
<path d="M 738,-460 l 112,0 l -56,97 l -56,-97 Z" fill="rgb(226, 234, 72)" stroke="rgb(226, 234, 72)" stroke-width="50" stroke-linejoin="round"/>
<path d="M 935,-460 l -56,97 l 112,0 l -56,-97 Z" fill="rgb(226, 234, 72)" stroke="rgb(226, 234, 72)" stroke-width="50" stroke-linejoin="round"/>
<path d="M 1020,-460 l 112,0 l -56,97 l -56,-97 Z" fill="rgb(195, 4, 94)" stroke="rgb(195, 4, 94)" stroke-width="50" stroke-linejoin="round"/>
<path d="M 1217,-460 l -56,97 l 112,0 l -56,-97 Z" fill="rgb(195, 4, 94)" stroke="rgb(195, 4, 94)" stroke-width="50" stroke-linejoin="round"/>
<path d="M 1302,-460 l 112,0 l -56,97 l -56,-97 Z" fill="rgb(16, 49, 175)" stroke="rgb(16, 49, 175)" stroke-width="50" stroke-linejoin="round"/>
<path d="M 1499,-460 l -56,97 l 112,0 l -56,-97 Z" fill="rgb(16, 49, 175)" stroke="rgb(16, 49, 175)" stroke-width="50" stroke-linejoin="round"/>
<path d="M 1584,-460 l 112,0 l -56,97 l -56,-97 Z" fill="rgb(111, 160, 229)" stroke="rgb(111, 160, 229)" stroke-width="50" stroke-linejoin="round"/>
<path d="M 1781,-460 l -56,97 l 112,0 l -56,-97 Z" fill="rgb(111, 160, 229)" stroke="rgb(111, 160, 229)" stroke-width="50" stroke-linejoin="round"/>
<path d="M 1866,-460 l 112,0 l -56,97 l -56,-97 Z" fill="rgb(228, 84, 226)" stroke="rgb(228, 84, 226)" stroke-width="50" stroke-linejoin="round"/>
<path d="M 2063,-460 l -56,97 l 112,0 l -56,-97 Z" fill="rgb(228, 84, 226)" stroke="rgb(228, 84, 226)" stroke-width="50" stroke-linejoin="round"/>
<path d="M 2148,-460 l 112,0 l -56,97 l -56,-97 Z" fill="rgb(227, 24, 3)" stroke="rgb(227, 24, 3)" stroke-width="50" stroke-linejoin="round"/>
<path d="M 2345,-460 l -56,97 l 112,0 l -56,-97 Z" fill="rgb(227, 24, 3)" stroke="rgb(227, 24, 3)" stroke-width="50" stroke-linejoin="round"/>
<path d="M 2430,-460 l 112,0 l -56,97 l -56,-97 Z" fill="rgb(212, 138, 176)" stroke="rgb(212, 138, 176)" stroke-width="50" stroke-linejoin="round"/>
<path d="M 2627,-460 l -56,97 l 112,0 l -56,-97 Z" fill="rgb(212, 138, 176)" stroke="rgb(212, 138, 176)" stroke-width="50" stroke-linejoin="round"/>
<path d="M 2712,-460 l 112,0 l -56,97 l -56,-97 Z" fill="rgb(168, 119, 242)" stroke="rgb(168, 119, 242)" stroke-width="50" stroke-linejoin="round"/>
<path d="M -53,-215 l -56,97 l 112,0 l -56,-97 Z" fill="rgb(168, 119, 242)" stroke="rgb(168, 119, 242)" stroke-width="50" stroke-linejoin="round"/>
<path d="M 32,-215 l 112,0 l -56,97 l -56,-97 Z" fill="rgb(117, 115, 35)" stroke="rgb(117, 115, 35)" stroke-width="50" stroke-linejoin="round"/>
<path d="M 229,-215 l -56,97 l 112,0 l -56,-97 Z" fill="rgb(117, 115, 35)" stroke="rgb(117, 115, 35)" stroke-width="50" stroke-linejoin="round"/>
<path d="M 314,-215 l 112,0 l -56,97 l -56,-97 Z" fill="rgb(178, 250, 215)" stroke="rgb(178, 250, 215)" stroke-width="50" stroke-linejoin="round"/>
<path d="M 511,-215 l -56,97 l 112,0 l -56,-97 Z" fill="rgb(178, 250, 215)" stroke="rgb(178, 250, 215)" stroke-width="50" stroke-linejoin="round"/>
<path d="M 596,-215 l 112,0 l -56,97 l -56,-97 Z" fill="rgb(138, 48, 65)" stroke="rgb(138, 48, 65)" stroke-width="50" stroke-linejoin="round"/>
<path d="M 793,-215 l -56,97 l 112,0 l -56,-97 Z" fill="rgb(138, 48, 65)" stroke="rgb(138, 48, 65)" stroke-width="50" stroke-linejoin="round"/>
<path d="M 878,-215 l 112,0 l -56,97 l -56,-97 Z" fill="rgb(162, 59, 80)" stroke="rgb(162, 59, 80)" stroke-width="50" stroke-linejoin="round"/>
<path d="M 1075,-215 l -56,97 l 112,0 l -56,-97 Z" fill="rgb(162, 59, 80)" stroke="rgb(162, 59, 80)" stroke-width="50" stroke-linejoin="round"/>
<path d="M 1160,-215 l 112,0 l -56,97 l -56,-97 Z" fill="rgb(65, 165, 67)" stroke="rgb(65, 165, 67)" stroke-width="50" stroke-linejoin="round"/>
<path d="M 1357,-215 l -56,97 l 112,0 l -56,-97 Z" fill="rgb(65, 165, 67)" stroke="rgb(65, 165, 67)" stroke-width="50" stroke-linejoin="round"/>
<path d="M 1442,-215 l 112,0 l -56,97 l -56,-97 Z" fill="rgb(118, 16, 27)" stroke="rgb(118, 16, 27)" stroke-width="50" stroke-linejoin="round"/>
<path d="M 1639,-215 l -56,97 l 112,0 l -56,-97 Z" fill="rgb(118, 16, 27)" stroke="rgb(118, 16, 27)" stroke-width="50" stroke-linejoin="round"/>
<path d="M 1724,-215 l 112,0 l -56,97 l -56,-97 Z" fill="rgb(78, 196, 188)" stroke="rgb(78, 196, 188)" stroke-width="50" stroke-linejoin="round"/>
<path d="M 1921,-215 l -56,97 l 112,0 l -56,-97 Z" fill="rgb(78, 196, 188)" stroke="rgb(78, 196, 188)" stroke-width="50" stroke-linejoin="round"/>
<path d="M 2006,-215 l 112,0 l -56,97 l -56,-97 Z" fill="rgb(49, 141, 166)" stroke="rgb(49, 141, 166)" stroke-width="50" stroke-linejoin="round"/>
<path d="M 2203,-215 l -56,97 l 112,0 l -56,-97 Z" fill="rgb(49, 141, 166)" stroke="rgb(49, 141, 166)" stroke-width="50" stroke-linejoin="round"/>
<path d="M 2288,-215 l 112,0 l -56,97 l -56,-97 Z" fill="rgb(24, 5, 189)" stroke="rgb(24, 5, 189)" stroke-width="50" stroke-linejoin="round"/>
<path d="M 2485,-215 l -56,97 l 112,0 l -56,-97 Z" fill="rgb(24, 5, 189)" stroke="rgb(24, 5, 189)" stroke-width="50" stroke-linejoin="round"/>
<path d="M 2570,-215 l 112,0 l -56,97 l -56,-97 Z" fill="rgb(123, 129, 41)" stroke="rgb(123, 129, 41)" stroke-width="50" stroke-linejoin="round"/>
<path d="M 89,30 l -56,97 l 112,0 l -56,-97 Z" fill="rgb(123, 129, 41)" stroke="rgb(123, 129, 41)" stroke-width="50" stroke-linejoin="round"/>
<path d="M 174,30 l 112,0 l -56,97 l -56,-97 Z" fill="rgb(27, 1, 116)" stroke="rgb(27, 1, 116)" stroke-width="50" stroke-linejoin="round"/>
<path d="M 371,30 l -56,97 l 112,0 l -56,-97 Z" fill="rgb(27, 1, 116)" stroke="rgb(27, 1, 116)" stroke-width="50" stroke-linejoin="round"/>
<path d="M 456,30 l 112,0 l -56,97 l -56,-97 Z" fill="rgb(174, 229, 44)" stroke="rgb(174, 229, 44)" stroke-width="50" stroke-linejoin="round"/>
<path d="M 653,30 l -56,97 l 112,0 l -56,-97 Z" fill="rgb(174, 229, 44)" stroke="rgb(174, 229, 44)" stroke-width="50" stroke-linejoin="round"/>
<path d="M 738,30 l 112,0 l -56,97 l -56,-97 Z" fill="rgb(186, 184, 214)" stroke="rgb(186, 184, 214)" stroke-width="50" stroke-linejoin="round"/>
<path d="M 935,30 l -56,97 l 112,0 l -56,-97 Z" fill="rgb(186, 184, 214)" stroke="rgb(186, 184, 214)" stroke-width="50" stroke-linejoin="round"/>
<path d="M 1020,30 l 112,0 l -56,97 l -56,-97 Z" fill="rgb(18, 199, 172)" stroke="rgb(18, 199, 172)" stroke-width="50" stroke-linejoin="round"/>
<path d="M 1217,30 l -56,97 l 112,0 l -56,-97 Z" fill="rgb(18, 199, 172)" stroke="rgb(18, 199, 172)" stroke-width="50" stroke-linejoin="round"/>
<path d="M 1302,30 l 112,0 l -56,97 l -56,-97 Z" fill="rgb(161, 25, 119)" stroke="rgb(161, 25, 119)" stroke-width="50" stroke-linejoin="round"/>
<path d="M 1499,30 l -56,97 l 112,0 l -56,-97 Z" fill="rgb(161, 25, 119)" stroke="rgb(161, 25, 119)" stroke-width="50" stroke-linejoin="round"/>
<path d="M 1584,30 l 112,0 l -56,97 l -56,-97 Z" fill="rgb(59, 28, 48)" stroke="rgb(59, 28, 48)" stroke-width="50" stroke-linejoin="round"/>
<path d="M 1781,30 l -56,97 l 112,0 l -56,-97 Z" fill="rgb(59, 28, 48)" stroke="rgb(59, 28, 48)" stroke-width="50" stroke-linejoin="round"/>
<path d="M 1866,30 l 112,0 l -56,97 l -56,-97 Z" fill="rgb(229, 24, 45)" stroke="rgb(229, 24, 45)" stroke-width="50" stroke-linejoin="round"/>
<path d="M 2063,30 l -56,97 l 112,0 l -56,-97 Z" fill="rgb(229, 24, 45)" stroke="rgb(229, 24, 45)" stroke-width="50" stroke-linejoin="round"/>
<path d="M 2148,30 l 112,0 l -56,97 l -56,-97 Z" fill="rgb(188, 229, 71)" stroke="rgb(188, 229, 71)" stroke-width="50" stroke-linejoin="round"/>
<path d="M 2345,30 l -56,97 l 112,0 l -56,-97 Z" fill="rgb(188, 229, 71)" stroke="rgb(188, 229, 71)" stroke-width="50" stroke-linejoin="round"/>
<path d="M 2430,30 l 112,0 l -56,97 l -56,-97 Z" fill="rgb(117, 163, 55)" stroke="rgb(117, 163, 55)" stroke-width="50" stroke-linejoin="round"/>
<path d="M 2627,30 l -56,97 l 112,0 l -56,-97 Z" fill="rgb(117, 163, 55)" stroke="rgb(117, 163, 55)" stroke-width="50" stroke-linejoin="round"/>
<path d="M 2712,30 l 112,0 l -56,97 l -56,-97 Z" fill="rgb(19, 124, 229)" stroke="rgb(19, 124, 229)" stroke-width="50" stroke-linejoin="round"/>
<path d="M -53,275 l -56,97 l 112,0 l -56,-97 Z" fill="rgb(19, 124, 229)" stroke="rgb(19, 124, 229)" stroke-width="50" stroke-linejoin="round"/>
<path d="M 32,275 l 112,0 l -56,97 l -56,-97 Z" fill="rgb(39, 93, 242)" stroke="rgb(39, 93, 242)" stroke-width="50" stroke-linejoin="round"/>
<path d="M 229,275 l -56,97 l 112,0 l -56,-97 Z" fill="rgb(39, 93, 242)" stroke="rgb(39, 93, 242)" stroke-width="50" stroke-linejoin="round"/>
<path d="M 314,275 l 112,0 l -56,97 l -56,-97 Z" fill="rgb(216, 95, 135)" stroke="rgb(216, 95, 135)" stroke-width="50" stroke-linejoin="round"/>
<path d="M 511,275 l -56,97 l 112,0 l -56,-97 Z" fill="rgb(216, 95, 135)" stroke="rgb(216, 95, 135)" stroke-width="50" stroke-linejoin="round"/>
<path d="M 596,275 l 112,0 l -56,97 l -56,-97 Z" fill="rgb(52, 163, 41)" stroke="rgb(52, 163, 41)" stroke-width="50" stroke-linejoin="round"/>
<path d="M 793,275 l -56,97 l 112,0 l -56,-97 Z" fill="rgb(52, 163, 41)" stroke="rgb(52, 163, 41)" stroke-width="50" stroke-linejoin="round"/>
<path d="M 878,275 l 112,0 l -56,97 l -56,-97 Z" fill="rgb(132, 6, 215)" stroke="rgb(132, 6, 215)" stroke-width="50" stroke-linejoin="round"/>
<path d="M 1075,275 l -56,97 l 112,0 l -56,-97 Z" fill="rgb(132, 6, 215)" stroke="rgb(132, 6, 215)" stroke-width="50" stroke-linejoin="round"/>
<path d="M 1160,275 l 112,0 l -56,97 l -56,-97 Z" fill="rgb(176, 2, 88)" stroke="rgb(176, 2, 88)" stroke-width="50" stroke-linejoin="round"/>
<path d="M 1357,275 l -56,97 l 112,0 l -56,-97 Z" fill="rgb(176, 2, 88)" stroke="rgb(176, 2, 88)" stroke-width="50" stroke-linejoin="round"/>
<path d="M 1442,275 l 112,0 l -56,97 l -56,-97 Z" fill="rgb(178, 150, 11)" stroke="rgb(178, 150, 11)" stroke-width="50" stroke-linejoin="round"/>
<path d="M 1639,275 l -56,97 l 112,0 l -56,-97 Z" fill="rgb(178, 150, 11)" stroke="rgb(178, 150, 11)" stroke-width="50" stroke-linejoin="round"/>
<path d="M 1724,275 l 112,0 l -56,97 l -56,-97 Z" fill="rgb(84, 226, 153)" stroke="rgb(84, 226, 153)" stroke-width="50" stroke-linejoin="round"/>
<path d="M 1921,275 l -56,97 l 112,0 l -56,-97 Z" fill="rgb(84, 226, 153)" stroke="rgb(84, 226, 153)" stroke-width="50" stroke-linejoin="round"/>
<path d="M 2006,275 l 112,0 l -56,97 l -56,-97 Z" fill="rgb(85, 222, 63)" stroke="rgb(85, 222, 63)" stroke-width="50" stroke-linejoin="round"/>
<path d="M 2203,275 l -56,97 l 112,0 l -56,-97 Z" fill="rgb(85, 222, 63)" stroke="rgb(85, 222, 63)" stroke-width="50" stroke-linejoin="round"/>
<path d="M 2288,275 l 112,0 l -56,97 l -56,-97 Z" fill="rgb(71, 190, 4)" stroke="rgb(71, 190, 4)" stroke-width="50" stroke-linejoin="round"/>
<path d="M 2485,275 l -56,97 l 112,0 l -56,-97 Z" fill="rgb(71, 190, 4)" stroke="rgb(71, 190, 4)" stroke-width="50" stroke-linejoin="round"/>
<path d="M 2570,275 l 112,0 l -56,97 l -56,-97 Z" fill="rgb(156, 238, 94)" stroke="rgb(156, 238, 94)" stroke-width="50" stroke-linejoin="round"/>
<path d="M 89,520 l -56,97 l 112,0 l -56,-97 Z" fill="rgb(156, 238, 94)" stroke="rgb(156, 238, 94)" stroke-width="50" stroke-linejoin="round"/>
<path d="M 174,520 l 112,0 l -56,97 l -56,-97 Z" fill="rgb(167, 61, 153)" stroke="rgb(167, 61, 153)" stroke-width="50" stroke-linejoin="round"/>
<path d="M 371,520 l -56,97 l 112,0 l -56,-97 Z" fill="rgb(167, 61, 153)" stroke="rgb(167, 61, 153)" stroke-width="50" stroke-linejoin="round"/>
<path d="M 456,520 l 112,0 l -56,97 l -56,-97 Z" fill="rgb(127, 43, 155)" stroke="rgb(127, 43, 155)" stroke-width="50" stroke-linejoin="round"/>
<path d="M 653,520 l -56,97 l 112,0 l -56,-97 Z" fill="rgb(127, 43, 155)" stroke="rgb(127, 43, 155)" stroke-width="50" stroke-linejoin="round"/>
<path d="M 738,520 l 112,0 l -56,97 l -56,-97 Z" fill="rgb(76, 191, 87)" stroke="rgb(76, 191, 87)" stroke-width="50" stroke-linejoin="round"/>
<path d="M 935,520 l -56,97 l 112,0 l -56,-97 Z" fill="rgb(76, 191, 87)" stroke="rgb(76, 191, 87)" stroke-width="50" stroke-linejoin="round"/>
<path d="M 1020,520 l 112,0 l -56,97 l -56,-97 Z" fill="rgb(235, 106, 81)" stroke="rgb(235, 106, 81)" stroke-width="50" stroke-linejoin="round"/>
<path d="M 1217,520 l -56,97 l 112,0 l -56,-97 Z" fill="rgb(235, 106, 81)" stroke="rgb(235, 106, 81)" stroke-width="50" stroke-linejoin="round"/>
<path d="M 1302,520 l 112,0 l -56,97 l -56,-97 Z" fill="rgb(224, 61, 28)" stroke="rgb(224, 61, 28)" stroke-width="50" stroke-linejoin="round"/>
<path d="M 1499,520 l -56,97 l 112,0 l -56,-97 Z" fill="rgb(224, 61, 28)" stroke="rgb(224, 61, 28)" stroke-width="50" stroke-linejoin="round"/>
<path d="M 1584,520 l 112,0 l -56,97 l -56,-97 Z" fill="rgb(181, 253, 66)" stroke="rgb(181, 253, 66)" stroke-width="50" stroke-linejoin="round"/>
<path d="M 1781,520 l -56,97 l 112,0 l -56,-97 Z" fill="rgb(181, 253, 66)" stroke="rgb(181, 253, 66)" stroke-width="50" stroke-linejoin="round"/>
<path d="M 1866,520 l 112,0 l -56,97 l -56,-97 Z" fill="rgb(93, 225, 220)" stroke="rgb(93, 225, 220)" stroke-width="50" stroke-linejoin="round"/>
<path d="M 2063,520 l -56,97 l 112,0 l -56,-97 Z" fill="rgb(93, 225, 220)" stroke="rgb(93, 225, 220)" stroke-width="50" stroke-linejoin="round"/>
<path d="M 2148,520 l 112,0 l -56,97 l -56,-97 Z" fill="rgb(206, 106, 154)" stroke="rgb(206, 106, 154)" stroke-width="50" stroke-linejoin="round"/>
<path d="M 2345,520 l -56,97 l 112,0 l -56,-97 Z" fill="rgb(206, 106, 154)" stroke="rgb(206, 106, 154)" stroke-width="50" stroke-linejoin="round"/>
<path d="M 2430,520 l 112,0 l -56,97 l -56,-97 Z" fill="rgb(160, 103, 165)" stroke="rgb(160, 103, 165)" stroke-width="50" stroke-linejoin="round"/>
<path d="M 2627,520 l -56,97 l 112,0 l -56,-97 Z" fill="rgb(160, 103, 165)" stroke="rgb(160, 103, 165)" stroke-width="50" stroke-linejoin="round"/>
<path d="M 2712,520 l 112,0 l -56,97 l -56,-97 Z" fill="rgb(39, 208, 55)" stroke="rgb(39, 208, 55)" stroke-width="50" stroke-linejoin="round"/>
<path d="M -53,765 l -56,97 l 112,0 l -56,-97 Z" fill="rgb(39, 208, 55)" stroke="rgb(39, 208, 55)" stroke-width="50" stroke-linejoin="round"/>
<path d="M 32,765 l 112,0 l -56,97 l -56,-97 Z" fill="rgb(191, 9, 76)" stroke="rgb(191, 9, 76)" stroke-width="50" stroke-linejoin="round"/>
<path d="M 229,765 l -56,97 l 112,0 l -56,-97 Z" fill="rgb(191, 9, 76)" stroke="rgb(191, 9, 76)" stroke-width="50" stroke-linejoin="round"/>
<path d="M 314,765 l 112,0 l -56,97 l -56,-97 Z" fill="rgb(122, 215, 55)" stroke="rgb(122, 215, 55)" stroke-width="50" stroke-linejoin="round"/>
<path d="M 511,765 l -56,97 l 112,0 l -56,-97 Z" fill="rgb(122, 215, 55)" stroke="rgb(122, 215, 55)" stroke-width="50" stroke-linejoin="round"/>
<path d="M 596,765 l 112,0 l -56,97 l -56,-97 Z" fill="rgb(54, 22, 237)" stroke="rgb(54, 22, 237)" stroke-width="50" stroke-linejoin="round"/>
<path d="M 793,765 l -56,97 l 112,0 l -56,-97 Z" fill="rgb(54, 22, 237)" stroke="rgb(54, 22, 237)" stroke-width="50" stroke-linejoin="round"/>
<path d="M 878,765 l 112,0 l -56,97 l -56,-97 Z" fill="rgb(161, 230, 227)" stroke="rgb(161, 230, 227)" stroke-width="50" stroke-linejoin="round"/>
<path d="M 1075,765 l -56,97 l 112,0 l -56,-97 Z" fill="rgb(161, 230, 227)" stroke="rgb(161, 230, 227)" stroke-width="50" stroke-linejoin="round"/>
<path d="M 1160,765 l 112,0 l -56,97 l -56,-97 Z" fill="rgb(96, 7, 98)" stroke="rgb(96, 7, 98)" stroke-width="50" stroke-linejoin="round"/>
<path d="M 1357,765 l -56,97 l 112,0 l -56,-97 Z" fill="rgb(96, 7, 98)" stroke="rgb(96, 7, 98)" stroke-width="50" stroke-linejoin="round"/>
<path d="M 1442,765 l 112,0 l -56,97 l -56,-97 Z" fill="rgb(58, 122, 73)" stroke="rgb(58, 122, 73)" stroke-width="50" stroke-linejoin="round"/>
<path d="M 1639,765 l -56,97 l 112,0 l -56,-97 Z" fill="rgb(58, 122, 73)" stroke="rgb(58, 122, 73)" stroke-width="50" stroke-linejoin="round"/>
<path d="M 1724,765 l 112,0 l -56,97 l -56,-97 Z" fill="rgb(130, 249, 106)" stroke="rgb(130, 249, 106)" stroke-width="50" stroke-linejoin="round"/>
<path d="M 1921,765 l -56,97 l 112,0 l -56,-97 Z" fill="rgb(130, 249, 106)" stroke="rgb(130, 249, 106)" stroke-width="50" stroke-linejoin="round"/>
<path d="M 2006,765 l 112,0 l -56,97 l -56,-97 Z" fill="rgb(192, 206, 219)" stroke="rgb(192, 206, 219)" stroke-width="50" stroke-linejoin="round"/>
<path d="M 2203,765 l -56,97 l 112,0 l -56,-97 Z" fill="rgb(192, 206, 219)" stroke="rgb(192, 206, 219)" stroke-width="50" stroke-linejoin="round"/>
<path d="M 2288,765 l 112,0 l -56,97 l -56,-97 Z" fill="rgb(232, 139, 148)" stroke="rgb(232, 139, 148)" stroke-width="50" stroke-linejoin="round"/>
<path d="M 2485,765 l -56,97 l 112,0 l -56,-97 Z" fill="rgb(232, 139, 148)" stroke="rgb(232, 139, 148)" stroke-width="50" stroke-linejoin="round"/>
<path d="M 2570,765 l 112,0 l -56,97 l -56,-97 Z" fill="rgb(48, 166, 185)" stroke="rgb(48, 166, 185)" stroke-width="50" stroke-linejoin="round"/>
</g>

</svg>