<?xml version="1.0" standalone="no"?>
<!DOCTYPE svg PUBLIC "-//W3C//DTD SVG 1.1//EN" "http://www.w3.org/Graphics/SVG/1.1/DTD/svg11.dtd">

<svg width="800" height="1000" style="background:#fff" 
  xmlns="http://www.w3.org/2000/svg"
  xmlns:xlink="http://www.w3.org/1999/xlink">

<style type="text/css">
<![CDATA[

]]>
</style>

<g transform="rotate(30 0 0)">
<path d="M -53,-705 l -56,97 l 112,0 l -56,-97 Z" fill="" stroke="" stroke-width="50" stroke-linejoin="round"/>
<path d="M 32,-705 l 112,0 l -56,97 l -56,-97 Z" fill="rgb(190, 196, 60)" stroke="rgb(190, 196, 60)" stroke-width="50" stroke-linejoin="round"/>
<path d="M 229,-705 l -56,97 l 112,0 l -56,-97 Z" fill="rgb(190, 196, 60)" stroke="rgb(190, 196, 60)" stroke-width="50" stroke-linejoin="round"/>
<path d="M 314,-705 l 112,0 l -56,97 l -56,-97 Z" fill="rgb(52, 93, 105)" stroke="rgb(52, 93, 105)" stroke-width="50" stroke-linejoin="round"/>
<path d="M 511,-705 l -56,97 l 112,0 l -56,-97 Z" fill="rgb(52, 93, 105)" stroke="rgb(52, 93, 105)" stroke-width="50" stroke-linejoin="round"/>
<path d="M 596,-705 l 112,0 l -56,97 l -56,-97 Z" fill="rgb(192, 127, 216)" stroke="rgb(192, 127, 216)" stroke-width="50" stroke-linejoin="round"/>
<path d="M 793,-705 l -56,97 l 112,0 l -56,-97 Z" fill="rgb(192, 127, 216)" stroke="rgb(192, 127, 216)" stroke-width="50" stroke-linejoin="round"/>
<path d="M 878,-705 l 112,0 l -56,97 l -56,-97 Z" fill="rgb(43, 124, 35)" stroke="rgb(43, 124, 35)" stroke-width="50" stroke-linejoin="round"/>
<path d="M 1075,-705 l -56,97 l 112,0 l -56,-97 Z" fill="rgb(43, 124, 35)" stroke="rgb(43, 124, 35)" stroke-width="50" stroke-linejoin="round"/>
<path d="M 1160,-705 l 112,0 l -56,97 l -56,-97 Z" fill="rgb(27, 132, 249)" stroke="rgb(27, 132, 249)" stroke-width="50" stroke-linejoin="round"/>
<path d="M 1357,-705 l -56,97 l 112,0 l -56,-97 Z" fill="rgb(27, 132, 249)" stroke="rgb(27, 132, 249)" stroke-width="50" stroke-linejoin="round"/>
<path d="M 1442,-705 l 112,0 l -56,97 l -56,-97 Z" fill="rgb(227, 65, 203)" stroke="rgb(227, 65, 203)" stroke-width="50" stroke-linejoin="round"/>
<path d="M 1639,-705 l -56,97 l 112,0 l -56,-97 Z" fill="rgb(227, 65, 203)" stroke="rgb(227, 65, 203)" stroke-width="50" stroke-linejoin="round"/>
<path d="M 1724,-705 l 112,0 l -56,97 l -56,-97 Z" fill="rgb(3, 51, 80)" stroke="rgb(3, 51, 80)" stroke-width="50" stroke-linejoin="round"/>
<path d="M 1921,-705 l -56,97 l 112,0 l -56,-97 Z" fill="rgb(3, 51, 80)" stroke="rgb(3, 51, 80)" stroke-width="50" stroke-linejoin="round"/>
<path d="M 2006,-705 l 112,0 l -56,97 l -56,-97 Z" fill="rgb(159, 153, 13)" stroke="rgb(159, 153, 13)" stroke-width="50" stroke-linejoin="round"/>
<path d="M 2203,-705 l -56,97 l 112,0 l -56,-97 Z" fill="rgb(159, 153, 13)" stroke="rgb(159, 153, 13)" stroke-width="50" stroke-linejoin="round"/>
<path d="M 2288,-705 l 112,0 l -56,97 l -56,-97 Z" fill="rgb(254, 162, 229)" stroke="rgb(254, 162, 229)" stroke-width="50" stroke-linejoin="round"/>
<path d="M 2485,-705 l -56,97 l 112,0 l -56,-97 Z" fill="rgb(254, 162, 229)" stroke="rgb(254, 162, 229)" stroke-width="50" stroke-linejoin="round"/>
<path d="M 2570,-705 l 112,0 l -56,97 l -56,-97 Z" fill="rgb(192, 70, 227)" stroke="rgb(192, 70, 227)" stroke-width="50" stroke-linejoin="round"/>
<path d="M 89,-460 l -56,97 l 112,0 l -56,-97 Z" fill="rgb(192, 70, 227)" stroke="rgb(192, 70, 227)" stroke-width="50" stroke-linejoin="round"/>
<path d="M 174,-460 l 112,0 l -56,97 l -56,-97 Z" fill="rgb(118, 223, 73)" stroke="rgb(118, 223, 73)" stroke-width="50" stroke-linejoin="round"/>
<path d="M 371,-460 l -56,97 l 112,0 l -56,-97 Z" fill="rgb(118, 223, 73)" stroke="rgb(118, 223, 73)" stroke-width="50" stroke-linejoin="round"/>
<path d="M 456,-460 l 112,0 l -56,97 l -56,-97 Z" fill="rgb(91, 11, 79)" stroke="rgb(91, 11, 79)" stroke-width="50" stroke-linejoin="round"/>
<path d="M 653,-460 l -56,97 l 112,0 l -56,-97 Z" fill="rgb(91, 11, 79)" stroke="rgb(91, 11, 79)" stroke-width="50" stroke-linejoin="round"/>
<path d="M 738,-460 l 112,0 l -56,97 l -56,-97 Z" fill="rgb(222, 168, 140)" stroke="rgb(222, 168, 140)" stroke-width="50" stroke-linejoin="round"/>
<path d="M 935,-460 l -56,97 l 112,0 l -56,-97 Z" fill="rgb(222, 168, 140)" stroke="rgb(222, 168, 140)" stroke-width="50" stroke-linejoin="round"/>
<path d="M 1020,-460 l 112,0 l -56,97 l -56,-97 Z" fill="rgb(176, 250, 57)" stroke="rgb(176, 250, 57)" stroke-width="50" stroke-linejoin="round"/>
<path d="M 1217,-460 l -56,97 l 112,0 l -56,-97 Z" fill="rgb(176, 250, 57)" stroke="rgb(176, 250, 57)" stroke-width="50" stroke-linejoin="round"/>
<path d="M 1302,-460 l 112,0 l -56,97 l -56,-97 Z" fill="rgb(117, 196, 24)" stroke="rgb(117, 196, 24)" stroke-width="50" stroke-linejoin="round"/>
<path d="M 1499,-460 l -56,97 l 112,0 l -56,-97 Z" fill="rgb(117, 196, 24)" stroke="rgb(117, 196, 24)" stroke-width="50" stroke-linejoin="round"/>
<path d="M 1584,-460 l 112,0 l -56,97 l -56,-97 Z" fill="rgb(235, 2, 254)" stroke="rgb(235, 2, 254)" stroke-width="50" stroke-linejoin="round"/>
<path d="M 1781,-460 l -56,97 l 112,0 l -56,-97 Z" fill="rgb(235, 2, 254)" stroke="rgb(235, 2, 254)" stroke-width="50" stroke-linejoin="round"/>
<path d="M 1866,-460 l 112,0 l -56,97 l -56,-97 Z" fill="rgb(7, 212, 10)" stroke="rgb(7, 212, 10)" stroke-width="50" stroke-linejoin="round"/>
<path d="M 2063,-460 l -56,97 l 112,0 l -56,-97 Z" fill="rgb(7, 212, 10)" stroke="rgb(7, 212, 10)" stroke-width="50" stroke-linejoin="round"/>
<path d="M 2148,-460 l 112,0 l -56,97 l -56,-97 Z" fill="rgb(90, 5, 115)" stroke="rgb(90, 5, 115)" stroke-width="50" stroke-linejoin="round"/>
<path d="M 2345,-460 l -56,97 l 112,0 l -56,-97 Z" fill="rgb(90, 5, 115)" stroke="rgb(90, 5, 115)" stroke-width="50" stroke-linejoin="round"/>
<path d="M 2430,-460 l 112,0 l -56,97 l -56,-97 Z" fill="rgb(220, 113, 82)" stroke="rgb(220, 113, 82)" stroke-width="50" stroke-linejoin="round"/>
<path d="M 2627,-460 l -56,97 l 112,0 l -56,-97 Z" fill="rgb(220, 113, 82)" stroke="rgb(220, 113, 82)" stroke-width="50" stroke-linejoin="round"/>
<path d="M 2712,-460 l 112,0 l -56,97 l -56,-97 Z" fill="rgb(80, 234, 167)" stroke="rgb(80, 234, 167)" stroke-width="50" stroke-linejoin="round"/>
<path d="M -53,-215 l -56,97 l 112,0 l -56,-97 Z" fill="rgb(80, 234, 167)" stroke="rgb(80, 234, 167)" stroke-width="50" stroke-linejoin="round"/>
<path d="M 32,-215 l 112,0 l -56,97 l -56,-97 Z" fill="rgb(169, 187, 110)" stroke="rgb(169, 187, 110)" stroke-width="50" stroke-linejoin="round"/>
<path d="M 229,-215 l -56,97 l 112,0 l -56,-97 Z" fill="rgb(169, 187, 110)" stroke="rgb(169, 187, 110)" stroke-width="50" stroke-linejoin="round"/>
<path d="M 314,-215 l 112,0 l -56,97 l -56,-97 Z" fill="rgb(86, 32, 71)" stroke="rgb(86, 32, 71)" stroke-width="50" stroke-linejoin="round"/>
<path d="M 511,-215 l -56,97 l 112,0 l -56,-97 Z" fill="rgb(86, 32, 71)" stroke="rgb(86, 32, 71)" stroke-width="50" stroke-linejoin="round"/>
<path d="M 596,-215 l 112,0 l -56,97 l -56,-97 Z" fill="rgb(122, 115, 40)" stroke="rgb(122, 115, 40)" stroke-width="50" stroke-linejoin="round"/>
<path d="M 793,-215 l -56,97 l 112,0 l -56,-97 Z" fill="rgb(122, 115, 40)" stroke="rgb(122, 115, 40)" stroke-width="50" stroke-linejoin="round"/>
<path d="M 878,-215 l 112,0 l -56,97 l -56,-97 Z" fill="rgb(0, 20, 211)" stroke="rgb(0, 20, 211)" stroke-width="50" stroke-linejoin="round"/>
<path d="M 1075,-215 l -56,97 l 112,0 l -56,-97 Z" fill="rgb(0, 20, 211)" stroke="rgb(0, 20, 211)" stroke-width="50" stroke-linejoin="round"/>
<path d="M 1160,-215 l 112,0 l -56,97 l -56,-97 Z" fill="rgb(12, 38, 7)" stroke="rgb(12, 38, 7)" stroke-width="50" stroke-linejoin="round"/>
<path d="M 1357,-215 l -56,97 l 112,0 l -56,-97 Z" fill="rgb(12, 38, 7)" stroke="rgb(12, 38, 7)" stroke-width="50" stroke-linejoin="round"/>
<path d="M 1442,-215 l 112,0 l -56,97 l -56,-97 Z" fill="rgb(4, 71, 254)" stroke="rgb(4, 71, 254)" stroke-width="50" stroke-linejoin="round"/>
<path d="M 1639,-215 l -56,97 l 112,0 l -56,-97 Z" fill="rgb(4, 71, 254)" stroke="rgb(4, 71, 254)" stroke-width="50" stroke-linejoin="round"/>
<path d="M 1724,-215 l 112,0 l -56,97 l -56,-97 Z" fill="rgb(118, 254, 16)" stroke="rgb(118, 254, 16)" stroke-width="50" stroke-linejoin="round"/>
<path d="M 1921,-215 l -56,97 l 112,0 l -56,-97 Z" fill="rgb(118, 254, 16)" stroke="rgb(118, 254, 16)" stroke-width="50" stroke-linejoin="round"/>
<path d="M 2006,-215 l 112,0 l -56,97 l -56,-97 Z" fill="rgb(33, 133, 127)" stroke="rgb(33, 133, 127)" stroke-width="50" stroke-linejoin="round"/>
<path d="M 2203,-215 l -56,97 l 112,0 l -56,-97 Z" fill="rgb(33, 133, 127)" stroke="rgb(33, 133, 127)" stroke-width="50" stroke-linejoin="round"/>
<path d="M 2288,-215 l 112,0 l -56,97 l -56,-97 Z" fill="rgb(139, 153, 138)" stroke="rgb(139, 153, 138)" stroke-width="50" stroke-linejoin="round"/>
<path d="M 2485,-215 l -56,97 l 112,0 l -56,-97 Z" fill="rgb(139, 153, 138)" stroke="rgb(139, 153, 138)" stroke-width="50" stroke-linejoin="round"/>
<path d="M 2570,-215 l 112,0 l -56,97 l -56,-97 Z" fill="rgb(207, 70, 67)" stroke="rgb(207, 70, 67)" stroke-width="50" stroke-linejoin="round"/>
<path d="M 89,30 l -56,97 l 112,0 l -56,-97 Z" fill="rgb(207, 70, 67)" stroke="rgb(207, 70, 67)" stroke-width="50" stroke-linejoin="round"/>
<path d="M 174,30 l 112,0 l -56,97 l -56,-97 Z" fill="rgb(23, 117, 253)" stroke="rgb(23, 117, 253)" stroke-width="50" stroke-linejoin="round"/>
<path d="M 371,30 l -56,97 l 112,0 l -56,-97 Z" fill="rgb(23, 117, 253)" stroke="rgb(23, 117, 253)" stroke-width="50" stroke-linejoin="round"/>
<path d="M 456,30 l 112,0 l -56,97 l -56,-97 Z" fill="rgb(14, 66, 23)" stroke="rgb(14, 66, 23)" stroke-width="50" stroke-linejoin="round"/>
<path d="M 653,30 l -56,97 l 112,0 l -56,-97 Z" fill="rgb(14, 66, 23)" stroke="rgb(14, 66, 23)" stroke-width="50" stroke-linejoin="round"/>
<path d="M 738,30 l 112,0 l -56,97 l -56,-97 Z" fill="rgb(201, 192, 242)" stroke="rgb(201, 192, 242)" stroke-width="50" stroke-linejoin="round"/>
<path d="M 935,30 l -56,97 l 112,0 l -56,-97 Z" fill="rgb(201, 192, 242)" stroke="rgb(201, 192, 242)" stroke-width="50" stroke-linejoin="round"/>
<path d="M 1020,30 l 112,0 l -56,97 l -56,-97 Z" fill="rgb(47, 156, 159)" stroke="rgb(47, 156, 159)" stroke-width="50" stroke-linejoin="round"/>
<path d="M 1217,30 l -56,97 l 112,0 l -56,-97 Z" fill="rgb(47, 156, 159)" stroke="rgb(47, 156, 159)" stroke-width="50" stroke-linejoin="round"/>
<path d="M 1302,30 l 112,0 l -56,97 l -56,-97 Z" fill="rgb(82, 190, 254)" stroke="rgb(82, 190, 254)" stroke-width="50" stroke-linejoin="round"/>
<path d="M 1499,30 l -56,97 l 112,0 l -56,-97 Z" fill="rgb(82, 190, 254)" stroke="rgb(82, 190, 254)" stroke-width="50" stroke-linejoin="round"/>
<path d="M 1584,30 l 112,0 l -56,97 l -56,-97 Z" fill="rgb(14, 100, 142)" stroke="rgb(14, 100, 142)" stroke-width="50" stroke-linejoin="round"/>
<path d="M 1781,30 l -56,97 l 112,0 l -56,-97 Z" fill="rgb(14, 100, 142)" stroke="rgb(14, 100, 142)" stroke-width="50" stroke-linejoin="round"/>
<path d="M 1866,30 l 112,0 l -56,97 l -56,-97 Z" fill="rgb(234, 110, 196)" stroke="rgb(234, 110, 196)" stroke-width="50" stroke-linejoin="round"/>
<path d="M 2063,30 l -56,97 l 112,0 l -56,-97 Z" fill="rgb(234, 110, 196)" stroke="rgb(234, 110, 196)" stroke-width="50" stroke-linejoin="round"/>
<path d="M 2148,30 l 112,0 l -56,97 l -56,-97 Z" fill="rgb(119, 112, 174)" stroke="rgb(119, 112, 174)" stroke-width="50" stroke-linejoin="round"/>
<path d="M 2345,30 l -56,97 l 112,0 l -56,-97 Z" fill="rgb(119, 112, 174)" stroke="rgb(119, 112, 174)" stroke-width="50" stroke-linejoin="round"/>
<path d="M 2430,30 l 112,0 l -56,97 l -56,-97 Z" fill="rgb(173, 207, 109)" stroke="rgb(173, 207, 109)" stroke-width="50" stroke-linejoin="round"/>
<path d="M 2627,30 l -56,97 l 112,0 l -56,-97 Z" fill="rgb(173, 207, 109)" stroke="rgb(173, 207, 109)" stroke-width="50" stroke-linejoin="round"/>
<path d="M 2712,30 l 112,0 l -56,97 l -56,-97 Z" fill="rgb(253, 168, 84)" stroke="rgb(253, 168, 84)" stroke-width="50" stroke-linejoin="round"/>
<path d="M -53,275 l -56,97 l 112,0 l -56,-97 Z" fill="rgb(253, 168, 84)" stroke="rgb(253, 168, 84)" stroke-width="50" stroke-linejoin="round"/>
<path d="M 32,275 l 112,0 l -56,97 l -56,-97 Z" fill="rgb(54, 29, 242)" stroke="rgb(54, 29, 242)" stroke-width="50" stroke-linejoin="round"/>
<path d="M 229,275 l -56,97 l 112,0 l -56,-97 Z" fill="rgb(54, 29, 242)" stroke="rgb(54, 29, 242)" stroke-width="50" stroke-linejoin="round"/>
<path d="M 314,275 l 112,0 l -56,97 l -56,-97 Z" fill="rgb(109, 105, 85)" stroke="rgb(109, 105, 85)" stroke-width="50" stroke-linejoin="round"/>
<path d="M 511,275 l -56,97 l 112,0 l -56,-97 Z" fill="rgb(109, 105, 85)" stroke="rgb(109, 105, 85)" stroke-width="50" stroke-linejoin="round"/>
<path d="M 596,275 l 112,0 l -56,97 l -56,-97 Z" fill="rgb(104, 9, 61)" stroke="rgb(104, 9, 61)" stroke-width="50" stroke-linejoin="round"/>
<path d="M 793,275 l -56,97 l 112,0 l -56,-97 Z" fill="rgb(104, 9, 61)" stroke="rgb(104, 9, 61)" stroke-width="50" stroke-linejoin="round"/>
<path d="M 878,275 l 112,0 l -56,97 l -56,-97 Z" fill="rgb(11, 220, 128)" stroke="rgb(11, 220, 128)" stroke-width="50" stroke-linejoin="round"/>
<path d="M 1075,275 l -56,97 l 112,0 l -56,-97 Z" fill="rgb(11, 220, 128)" stroke="rgb(11, 220, 128)" stroke-width="50" stroke-linejoin="round"/>
<path d="M 1160,275 l 112,0 l -56,97 l -56,-97 Z" fill="rgb(153, 66, 127)" stroke="rgb(153, 66, 127)" stroke-width="50" stroke-linejoin="round"/>
<path d="M 1357,275 l -56,97 l 112,0 l -56,-97 Z" fill="rgb(153, 66, 127)" stroke="rgb(153, 66, 127)" stroke-width="50" stroke-linejoin="round"/>
<path d="M 1442,275 l 112,0 l -56,97 l -56,-97 Z" fill="rgb(138, 216, 60)" stroke="rgb(138, 216, 60)" stroke-width="50" stroke-linejoin="round"/>
<path d="M 1639,275 l -56,97 l 112,0 l -56,-97 Z" fill="rgb(138, 216, 60)" stroke="rgb(138, 216, 60)" stroke-width="50" stroke-linejoin="round"/>
<path d="M 1724,275 l 112,0 l -56,97 l -56,-97 Z" fill="rgb(172, 80, 84)" stroke="rgb(172, 80, 84)" stroke-width="50" stroke-linejoin="round"/>
<path d="M 1921,275 l -56,97 l 112,0 l -56,-97 Z" fill="rgb(172, 80, 84)" stroke="rgb(172, 80, 84)" stroke-width="50" stroke-linejoin="round"/>
<path d="M 2006,275 l 112,0 l -56,97 l -56,-97 Z" fill="rgb(113, 110, 166)" stroke="rgb(113, 110, 166)" stroke-width="50" stroke-linejoin="round"/>
<path d="M 2203,275 l -56,97 l 112,0 l -56,-97 Z" fill="rgb(113, 110, 166)" stroke="rgb(113, 110, 166)" stroke-width="50" stroke-linejoin="round"/>
<path d="M 2288,275 l 112,0 l -56,97 l -56,-97 Z" fill="rgb(219, 42, 149)" stroke="rgb(219, 42, 149)" stroke-width="50" stroke-linejoin="round"/>
<path d="M 2485,275 l -56,97 l 112,0 l -56,-97 Z" fill="rgb(219, 42, 149)" stroke="rgb(219, 42, 149)" stroke-width="50" stroke-linejoin="round"/>
<path d="M 2570,275 l 112,0 l -56,97 l -56,-97 Z" fill="rgb(52, 135, 229)" stroke="rgb(52, 135, 229)" stroke-width="50" stroke-linejoin="round"/>
<path d="M 89,520 l -56,97 l 112,0 l -56,-97 Z" fill="rgb(52, 135, 229)" stroke="rgb(52, 135, 229)" stroke-width="50" stroke-linejoin="round"/>
<path d="M 174,520 l 112,0 l -56,97 l -56,-97 Z" fill="rgb(152, 215, 107)" stroke="rgb(152, 215, 107)" stroke-width="50" stroke-linejoin="round"/>
<path d="M 371,520 l -56,97 l 112,0 l -56,-97 Z" fill="rgb(152, 215, 107)" stroke="rgb(152, 215, 107)" stroke-width="50" stroke-linejoin="round"/>
<path d="M 456,520 l 112,0 l -56,97 l -56,-97 Z" fill="rgb(153, 134, 166)" stroke="rgb(153, 134, 166)" stroke-width="50" stroke-linejoin="round"/>
<path d="M 653,520 l -56,97 l 112,0 l -56,-97 Z" fill="rgb(153, 134, 166)" stroke="rgb(153, 134, 166)" stroke-width="50" stroke-linejoin="round"/>
<path d="M 738,520 l 112,0 l -56,97 l -56,-97 Z" fill="rgb(174, 72, 7)" stroke="rgb(174, 72, 7)" stroke-width="50" stroke-linejoin="round"/>
<path d="M 935,520 l -56,97 l 112,0 l -56,-97 Z" fill="rgb(174, 72, 7)" stroke="rgb(174, 72, 7)" stroke-width="50" stroke-linejoin="round"/>
<path d="M 1020,520 l 112,0 l -56,97 l -56,-97 Z" fill="rgb(152, 130, 122)" stroke="rgb(152, 130, 122)" stroke-width="50" stroke-linejoin="round"/>
<path d="M 1217,520 l -56,97 l 112,0 l -56,-97 Z" fill="rgb(152, 130, 122)" stroke="rgb(152, 130, 122)" stroke-width="50" stroke-linejoin="round"/>
<path d="M 1302,520 l 112,0 l -56,97 l -56,-97 Z" fill="rgb(41, 179, 57)" stroke="rgb(41, 179, 57)" stroke-width="50" stroke-linejoin="round"/>
<path d="M 1499,520 l -56,97 l 112,0 l -56,-97 Z" fill="rgb(41, 179, 57)" stroke="rgb(41, 179, 57)" stroke-width="50" stroke-linejoin="round"/>
<path d="M 1584,520 l 112,0 l -56,97 l -56,-97 Z" fill="rgb(110, 100, 132)" stroke="rgb(110, 100, 132)" stroke-width="50" stroke-linejoin="round"/>
<path d="M 1781,520 l -56,97 l 112,0 l -56,-97 Z" fill="rgb(110, 100, 132)" stroke="rgb(110, 100, 132)" stroke-width="50" stroke-linejoin="round"/>
<path d="M 1866,520 l 112,0 l -56,97 l -56,-97 Z" fill="rgb(37, 47, 59)" stroke="rgb(37, 47, 59)" stroke-width="50" stroke-linejoin="round"/>
<path d="M 2063,520 l -56,97 l 112,0 l -56,-97 Z" fill="rgb(37, 47, 59)" stroke="rgb(37, 47, 59)" stroke-width="50" stroke-linejoin="round"/>
<path d="M 2148,520 l 112,0 l -56,97 l -56,-97 Z" fill="rgb(11, 70, 72)" stroke="rgb(11, 70, 72)" stroke-width="50" stroke-linejoin="round"/>
<path d="M 2345,520 l -56,97 l 112,0 l -56,-97 Z" fill="rgb(11, 70, 72)" stroke="rgb(11, 70, 72)" stroke-width="50" stroke-linejoin="round"/>
<path d="M 2430,520 l 112,0 l -56,97 l -56,-97 Z" fill="rgb(16, 95, 121)" stroke="rgb(16, 95, 121)" stroke-width="50" stroke-linejoin="round"/>
<path d="M 2627,520 l -56,97 l 112,0 l -56,-97 Z" fill="rgb(16, 95, 121)" stroke="rgb(16, 95, 121)" stroke-width="50" stroke-linejoin="round"/>
<path d="M 2712,520 l 112,0 l -56,97 l -56,-97 Z" fill="rgb(93, 108, 179)" stroke="rgb(93, 108, 179)" stroke-width="50" stroke-linejoin="round"/>
<path d="M -53,765 l -56,97 l 112,0 l -56,-97 Z" fill="rgb(93, 108, 179)" stroke="rgb(93, 108, 179)" stroke-width="50" stroke-linejoin="round"/>
<path d="M 32,765 l 112,0 l -56,97 l -56,-97 Z" fill="rgb(204, 246, 101)" stroke="rgb(204, 246, 101)" stroke-width="50" stroke-linejoin="round"/>
<path d="M 229,765 l -56,97 l 112,0 l -56,-97 Z" fill="rgb(204, 246, 101)" stroke="rgb(204, 246, 101)" stroke-width="50" stroke-linejoin="round"/>
<path d="M 314,765 l 112,0 l -56,97 l -56,-97 Z" fill="rgb(136, 75, 25)" stroke="rgb(136, 75, 25)" stroke-width="50" stroke-linejoin="round"/>
<path d="M 511,765 l -56,97 l 112,0 l -56,-97 Z" fill="rgb(136, 75, 25)" stroke="rgb(136, 75, 25)" stroke-width="50" stroke-linejoin="round"/>
<path d="M 596,765 l 112,0 l -56,97 l -56,-97 Z" fill="rgb(122, 68, 28)" stroke="rgb(122, 68, 28)" stroke-width="50" stroke-linejoin="round"/>
<path d="M 793,765 l -56,97 l 112,0 l -56,-97 Z" fill="rgb(122, 68, 28)" stroke="rgb(122, 68, 28)" stroke-width="50" stroke-linejoin="round"/>
<path d="M 878,765 l 112,0 l -56,97 l -56,-97 Z" fill="rgb(219, 97, 242)" stroke="rgb(219, 97, 242)" stroke-width="50" stroke-linejoin="round"/>
<path d="M 1075,765 l -56,97 l 112,0 l -56,-97 Z" fill="rgb(219, 97, 242)" stroke="rgb(219, 97, 242)" stroke-width="50" stroke-linejoin="round"/>
<path d="M 1160,765 l 112,0 l -56,97 l -56,-97 Z" fill="rgb(212, 137, 40)" stroke="rgb(212, 137, 40)" stroke-width="50" stroke-linejoin="round"/>
<path d="M 1357,765 l -56,97 l 112,0 l -56,-97 Z" fill="rgb(212, 137, 40)" stroke="rgb(212, 137, 40)" stroke-width="50" stroke-linejoin="round"/>
<path d="M 1442,765 l 112,0 l -56,97 l -56,-97 Z" fill="rgb(192, 48, 228)" stroke="rgb(192, 48, 228)" stroke-width="50" stroke-linejoin="round"/>
<path d="M 1639,765 l -56,97 l 112,0 l -56,-97 Z" fill="rgb(192, 48, 228)" stroke="rgb(192, 48, 228)" stroke-width="50" stroke-linejoin="round"/>
<path d="M 1724,765 l 112,0 l -56,97 l -56,-97 Z" fill="rgb(236, 244, 35)" stroke="rgb(236, 244, 35)" stroke-width="50" stroke-linejoin="round"/>
<path d="M 1921,765 l -56,97 l 112,0 l -56,-97 Z" fill="rgb(236, 244, 35)" stroke="rgb(236, 244, 35)" stroke-width="50" stroke-linejoin="round"/>
<path d="M 2006,765 l 112,0 l -56,97 l -56,-97 Z" fill="rgb(204, 95, 107)" stroke="rgb(204, 95, 107)" stroke-width="50" stroke-linejoin="round"/>
<path d="M 2203,765 l -56,97 l 112,0 l -56,-97 Z" fill="rgb(204, 95, 107)" stroke="rgb(204, 95, 107)" stroke-width="50" stroke-linejoin="round"/>
<path d="M 2288,765 l 112,0 l -56,97 l -56,-97 Z" fill="rgb(223, 251, 133)" stroke="rgb(223, 251, 133)" stroke-width="50" stroke-linejoin="round"/>
<path d="M 2485,765 l -56,97 l 112,0 l -56,-97 Z" fill="rgb(223, 251, 133)" stroke="rgb(223, 251, 133)" stroke-width="50" stroke-linejoin="round"/>
<path d="M 2570,765 l 112,0 l -56,97 l -56,-97 Z" fill="rgb(144, 116, 144)" stroke="rgb(144, 116, 144)" stroke-width="50" stroke-linejoin="round"/>
</g>

</svg>