<!-- <svg width="100%" height="100%" viewBox="0 0 100 100" xmlns="http://www.w3.org/2000/svg" transform = "rotate(30 0 0)"> -->
<svg width="100%" height="100%" viewBox="0 0 100 100" xmlns="http://www.w3.org/2000/svg" transform="rotate(30 0 0)">

<path d="M 0,1 l 8,0 l -4,7 l -4,-7 Z" fill="black" />
<path d="M 6,8 l 8,0 l -4,-7 l -4,7 Z" fill="black" />
<path d="M 12,1 l 8,0 l -4,7 l -4,-7 Z" fill="black" />
<path d="M 18,8 l 8,0 l -4,-7 l -4,7 Z" fill="black" />
<path d="M 24,1 l 8,0 l -4,7 l -4,-7 Z" fill="black" />
<path d="M 30,8 l 8,0 l -4,-7 l -4,7 Z" fill="black" />
<path d="M 36,1 l 8,0 l -4,7 l -4,-7 Z" fill="black" />
<path d="M 42,8 l 8,0 l -4,-7 l -4,7 Z" fill="black" />
<path d="M 48,1 l 8,0 l -4,7 l -4,-7 Z" fill="black" />

<path d="M  6,11 l 8,0 l -4,7 l -4,-7 Z" fill="black" />
<path d="M 12,18 l 8,0 l -4,-7 l -4,7 Z" fill="black" />
<path d="M 18,11 l 8,0 l -4,7 l -4,-7 Z" fill="black" />
<path d="M 24,18 l 8,0 l -4,-7 l -4,7 Z" fill="black" />
<path d="M 30,11 l 8,0 l -4,7 l -4,-7 Z" fill="black" />
<path d="M 36,18 l 8,0 l -4,-7 l -4,7 Z" fill="black" />
<path d="M 42,11 l 8,0 l -4,7 l -4,-7 Z" fill="black" />
<path d="M 48,18 l 8,0 l -4,-7 l -4,7 Z" fill="black" />
<path d="M 54,11 l 8,0 l -4,7 l -4,-7 Z" fill="black" />

 </svg>
