<!-- <svg width="100%" height="100%" viewBox="0 0 100 100" xmlns="http://www.w3.org/2000/svg" transform = "rotate(30 0 0)"> -->
<svg width="100%" height="100%" viewBox="0 0 1000 1000" xmlns="http://www.w3.org/2000/svg" transform="rotate(0 0 0 )">

<path d="M 0,10 l 112,0 l -56,97 l -56,-97 Z" fill="rgb(0, 0, 0)" stroke="black" stroke-width="20" stroke-linecap="round"  stroke-linejoin="round"/>
<path d="M 150,10 l -56,97 l 112,0 l -56,-97 Z" fill="rgb(0, 0, 0)" stroke="black" stroke-width="20" stroke-linecap="round"  stroke-linejoin="round"/>
<path d="M 188,10 l 112,0 l -56,97 l -56,-97 Z" fill="rgb(0, 0, 0)" stroke="black" stroke-width="20" stroke-linecap="round"  stroke-linejoin="round"/>
<path d="M 338,10 l -56,97 l 112,0 l -56,-97 Z" fill="rgb(0, 0, 0)" stroke="black" stroke-width="20" stroke-linecap="round"  stroke-linejoin="round"/>
<path d="M 376,10 l 112,0 l -56,97 l -56,-97 Z" fill="rgb(0, 0, 0)" stroke="black" stroke-width="20" stroke-linecap="round"  stroke-linejoin="round"/>
<path d="M 526,10 l -56,97 l 112,0 l -56,-97 Z" fill="rgb(0, 0, 0)" stroke="black" stroke-width="20" stroke-linecap="round"  stroke-linejoin="round"/>

<path d="M 0,335 l 112,0 l -56,97 l -56,-97 Z" fill="rgb(0, 0, 0)" stroke="black" stroke-width="20" stroke-linecap="round"  stroke-linejoin="round"/>
<path d="M 150,335 l -56,97 l 112,0 l -56,-97 Z" fill="rgb(0, 0, 0)" stroke="black" stroke-width="20" stroke-linecap="round"  stroke-linejoin="round"/>
<path d="M 188,335 l 112,0 l -56,97 l -56,-97 Z" fill="rgb(0, 0, 0)" stroke="black" stroke-width="20" stroke-linecap="round"  stroke-linejoin="round"/>
<path d="M 338,335 l -56,97 l 112,0 l -56,-97 Z" fill="rgb(0, 0, 0)" stroke="black" stroke-width="20" stroke-linecap="round"  stroke-linejoin="round"/>
<path d="M 376,335 l 112,0 l -56,97 l -56,-97 Z" fill="rgb(0, 0, 0)" stroke="black" stroke-width="20" stroke-linecap="round"  stroke-linejoin="round"/>
<path d="M 526,335 l -56,97 l 112,0 l -56,-97 Z" fill="rgb(0, 0, 0)" stroke="black" stroke-width="20" stroke-linecap="round"  stroke-linejoin="round"/>
 </svg>
