<?xml version="1.0" standalone="no"?>
<!DOCTYPE svg PUBLIC "-//W3C//DTD SVG 1.1//EN" "http://www.w3.org/Graphics/SVG/1.1/DTD/svg11.dtd">

<svg width="750" height="1000" style="background:#fff" 
  xmlns="http://www.w3.org/2000/svg"
  xmlns:xlink="http://www.w3.org/1999/xlink">

<style type="text/css">
<![CDATA[

]]>
</style>

<g transform="rotate(30 0 0)">
<path d="M -53,-705 l -56,97 l 112,0 l -56,-97 Z" fill="" stroke="" stroke-width="50" stroke-linejoin="round"/>
<path d="M 32,-705 l 112,0 l -56,97 l -56,-97 Z" fill="rgb(71, 96, 156)" stroke="rgb(71, 96, 156)" stroke-width="50" stroke-linejoin="round"/>
<path d="M 229,-705 l -56,97 l 112,0 l -56,-97 Z" fill="rgb(71, 96, 156)" stroke="rgb(71, 96, 156)" stroke-width="50" stroke-linejoin="round"/>
<path d="M 314,-705 l 112,0 l -56,97 l -56,-97 Z" fill="rgb(48, 38, 185)" stroke="rgb(48, 38, 185)" stroke-width="50" stroke-linejoin="round"/>
<path d="M 511,-705 l -56,97 l 112,0 l -56,-97 Z" fill="rgb(48, 38, 185)" stroke="rgb(48, 38, 185)" stroke-width="50" stroke-linejoin="round"/>
<path d="M 596,-705 l 112,0 l -56,97 l -56,-97 Z" fill="rgb(62, 10, 120)" stroke="rgb(62, 10, 120)" stroke-width="50" stroke-linejoin="round"/>
<path d="M 793,-705 l -56,97 l 112,0 l -56,-97 Z" fill="rgb(62, 10, 120)" stroke="rgb(62, 10, 120)" stroke-width="50" stroke-linejoin="round"/>
<path d="M 878,-705 l 112,0 l -56,97 l -56,-97 Z" fill="rgb(238, 48, 208)" stroke="rgb(238, 48, 208)" stroke-width="50" stroke-linejoin="round"/>
<path d="M 1075,-705 l -56,97 l 112,0 l -56,-97 Z" fill="rgb(238, 48, 208)" stroke="rgb(238, 48, 208)" stroke-width="50" stroke-linejoin="round"/>
<path d="M 1160,-705 l 112,0 l -56,97 l -56,-97 Z" fill="rgb(60, 74, 239)" stroke="rgb(60, 74, 239)" stroke-width="50" stroke-linejoin="round"/>
<path d="M 1357,-705 l -56,97 l 112,0 l -56,-97 Z" fill="rgb(60, 74, 239)" stroke="rgb(60, 74, 239)" stroke-width="50" stroke-linejoin="round"/>
<path d="M 1442,-705 l 112,0 l -56,97 l -56,-97 Z" fill="rgb(35, 107, 222)" stroke="rgb(35, 107, 222)" stroke-width="50" stroke-linejoin="round"/>
<path d="M 1639,-705 l -56,97 l 112,0 l -56,-97 Z" fill="rgb(35, 107, 222)" stroke="rgb(35, 107, 222)" stroke-width="50" stroke-linejoin="round"/>
<path d="M 1724,-705 l 112,0 l -56,97 l -56,-97 Z" fill="rgb(42, 241, 241)" stroke="rgb(42, 241, 241)" stroke-width="50" stroke-linejoin="round"/>
<path d="M 1921,-705 l -56,97 l 112,0 l -56,-97 Z" fill="rgb(42, 241, 241)" stroke="rgb(42, 241, 241)" stroke-width="50" stroke-linejoin="round"/>
<path d="M 2006,-705 l 112,0 l -56,97 l -56,-97 Z" fill="rgb(43, 9, 14)" stroke="rgb(43, 9, 14)" stroke-width="50" stroke-linejoin="round"/>
<path d="M 2203,-705 l -56,97 l 112,0 l -56,-97 Z" fill="rgb(43, 9, 14)" stroke="rgb(43, 9, 14)" stroke-width="50" stroke-linejoin="round"/>
<path d="M 2288,-705 l 112,0 l -56,97 l -56,-97 Z" fill="rgb(138, 172, 54)" stroke="rgb(138, 172, 54)" stroke-width="50" stroke-linejoin="round"/>
<path d="M 2485,-705 l -56,97 l 112,0 l -56,-97 Z" fill="rgb(138, 172, 54)" stroke="rgb(138, 172, 54)" stroke-width="50" stroke-linejoin="round"/>
<path d="M 2570,-705 l 112,0 l -56,97 l -56,-97 Z" fill="rgb(81, 111, 105)" stroke="rgb(81, 111, 105)" stroke-width="50" stroke-linejoin="round"/>
<path d="M 89,-460 l -56,97 l 112,0 l -56,-97 Z" fill="rgb(81, 111, 105)" stroke="rgb(81, 111, 105)" stroke-width="50" stroke-linejoin="round"/>
<path d="M 174,-460 l 112,0 l -56,97 l -56,-97 Z" fill="rgb(59, 175, 69)" stroke="rgb(59, 175, 69)" stroke-width="50" stroke-linejoin="round"/>
<path d="M 371,-460 l -56,97 l 112,0 l -56,-97 Z" fill="rgb(59, 175, 69)" stroke="rgb(59, 175, 69)" stroke-width="50" stroke-linejoin="round"/>
<path d="M 456,-460 l 112,0 l -56,97 l -56,-97 Z" fill="rgb(80, 46, 6)" stroke="rgb(80, 46, 6)" stroke-width="50" stroke-linejoin="round"/>
<path d="M 653,-460 l -56,97 l 112,0 l -56,-97 Z" fill="rgb(80, 46, 6)" stroke="rgb(80, 46, 6)" stroke-width="50" stroke-linejoin="round"/>
<path d="M 738,-460 l 112,0 l -56,97 l -56,-97 Z" fill="rgb(114, 243, 13)" stroke="rgb(114, 243, 13)" stroke-width="50" stroke-linejoin="round"/>
<path d="M 935,-460 l -56,97 l 112,0 l -56,-97 Z" fill="rgb(114, 243, 13)" stroke="rgb(114, 243, 13)" stroke-width="50" stroke-linejoin="round"/>
<path d="M 1020,-460 l 112,0 l -56,97 l -56,-97 Z" fill="rgb(134, 166, 254)" stroke="rgb(134, 166, 254)" stroke-width="50" stroke-linejoin="round"/>
<path d="M 1217,-460 l -56,97 l 112,0 l -56,-97 Z" fill="rgb(134, 166, 254)" stroke="rgb(134, 166, 254)" stroke-width="50" stroke-linejoin="round"/>
<path d="M 1302,-460 l 112,0 l -56,97 l -56,-97 Z" fill="rgb(85, 157, 242)" stroke="rgb(85, 157, 242)" stroke-width="50" stroke-linejoin="round"/>
<path d="M 1499,-460 l -56,97 l 112,0 l -56,-97 Z" fill="rgb(85, 157, 242)" stroke="rgb(85, 157, 242)" stroke-width="50" stroke-linejoin="round"/>
<path d="M 1584,-460 l 112,0 l -56,97 l -56,-97 Z" fill="rgb(139, 75, 122)" stroke="rgb(139, 75, 122)" stroke-width="50" stroke-linejoin="round"/>
<path d="M 1781,-460 l -56,97 l 112,0 l -56,-97 Z" fill="rgb(139, 75, 122)" stroke="rgb(139, 75, 122)" stroke-width="50" stroke-linejoin="round"/>
<path d="M 1866,-460 l 112,0 l -56,97 l -56,-97 Z" fill="rgb(161, 89, 91)" stroke="rgb(161, 89, 91)" stroke-width="50" stroke-linejoin="round"/>
<path d="M 2063,-460 l -56,97 l 112,0 l -56,-97 Z" fill="rgb(161, 89, 91)" stroke="rgb(161, 89, 91)" stroke-width="50" stroke-linejoin="round"/>
<path d="M 2148,-460 l 112,0 l -56,97 l -56,-97 Z" fill="rgb(10, 79, 177)" stroke="rgb(10, 79, 177)" stroke-width="50" stroke-linejoin="round"/>
<path d="M 2345,-460 l -56,97 l 112,0 l -56,-97 Z" fill="rgb(10, 79, 177)" stroke="rgb(10, 79, 177)" stroke-width="50" stroke-linejoin="round"/>
<path d="M 2430,-460 l 112,0 l -56,97 l -56,-97 Z" fill="rgb(33, 191, 39)" stroke="rgb(33, 191, 39)" stroke-width="50" stroke-linejoin="round"/>
<path d="M 2627,-460 l -56,97 l 112,0 l -56,-97 Z" fill="rgb(33, 191, 39)" stroke="rgb(33, 191, 39)" stroke-width="50" stroke-linejoin="round"/>
<path d="M 2712,-460 l 112,0 l -56,97 l -56,-97 Z" fill="rgb(251, 181, 38)" stroke="rgb(251, 181, 38)" stroke-width="50" stroke-linejoin="round"/>
<path d="M -53,-215 l -56,97 l 112,0 l -56,-97 Z" fill="rgb(251, 181, 38)" stroke="rgb(251, 181, 38)" stroke-width="50" stroke-linejoin="round"/>
<path d="M 32,-215 l 112,0 l -56,97 l -56,-97 Z" fill="rgb(52, 191, 109)" stroke="rgb(52, 191, 109)" stroke-width="50" stroke-linejoin="round"/>
<path d="M 229,-215 l -56,97 l 112,0 l -56,-97 Z" fill="rgb(52, 191, 109)" stroke="rgb(52, 191, 109)" stroke-width="50" stroke-linejoin="round"/>
<path d="M 314,-215 l 112,0 l -56,97 l -56,-97 Z" fill="rgb(98, 148, 22)" stroke="rgb(98, 148, 22)" stroke-width="50" stroke-linejoin="round"/>
<path d="M 511,-215 l -56,97 l 112,0 l -56,-97 Z" fill="rgb(98, 148, 22)" stroke="rgb(98, 148, 22)" stroke-width="50" stroke-linejoin="round"/>
<path d="M 596,-215 l 112,0 l -56,97 l -56,-97 Z" fill="rgb(62, 59, 30)" stroke="rgb(62, 59, 30)" stroke-width="50" stroke-linejoin="round"/>
<path d="M 793,-215 l -56,97 l 112,0 l -56,-97 Z" fill="rgb(62, 59, 30)" stroke="rgb(62, 59, 30)" stroke-width="50" stroke-linejoin="round"/>
<path d="M 878,-215 l 112,0 l -56,97 l -56,-97 Z" fill="rgb(234, 142, 0)" stroke="rgb(234, 142, 0)" stroke-width="50" stroke-linejoin="round"/>
<path d="M 1075,-215 l -56,97 l 112,0 l -56,-97 Z" fill="rgb(234, 142, 0)" stroke="rgb(234, 142, 0)" stroke-width="50" stroke-linejoin="round"/>
<path d="M 1160,-215 l 112,0 l -56,97 l -56,-97 Z" fill="rgb(218, 48, 177)" stroke="rgb(218, 48, 177)" stroke-width="50" stroke-linejoin="round"/>
<path d="M 1357,-215 l -56,97 l 112,0 l -56,-97 Z" fill="rgb(218, 48, 177)" stroke="rgb(218, 48, 177)" stroke-width="50" stroke-linejoin="round"/>
<path d="M 1442,-215 l 112,0 l -56,97 l -56,-97 Z" fill="rgb(4, 52, 48)" stroke="rgb(4, 52, 48)" stroke-width="50" stroke-linejoin="round"/>
<path d="M 1639,-215 l -56,97 l 112,0 l -56,-97 Z" fill="rgb(4, 52, 48)" stroke="rgb(4, 52, 48)" stroke-width="50" stroke-linejoin="round"/>
<path d="M 1724,-215 l 112,0 l -56,97 l -56,-97 Z" fill="rgb(19, 119, 144)" stroke="rgb(19, 119, 144)" stroke-width="50" stroke-linejoin="round"/>
<path d="M 1921,-215 l -56,97 l 112,0 l -56,-97 Z" fill="rgb(19, 119, 144)" stroke="rgb(19, 119, 144)" stroke-width="50" stroke-linejoin="round"/>
<path d="M 2006,-215 l 112,0 l -56,97 l -56,-97 Z" fill="rgb(216, 69, 216)" stroke="rgb(216, 69, 216)" stroke-width="50" stroke-linejoin="round"/>
<path d="M 2203,-215 l -56,97 l 112,0 l -56,-97 Z" fill="rgb(216, 69, 216)" stroke="rgb(216, 69, 216)" stroke-width="50" stroke-linejoin="round"/>
<path d="M 2288,-215 l 112,0 l -56,97 l -56,-97 Z" fill="rgb(106, 40, 38)" stroke="rgb(106, 40, 38)" stroke-width="50" stroke-linejoin="round"/>
<path d="M 2485,-215 l -56,97 l 112,0 l -56,-97 Z" fill="rgb(106, 40, 38)" stroke="rgb(106, 40, 38)" stroke-width="50" stroke-linejoin="round"/>
<path d="M 2570,-215 l 112,0 l -56,97 l -56,-97 Z" fill="rgb(62, 228, 38)" stroke="rgb(62, 228, 38)" stroke-width="50" stroke-linejoin="round"/>
<path d="M 89,30 l -56,97 l 112,0 l -56,-97 Z" fill="rgb(62, 228, 38)" stroke="rgb(62, 228, 38)" stroke-width="50" stroke-linejoin="round"/>
<path d="M 174,30 l 112,0 l -56,97 l -56,-97 Z" fill="rgb(142, 195, 233)" stroke="rgb(142, 195, 233)" stroke-width="50" stroke-linejoin="round"/>
<path d="M 371,30 l -56,97 l 112,0 l -56,-97 Z" fill="rgb(142, 195, 233)" stroke="rgb(142, 195, 233)" stroke-width="50" stroke-linejoin="round"/>
<path d="M 456,30 l 112,0 l -56,97 l -56,-97 Z" fill="rgb(101, 205, 225)" stroke="rgb(101, 205, 225)" stroke-width="50" stroke-linejoin="round"/>
<path d="M 653,30 l -56,97 l 112,0 l -56,-97 Z" fill="rgb(101, 205, 225)" stroke="rgb(101, 205, 225)" stroke-width="50" stroke-linejoin="round"/>
<path d="M 738,30 l 112,0 l -56,97 l -56,-97 Z" fill="rgb(242, 96, 19)" stroke="rgb(242, 96, 19)" stroke-width="50" stroke-linejoin="round"/>
<path d="M 935,30 l -56,97 l 112,0 l -56,-97 Z" fill="rgb(242, 96, 19)" stroke="rgb(242, 96, 19)" stroke-width="50" stroke-linejoin="round"/>
<path d="M 1020,30 l 112,0 l -56,97 l -56,-97 Z" fill="rgb(23, 23, 14)" stroke="rgb(23, 23, 14)" stroke-width="50" stroke-linejoin="round"/>
<path d="M 1217,30 l -56,97 l 112,0 l -56,-97 Z" fill="rgb(23, 23, 14)" stroke="rgb(23, 23, 14)" stroke-width="50" stroke-linejoin="round"/>
<path d="M 1302,30 l 112,0 l -56,97 l -56,-97 Z" fill="rgb(212, 66, 111)" stroke="rgb(212, 66, 111)" stroke-width="50" stroke-linejoin="round"/>
<path d="M 1499,30 l -56,97 l 112,0 l -56,-97 Z" fill="rgb(212, 66, 111)" stroke="rgb(212, 66, 111)" stroke-width="50" stroke-linejoin="round"/>
<path d="M 1584,30 l 112,0 l -56,97 l -56,-97 Z" fill="rgb(55, 11, 180)" stroke="rgb(55, 11, 180)" stroke-width="50" stroke-linejoin="round"/>
<path d="M 1781,30 l -56,97 l 112,0 l -56,-97 Z" fill="rgb(55, 11, 180)" stroke="rgb(55, 11, 180)" stroke-width="50" stroke-linejoin="round"/>
<path d="M 1866,30 l 112,0 l -56,97 l -56,-97 Z" fill="rgb(102, 132, 154)" stroke="rgb(102, 132, 154)" stroke-width="50" stroke-linejoin="round"/>
<path d="M 2063,30 l -56,97 l 112,0 l -56,-97 Z" fill="rgb(102, 132, 154)" stroke="rgb(102, 132, 154)" stroke-width="50" stroke-linejoin="round"/>
<path d="M 2148,30 l 112,0 l -56,97 l -56,-97 Z" fill="rgb(160, 75, 125)" stroke="rgb(160, 75, 125)" stroke-width="50" stroke-linejoin="round"/>
<path d="M 2345,30 l -56,97 l 112,0 l -56,-97 Z" fill="rgb(160, 75, 125)" stroke="rgb(160, 75, 125)" stroke-width="50" stroke-linejoin="round"/>
<path d="M 2430,30 l 112,0 l -56,97 l -56,-97 Z" fill="rgb(212, 133, 89)" stroke="rgb(212, 133, 89)" stroke-width="50" stroke-linejoin="round"/>
<path d="M 2627,30 l -56,97 l 112,0 l -56,-97 Z" fill="rgb(212, 133, 89)" stroke="rgb(212, 133, 89)" stroke-width="50" stroke-linejoin="round"/>
<path d="M 2712,30 l 112,0 l -56,97 l -56,-97 Z" fill="rgb(179, 40, 30)" stroke="rgb(179, 40, 30)" stroke-width="50" stroke-linejoin="round"/>
<path d="M -53,275 l -56,97 l 112,0 l -56,-97 Z" fill="rgb(179, 40, 30)" stroke="rgb(179, 40, 30)" stroke-width="50" stroke-linejoin="round"/>
<path d="M 32,275 l 112,0 l -56,97 l -56,-97 Z" fill="rgb(51, 140, 110)" stroke="rgb(51, 140, 110)" stroke-width="50" stroke-linejoin="round"/>
<path d="M 229,275 l -56,97 l 112,0 l -56,-97 Z" fill="rgb(51, 140, 110)" stroke="rgb(51, 140, 110)" stroke-width="50" stroke-linejoin="round"/>
<path d="M 314,275 l 112,0 l -56,97 l -56,-97 Z" fill="rgb(81, 4, 177)" stroke="rgb(81, 4, 177)" stroke-width="50" stroke-linejoin="round"/>
<path d="M 511,275 l -56,97 l 112,0 l -56,-97 Z" fill="rgb(81, 4, 177)" stroke="rgb(81, 4, 177)" stroke-width="50" stroke-linejoin="round"/>
<path d="M 596,275 l 112,0 l -56,97 l -56,-97 Z" fill="rgb(127, 94, 105)" stroke="rgb(127, 94, 105)" stroke-width="50" stroke-linejoin="round"/>
<path d="M 793,275 l -56,97 l 112,0 l -56,-97 Z" fill="rgb(127, 94, 105)" stroke="rgb(127, 94, 105)" stroke-width="50" stroke-linejoin="round"/>
<path d="M 878,275 l 112,0 l -56,97 l -56,-97 Z" fill="rgb(232, 234, 62)" stroke="rgb(232, 234, 62)" stroke-width="50" stroke-linejoin="round"/>
<path d="M 1075,275 l -56,97 l 112,0 l -56,-97 Z" fill="rgb(232, 234, 62)" stroke="rgb(232, 234, 62)" stroke-width="50" stroke-linejoin="round"/>
<path d="M 1160,275 l 112,0 l -56,97 l -56,-97 Z" fill="rgb(181, 97, 201)" stroke="rgb(181, 97, 201)" stroke-width="50" stroke-linejoin="round"/>
<path d="M 1357,275 l -56,97 l 112,0 l -56,-97 Z" fill="rgb(181, 97, 201)" stroke="rgb(181, 97, 201)" stroke-width="50" stroke-linejoin="round"/>
<path d="M 1442,275 l 112,0 l -56,97 l -56,-97 Z" fill="rgb(220, 165, 251)" stroke="rgb(220, 165, 251)" stroke-width="50" stroke-linejoin="round"/>
<path d="M 1639,275 l -56,97 l 112,0 l -56,-97 Z" fill="rgb(220, 165, 251)" stroke="rgb(220, 165, 251)" stroke-width="50" stroke-linejoin="round"/>
<path d="M 1724,275 l 112,0 l -56,97 l -56,-97 Z" fill="rgb(53, 117, 0)" stroke="rgb(53, 117, 0)" stroke-width="50" stroke-linejoin="round"/>
<path d="M 1921,275 l -56,97 l 112,0 l -56,-97 Z" fill="rgb(53, 117, 0)" stroke="rgb(53, 117, 0)" stroke-width="50" stroke-linejoin="round"/>
<path d="M 2006,275 l 112,0 l -56,97 l -56,-97 Z" fill="rgb(234, 36, 162)" stroke="rgb(234, 36, 162)" stroke-width="50" stroke-linejoin="round"/>
<path d="M 2203,275 l -56,97 l 112,0 l -56,-97 Z" fill="rgb(234, 36, 162)" stroke="rgb(234, 36, 162)" stroke-width="50" stroke-linejoin="round"/>
<path d="M 2288,275 l 112,0 l -56,97 l -56,-97 Z" fill="rgb(94, 220, 146)" stroke="rgb(94, 220, 146)" stroke-width="50" stroke-linejoin="round"/>
<path d="M 2485,275 l -56,97 l 112,0 l -56,-97 Z" fill="rgb(94, 220, 146)" stroke="rgb(94, 220, 146)" stroke-width="50" stroke-linejoin="round"/>
<path d="M 2570,275 l 112,0 l -56,97 l -56,-97 Z" fill="rgb(84, 30, 132)" stroke="rgb(84, 30, 132)" stroke-width="50" stroke-linejoin="round"/>
<path d="M 89,520 l -56,97 l 112,0 l -56,-97 Z" fill="rgb(84, 30, 132)" stroke="rgb(84, 30, 132)" stroke-width="50" stroke-linejoin="round"/>
<path d="M 174,520 l 112,0 l -56,97 l -56,-97 Z" fill="rgb(217, 196, 245)" stroke="rgb(217, 196, 245)" stroke-width="50" stroke-linejoin="round"/>
<path d="M 371,520 l -56,97 l 112,0 l -56,-97 Z" fill="rgb(217, 196, 245)" stroke="rgb(217, 196, 245)" stroke-width="50" stroke-linejoin="round"/>
<path d="M 456,520 l 112,0 l -56,97 l -56,-97 Z" fill="rgb(32, 214, 123)" stroke="rgb(32, 214, 123)" stroke-width="50" stroke-linejoin="round"/>
<path d="M 653,520 l -56,97 l 112,0 l -56,-97 Z" fill="rgb(32, 214, 123)" stroke="rgb(32, 214, 123)" stroke-width="50" stroke-linejoin="round"/>
<path d="M 738,520 l 112,0 l -56,97 l -56,-97 Z" fill="rgb(241, 169, 130)" stroke="rgb(241, 169, 130)" stroke-width="50" stroke-linejoin="round"/>
<path d="M 935,520 l -56,97 l 112,0 l -56,-97 Z" fill="rgb(241, 169, 130)" stroke="rgb(241, 169, 130)" stroke-width="50" stroke-linejoin="round"/>
<path d="M 1020,520 l 112,0 l -56,97 l -56,-97 Z" fill="rgb(132, 7, 92)" stroke="rgb(132, 7, 92)" stroke-width="50" stroke-linejoin="round"/>
<path d="M 1217,520 l -56,97 l 112,0 l -56,-97 Z" fill="rgb(132, 7, 92)" stroke="rgb(132, 7, 92)" stroke-width="50" stroke-linejoin="round"/>
<path d="M 1302,520 l 112,0 l -56,97 l -56,-97 Z" fill="rgb(94, 40, 151)" stroke="rgb(94, 40, 151)" stroke-width="50" stroke-linejoin="round"/>
<path d="M 1499,520 l -56,97 l 112,0 l -56,-97 Z" fill="rgb(94, 40, 151)" stroke="rgb(94, 40, 151)" stroke-width="50" stroke-linejoin="round"/>
<path d="M 1584,520 l 112,0 l -56,97 l -56,-97 Z" fill="rgb(162, 58, 158)" stroke="rgb(162, 58, 158)" stroke-width="50" stroke-linejoin="round"/>
<path d="M 1781,520 l -56,97 l 112,0 l -56,-97 Z" fill="rgb(162, 58, 158)" stroke="rgb(162, 58, 158)" stroke-width="50" stroke-linejoin="round"/>
<path d="M 1866,520 l 112,0 l -56,97 l -56,-97 Z" fill="rgb(145, 210, 175)" stroke="rgb(145, 210, 175)" stroke-width="50" stroke-linejoin="round"/>
<path d="M 2063,520 l -56,97 l 112,0 l -56,-97 Z" fill="rgb(145, 210, 175)" stroke="rgb(145, 210, 175)" stroke-width="50" stroke-linejoin="round"/>
<path d="M 2148,520 l 112,0 l -56,97 l -56,-97 Z" fill="rgb(207, 222, 26)" stroke="rgb(207, 222, 26)" stroke-width="50" stroke-linejoin="round"/>
<path d="M 2345,520 l -56,97 l 112,0 l -56,-97 Z" fill="rgb(207, 222, 26)" stroke="rgb(207, 222, 26)" stroke-width="50" stroke-linejoin="round"/>
<path d="M 2430,520 l 112,0 l -56,97 l -56,-97 Z" fill="rgb(196, 40, 130)" stroke="rgb(196, 40, 130)" stroke-width="50" stroke-linejoin="round"/>
<path d="M 2627,520 l -56,97 l 112,0 l -56,-97 Z" fill="rgb(196, 40, 130)" stroke="rgb(196, 40, 130)" stroke-width="50" stroke-linejoin="round"/>
<path d="M 2712,520 l 112,0 l -56,97 l -56,-97 Z" fill="rgb(11, 33, 167)" stroke="rgb(11, 33, 167)" stroke-width="50" stroke-linejoin="round"/>
<path d="M -53,765 l -56,97 l 112,0 l -56,-97 Z" fill="rgb(11, 33, 167)" stroke="rgb(11, 33, 167)" stroke-width="50" stroke-linejoin="round"/>
<path d="M 32,765 l 112,0 l -56,97 l -56,-97 Z" fill="rgb(136, 143, 61)" stroke="rgb(136, 143, 61)" stroke-width="50" stroke-linejoin="round"/>
<path d="M 229,765 l -56,97 l 112,0 l -56,-97 Z" fill="rgb(136, 143, 61)" stroke="rgb(136, 143, 61)" stroke-width="50" stroke-linejoin="round"/>
<path d="M 314,765 l 112,0 l -56,97 l -56,-97 Z" fill="rgb(15, 40, 248)" stroke="rgb(15, 40, 248)" stroke-width="50" stroke-linejoin="round"/>
<path d="M 511,765 l -56,97 l 112,0 l -56,-97 Z" fill="rgb(15, 40, 248)" stroke="rgb(15, 40, 248)" stroke-width="50" stroke-linejoin="round"/>
<path d="M 596,765 l 112,0 l -56,97 l -56,-97 Z" fill="rgb(69, 85, 20)" stroke="rgb(69, 85, 20)" stroke-width="50" stroke-linejoin="round"/>
<path d="M 793,765 l -56,97 l 112,0 l -56,-97 Z" fill="rgb(69, 85, 20)" stroke="rgb(69, 85, 20)" stroke-width="50" stroke-linejoin="round"/>
<path d="M 878,765 l 112,0 l -56,97 l -56,-97 Z" fill="rgb(140, 234, 179)" stroke="rgb(140, 234, 179)" stroke-width="50" stroke-linejoin="round"/>
<path d="M 1075,765 l -56,97 l 112,0 l -56,-97 Z" fill="rgb(140, 234, 179)" stroke="rgb(140, 234, 179)" stroke-width="50" stroke-linejoin="round"/>
<path d="M 1160,765 l 112,0 l -56,97 l -56,-97 Z" fill="rgb(153, 44, 30)" stroke="rgb(153, 44, 30)" stroke-width="50" stroke-linejoin="round"/>
<path d="M 1357,765 l -56,97 l 112,0 l -56,-97 Z" fill="rgb(153, 44, 30)" stroke="rgb(153, 44, 30)" stroke-width="50" stroke-linejoin="round"/>
<path d="M 1442,765 l 112,0 l -56,97 l -56,-97 Z" fill="rgb(24, 239, 58)" stroke="rgb(24, 239, 58)" stroke-width="50" stroke-linejoin="round"/>
<path d="M 1639,765 l -56,97 l 112,0 l -56,-97 Z" fill="rgb(24, 239, 58)" stroke="rgb(24, 239, 58)" stroke-width="50" stroke-linejoin="round"/>
<path d="M 1724,765 l 112,0 l -56,97 l -56,-97 Z" fill="rgb(69, 10, 4)" stroke="rgb(69, 10, 4)" stroke-width="50" stroke-linejoin="round"/>
<path d="M 1921,765 l -56,97 l 112,0 l -56,-97 Z" fill="rgb(69, 10, 4)" stroke="rgb(69, 10, 4)" stroke-width="50" stroke-linejoin="round"/>
<path d="M 2006,765 l 112,0 l -56,97 l -56,-97 Z" fill="rgb(231, 51, 104)" stroke="rgb(231, 51, 104)" stroke-width="50" stroke-linejoin="round"/>
<path d="M 2203,765 l -56,97 l 112,0 l -56,-97 Z" fill="rgb(231, 51, 104)" stroke="rgb(231, 51, 104)" stroke-width="50" stroke-linejoin="round"/>
<path d="M 2288,765 l 112,0 l -56,97 l -56,-97 Z" fill="rgb(161, 146, 53)" stroke="rgb(161, 146, 53)" stroke-width="50" stroke-linejoin="round"/>
<path d="M 2485,765 l -56,97 l 112,0 l -56,-97 Z" fill="rgb(161, 146, 53)" stroke="rgb(161, 146, 53)" stroke-width="50" stroke-linejoin="round"/>
<path d="M 2570,765 l 112,0 l -56,97 l -56,-97 Z" fill="rgb(60, 96, 217)" stroke="rgb(60, 96, 217)" stroke-width="50" stroke-linejoin="round"/>
</g>

</svg>