<?xml version="1.0" standalone="no"?>
<!DOCTYPE svg PUBLIC "-//W3C//DTD SVG 1.1//EN" "http://www.w3.org/Graphics/SVG/1.1/DTD/svg11.dtd">

<svg width="1000" height="1000" style="background:#fff" 
  xmlns="http://www.w3.org/2000/svg"
  xmlns:xlink="http://www.w3.org/1999/xlink">

<style type="text/css">
<![CDATA[

]]>
</style>

<circle cx="17" cy="88" r="24" fill="rgb(224, 108, 36)" opacity="0.7984825684109215"/>
<circle cx="413" cy="190" r="68" fill="rgb(129, 4, 204)" opacity="0.659981568456815"/>
<circle cx="353" cy="506" r="92" fill="rgb(155, 133, 139)" opacity="0.496681197274045"/>
<circle cx="872" cy="88" r="35" fill="rgb(179, 109, 137)" opacity="0.01929795308652671"/>
<circle cx="241" cy="455" r="13" fill="rgb(49, 195, 51)" opacity="0.7332676734094072"/>
<circle cx="557" cy="751" r="74" fill="rgb(22, 142, 50)" opacity="0.348220066488389"/>
<circle cx="902" cy="651" r="75" fill="rgb(228, 46, 170)" opacity="0.5625991960718406"/>
<circle cx="927" cy="840" r="55" fill="rgb(88, 188, 68)" opacity="0.8708947648311886"/>
<circle cx="54" cy="550" r="82" fill="rgb(117, 88, 235)" opacity="0.2979299421877758"/>
<circle cx="931" cy="519" r="89" fill="rgb(19, 157, 37)" opacity="0.9437840536517921"/>
<circle cx="907" cy="175" r="61" fill="rgb(12, 183, 234)" opacity="0.8085696496863671"/>
<circle cx="553" cy="837" r="61" fill="rgb(253, 249, 117)" opacity="0.3582442868490787"/>
<circle cx="536" cy="751" r="62" fill="rgb(120, 104, 8)" opacity="0.8535009608914739"/>
<circle cx="516" cy="762" r="79" fill="rgb(9, 255, 7)" opacity="0.9446497986841842"/>
<circle cx="587" cy="9" r="57" fill="rgb(197, 191, 44)" opacity="0.9523872675636433"/>
<circle cx="942" cy="538" r="44" fill="rgb(12, 199, 179)" opacity="0.33636717429059393"/>
<circle cx="874" cy="506" r="9" fill="rgb(170, 208, 64)" opacity="0.481892777439354"/>
<circle cx="485" cy="652" r="93" fill="rgb(192, 110, 233)" opacity="0.4475645997656179"/>
<circle cx="899" cy="926" r="84" fill="rgb(86, 250, 213)" opacity="0.10806294244403458"/>
<circle cx="674" cy="831" r="47" fill="rgb(28, 32, 231)" opacity="0.8626443973484881"/>
<circle cx="506" cy="164" r="34" fill="rgb(178, 153, 91)" opacity="0.23950410427162783"/>
<circle cx="702" cy="754" r="65" fill="rgb(199, 215, 42)" opacity="0.18908510745314477"/>
<circle cx="821" cy="425" r="58" fill="rgb(186, 222, 254)" opacity="0.0911184470208144"/>
<circle cx="258" cy="342" r="81" fill="rgb(161, 157, 250)" opacity="0.8575077221926191"/>
<circle cx="386" cy="950" r="72" fill="rgb(95, 136, 162)" opacity="0.16232112968735934"/>
<circle cx="492" cy="461" r="83" fill="rgb(57, 229, 93)" opacity="0.026127090548111243"/>
<circle cx="594" cy="437" r="24" fill="rgb(205, 218, 132)" opacity="0.6577852964928691"/>
<circle cx="866" cy="933" r="45" fill="rgb(78, 242, 105)" opacity="0.5065343239160067"/>
<circle cx="968" cy="877" r="22" fill="rgb(118, 33, 240)" opacity="0.3067522659017462"/>
<circle cx="377" cy="873" r="50" fill="rgb(42, 55, 191)" opacity="0.6476180192469686"/>
<circle cx="619" cy="786" r="24" fill="rgb(188, 180, 224)" opacity="0.9861002199524104"/>
<circle cx="301" cy="963" r="13" fill="rgb(221, 199, 3)" opacity="0.26340078126206756"/>
<circle cx="743" cy="325" r="50" fill="rgb(155, 239, 149)" opacity="0.7221388055766201"/>
<circle cx="900" cy="474" r="99" fill="rgb(181, 220, 64)" opacity="0.6502549184308731"/>
<circle cx="149" cy="502" r="29" fill="rgb(77, 167, 246)" opacity="0.267499469524624"/>
<circle cx="985" cy="536" r="2" fill="rgb(0, 120, 148)" opacity="0.06924570120743012"/>
<circle cx="416" cy="566" r="6" fill="rgb(78, 211, 224)" opacity="0.9781340282258333"/>
<circle cx="704" cy="950" r="8" fill="rgb(29, 86, 129)" opacity="0.4746086689226411"/>
<circle cx="531" cy="419" r="3" fill="rgb(220, 163, 102)" opacity="0.8105976818535157"/>
<circle cx="102" cy="528" r="54" fill="rgb(29, 0, 167)" opacity="0.3360830417727134"/>
<circle cx="223" cy="600" r="36" fill="rgb(199, 85, 46)" opacity="0.22274961667699056"/>
<circle cx="859" cy="472" r="44" fill="rgb(248, 43, 73)" opacity="0.27071542455036024"/>
<circle cx="762" cy="905" r="45" fill="rgb(188, 93, 18)" opacity="0.6180044280236008"/>
<circle cx="70" cy="508" r="9" fill="rgb(1, 154, 184)" opacity="0.44426499449394363"/>
<circle cx="463" cy="137" r="37" fill="rgb(245, 169, 190)" opacity="0.6774645898227449"/>
<circle cx="769" cy="830" r="38" fill="rgb(249, 229, 35)" opacity="0.2047480984191209"/>
<circle cx="418" cy="807" r="76" fill="rgb(178, 27, 95)" opacity="0.2762348358300697"/>
<circle cx="543" cy="130" r="44" fill="rgb(186, 204, 74)" opacity="0.0733052427160884"/>
<circle cx="971" cy="525" r="63" fill="rgb(95, 126, 92)" opacity="0.9433938160524347"/>
<circle cx="383" cy="785" r="93" fill="rgb(117, 200, 4)" opacity="0.9799865979108602"/>
<circle cx="425" cy="409" r="45" fill="rgb(10, 82, 239)" opacity="0.022185419520065697"/>
<circle cx="933" cy="958" r="55" fill="rgb(225, 205, 119)" opacity="0.6300543170067069"/>
<circle cx="855" cy="383" r="41" fill="rgb(31, 73, 244)" opacity="0.5270241014681891"/>
<circle cx="81" cy="886" r="36" fill="rgb(48, 253, 11)" opacity="0.8225802887554209"/>
<circle cx="825" cy="398" r="95" fill="rgb(203, 83, 114)" opacity="0.13959801393215243"/>
<circle cx="960" cy="723" r="57" fill="rgb(181, 223, 66)" opacity="0.49584800056058487"/>
<circle cx="464" cy="977" r="53" fill="rgb(131, 194, 195)" opacity="0.9593409149533234"/>
<circle cx="177" cy="50" r="88" fill="rgb(224, 74, 88)" opacity="0.5966080466716133"/>
<circle cx="275" cy="184" r="41" fill="rgb(52, 38, 63)" opacity="0.7743204433961475"/>
<circle cx="832" cy="696" r="41" fill="rgb(143, 207, 56)" opacity="0.9239081956834705"/>
<circle cx="914" cy="622" r="88" fill="rgb(87, 152, 36)" opacity="0.7329416633507347"/>
<circle cx="876" cy="248" r="7" fill="rgb(157, 155, 135)" opacity="0.2573201585008912"/>
<circle cx="591" cy="39" r="97" fill="rgb(33, 47, 35)" opacity="0.02923184377577459"/>
<circle cx="204" cy="566" r="12" fill="rgb(69, 47, 146)" opacity="0.39915632912575916"/>
<circle cx="944" cy="151" r="47" fill="rgb(1, 237, 118)" opacity="0.029170613606001483"/>
<circle cx="826" cy="126" r="12" fill="rgb(232, 245, 43)" opacity="0.3891656921461015"/>
<circle cx="75" cy="60" r="74" fill="rgb(236, 187, 25)" opacity="0.8514329981603803"/>
<circle cx="716" cy="462" r="36" fill="rgb(169, 137, 107)" opacity="0.19653117808146614"/>
<circle cx="74" cy="111" r="77" fill="rgb(169, 13, 52)" opacity="0.8160112337504599"/>
<circle cx="968" cy="327" r="41" fill="rgb(238, 186, 238)" opacity="0.4412105386809071"/>
<circle cx="154" cy="848" r="11" fill="rgb(44, 239, 87)" opacity="0.3607034235325305"/>
<circle cx="984" cy="277" r="61" fill="rgb(119, 241, 200)" opacity="0.5625290108116728"/>
<circle cx="254" cy="179" r="85" fill="rgb(214, 224, 239)" opacity="0.6663371836566081"/>
<circle cx="257" cy="747" r="97" fill="rgb(219, 171, 71)" opacity="0.8103588124388471"/>
<circle cx="800" cy="921" r="20" fill="rgb(190, 81, 247)" opacity="0.7171033468799699"/>
<circle cx="391" cy="905" r="60" fill="rgb(134, 103, 45)" opacity="0.09730683677703222"/>
<circle cx="758" cy="571" r="68" fill="rgb(162, 188, 240)" opacity="0.30457023702673436"/>
<circle cx="69" cy="647" r="53" fill="rgb(82, 82, 39)" opacity="0.5882293024340858"/>
<circle cx="52" cy="205" r="40" fill="rgb(162, 245, 5)" opacity="0.7873381057543727"/>
<circle cx="496" cy="347" r="32" fill="rgb(219, 128, 86)" opacity="0.32738574639571394"/>
<circle cx="505" cy="79" r="13" fill="rgb(153, 117, 142)" opacity="0.8088696150602592"/>
<circle cx="993" cy="352" r="32" fill="rgb(206, 175, 109)" opacity="0.19304722507523364"/>
<circle cx="159" cy="866" r="15" fill="rgb(127, 228, 201)" opacity="0.6645656990593837"/>
<circle cx="953" cy="686" r="74" fill="rgb(169, 71, 49)" opacity="0.5305198479674168"/>
<circle cx="166" cy="568" r="8" fill="rgb(223, 209, 183)" opacity="0.01700971223253467"/>
<circle cx="616" cy="54" r="9" fill="rgb(37, 125, 36)" opacity="0.05145765997396867"/>
<circle cx="315" cy="743" r="39" fill="rgb(100, 179, 199)" opacity="0.9656077000106885"/>
<circle cx="277" cy="939" r="81" fill="rgb(36, 33, 138)" opacity="0.9466494011894211"/>
<circle cx="768" cy="289" r="26" fill="rgb(42, 17, 23)" opacity="0.4317621927072606"/>
<circle cx="986" cy="309" r="87" fill="rgb(228, 136, 34)" opacity="0.43562005009608906"/>
<circle cx="95" cy="457" r="26" fill="rgb(123, 178, 76)" opacity="0.7302970698556536"/>
<circle cx="70" cy="315" r="18" fill="rgb(35, 209, 64)" opacity="0.5518332085277728"/>
<circle cx="797" cy="665" r="92" fill="rgb(118, 157, 71)" opacity="0.6123522993911018"/>
<circle cx="661" cy="249" r="96" fill="rgb(12, 44, 54)" opacity="0.8375534933189027"/>
<circle cx="811" cy="641" r="39" fill="rgb(180, 35, 119)" opacity="0.5902607850818405"/>
<circle cx="986" cy="146" r="53" fill="rgb(218, 156, 127)" opacity="0.5606484823092387"/>
<circle cx="784" cy="106" r="21" fill="rgb(6, 71, 227)" opacity="0.2821026127171372"/>
<circle cx="957" cy="520" r="55" fill="rgb(157, 120, 216)" opacity="0.1034988585053912"/>
<circle cx="247" cy="190" r="64" fill="rgb(131, 217, 28)" opacity="0.2659108317625738"/>
<circle cx="360" cy="852" r="21" fill="rgb(255, 183, 24)" opacity="0.8596260321536005"/>

</svg>