<?xml version="1.0" standalone="no"?>
<!DOCTYPE svg PUBLIC "-//W3C//DTD SVG 1.1//EN" "http://www.w3.org/Graphics/SVG/1.1/DTD/svg11.dtd">

<svg width="1000" height="1000" style="background:#fff" 
  xmlns="http://www.w3.org/2000/svg"
  xmlns:xlink="http://www.w3.org/1999/xlink">

<style type="text/css">
<![CDATA[

]]>
</style>

<circle cx="655" cy="549" r="22" fill="rgb(105, 10, 143)" opacity="0.9313224467360173"/>
<circle cx="611" cy="236" r="67" fill="rgb(201, 7, 26)" opacity="0.2960211587958741"/>
<circle cx="997" cy="181" r="48" fill="rgb(199, 83, 100)" opacity="0.4745202907732057"/>
<circle cx="646" cy="447" r="99" fill="rgb(97, 109, 48)" opacity="0.5325625312682987"/>
<circle cx="310" cy="488" r="88" fill="rgb(101, 54, 131)" opacity="0.5220310217384556"/>
<circle cx="8" cy="967" r="2" fill="rgb(164, 82, 160)" opacity="0.30320938402661834"/>
<circle cx="192" cy="447" r="60" fill="rgb(174, 238, 102)" opacity="0.3476132883749071"/>
<circle cx="722" cy="953" r="95" fill="rgb(174, 66, 234)" opacity="0.01605223837898917"/>
<circle cx="593" cy="228" r="68" fill="rgb(0, 84, 148)" opacity="0.1930989235521221"/>
<circle cx="202" cy="545" r="89" fill="rgb(19, 15, 13)" opacity="0.18411454845692254"/>
<circle cx="292" cy="138" r="68" fill="rgb(111, 70, 171)" opacity="0.0879545272529797"/>
<circle cx="845" cy="737" r="62" fill="rgb(117, 245, 200)" opacity="0.7362957799073009"/>
<circle cx="668" cy="329" r="6" fill="rgb(117, 212, 189)" opacity="0.1268040671854177"/>
<circle cx="969" cy="43" r="2" fill="rgb(36, 50, 228)" opacity="0.4714810515028228"/>
<circle cx="460" cy="110" r="99" fill="rgb(130, 62, 95)" opacity="0.6966712089499988"/>
<circle cx="865" cy="106" r="86" fill="rgb(133, 60, 251)" opacity="0.7195408300960316"/>
<circle cx="721" cy="894" r="53" fill="rgb(175, 149, 5)" opacity="0.1292083772436169"/>
<circle cx="865" cy="533" r="17" fill="rgb(215, 205, 162)" opacity="0.5747982542410172"/>
<circle cx="938" cy="621" r="15" fill="rgb(255, 242, 253)" opacity="0.9439000200042178"/>
<circle cx="993" cy="6" r="84" fill="rgb(230, 41, 1)" opacity="0.5491334565205207"/>
<circle cx="300" cy="524" r="39" fill="rgb(83, 130, 98)" opacity="0.8298307164865701"/>
<circle cx="934" cy="367" r="74" fill="rgb(56, 161, 191)" opacity="0.7869989925831744"/>
<circle cx="743" cy="885" r="58" fill="rgb(254, 120, 222)" opacity="0.9572186647848531"/>
<circle cx="416" cy="830" r="60" fill="rgb(91, 90, 211)" opacity="0.886040137344196"/>
<circle cx="598" cy="611" r="61" fill="rgb(34, 134, 171)" opacity="0.15569173603060427"/>
<circle cx="460" cy="279" r="60" fill="rgb(165, 203, 108)" opacity="0.9460352768386897"/>
<circle cx="144" cy="481" r="66" fill="rgb(79, 246, 187)" opacity="0.4077646324563755"/>
<circle cx="703" cy="106" r="38" fill="rgb(167, 34, 70)" opacity="0.2195851179365288"/>
<circle cx="356" cy="673" r="44" fill="rgb(35, 59, 128)" opacity="0.8684612580761434"/>
<circle cx="968" cy="104" r="91" fill="rgb(72, 194, 73)" opacity="0.9172431086187325"/>
<circle cx="332" cy="300" r="94" fill="rgb(211, 141, 145)" opacity="0.8385359072337337"/>
<circle cx="825" cy="534" r="22" fill="rgb(167, 100, 59)" opacity="0.7073037842830695"/>
<circle cx="78" cy="822" r="43" fill="rgb(137, 207, 70)" opacity="0.2827877316359232"/>
<circle cx="315" cy="259" r="12" fill="rgb(248, 128, 1)" opacity="0.48910694633984875"/>
<circle cx="643" cy="507" r="20" fill="rgb(237, 115, 13)" opacity="0.1930079521549103"/>
<circle cx="560" cy="326" r="50" fill="rgb(140, 240, 180)" opacity="0.9577481709101379"/>
<circle cx="328" cy="775" r="28" fill="rgb(184, 97, 97)" opacity="0.2998347539907469"/>
<circle cx="489" cy="613" r="50" fill="rgb(205, 78, 24)" opacity="0.666821363277843"/>
<circle cx="593" cy="625" r="30" fill="rgb(141, 202, 224)" opacity="0.17200672645887682"/>
<circle cx="738" cy="386" r="99" fill="rgb(63, 101, 24)" opacity="0.8655816046017758"/>
<circle cx="507" cy="22" r="93" fill="rgb(192, 191, 253)" opacity="0.06739601970700837"/>
<circle cx="539" cy="279" r="78" fill="rgb(226, 175, 53)" opacity="0.5563336486212773"/>
<circle cx="929" cy="275" r="5" fill="rgb(112, 4, 212)" opacity="0.1801483807330979"/>
<circle cx="94" cy="765" r="99" fill="rgb(130, 0, 182)" opacity="0.8802681375039628"/>
<circle cx="692" cy="157" r="8" fill="rgb(171, 65, 159)" opacity="0.5902427078453253"/>
<circle cx="241" cy="126" r="61" fill="rgb(7, 236, 192)" opacity="0.528026187796646"/>
<circle cx="699" cy="508" r="95" fill="rgb(83, 168, 160)" opacity="0.1975747155609614"/>
<circle cx="813" cy="630" r="53" fill="rgb(174, 97, 159)" opacity="0.25392410051164804"/>
<circle cx="884" cy="95" r="77" fill="rgb(57, 172, 69)" opacity="0.7627785961493083"/>
<circle cx="224" cy="592" r="96" fill="rgb(67, 228, 31)" opacity="0.3355777006064128"/>
<circle cx="381" cy="920" r="41" fill="rgb(169, 130, 167)" opacity="0.6967450836560198"/>
<circle cx="608" cy="393" r="45" fill="rgb(255, 115, 157)" opacity="0.9696458664134332"/>
<circle cx="140" cy="549" r="73" fill="rgb(14, 194, 165)" opacity="0.48012300225934623"/>
<circle cx="713" cy="839" r="68" fill="rgb(141, 80, 88)" opacity="0.43547163574247905"/>
<circle cx="11" cy="416" r="38" fill="rgb(47, 178, 181)" opacity="0.24451939728630812"/>
<circle cx="33" cy="814" r="98" fill="rgb(111, 107, 238)" opacity="0.12202590460798224"/>
<circle cx="22" cy="872" r="93" fill="rgb(74, 183, 196)" opacity="0.4800548336642577"/>
<circle cx="955" cy="214" r="44" fill="rgb(58, 108, 249)" opacity="0.6972158466768754"/>
<circle cx="631" cy="689" r="2" fill="rgb(201, 236, 175)" opacity="0.7154037916244861"/>
<circle cx="158" cy="738" r="16" fill="rgb(104, 74, 125)" opacity="0.5914231315152226"/>
<circle cx="615" cy="863" r="2" fill="rgb(31, 224, 21)" opacity="0.5208774452427724"/>
<circle cx="989" cy="311" r="91" fill="rgb(119, 187, 127)" opacity="0.23614622342105496"/>
<circle cx="492" cy="775" r="84" fill="rgb(118, 63, 28)" opacity="0.5624012581434534"/>
<circle cx="607" cy="214" r="65" fill="rgb(183, 174, 104)" opacity="0.5445787393194059"/>
<circle cx="236" cy="417" r="35" fill="rgb(161, 214, 189)" opacity="0.8426093644769561"/>
<circle cx="424" cy="190" r="15" fill="rgb(58, 117, 10)" opacity="0.8248557328768296"/>
<circle cx="188" cy="979" r="97" fill="rgb(99, 41, 157)" opacity="0.029311105868142562"/>
<circle cx="640" cy="826" r="15" fill="rgb(46, 74, 26)" opacity="0.2261948823714599"/>
<circle cx="616" cy="82" r="14" fill="rgb(17, 55, 44)" opacity="0.9326471129361052"/>
<circle cx="756" cy="158" r="17" fill="rgb(9, 176, 57)" opacity="0.055715234246306866"/>
<circle cx="814" cy="188" r="45" fill="rgb(52, 235, 197)" opacity="0.33373436901749964"/>
<circle cx="677" cy="706" r="13" fill="rgb(174, 88, 223)" opacity="0.9846968461690505"/>
<circle cx="730" cy="680" r="34" fill="rgb(170, 57, 219)" opacity="0.5830305773858209"/>
<circle cx="714" cy="159" r="69" fill="rgb(197, 58, 189)" opacity="0.7175556591190158"/>
<circle cx="169" cy="385" r="38" fill="rgb(108, 90, 197)" opacity="0.39902114653081155"/>
<circle cx="633" cy="298" r="14" fill="rgb(42, 187, 140)" opacity="0.7827843467515707"/>
<circle cx="597" cy="187" r="34" fill="rgb(58, 139, 206)" opacity="0.6768009318486441"/>
<circle cx="310" cy="143" r="54" fill="rgb(41, 170, 68)" opacity="0.8222092968212081"/>
<circle cx="899" cy="96" r="77" fill="rgb(121, 249, 32)" opacity="0.6345113423306675"/>
<circle cx="45" cy="936" r="55" fill="rgb(230, 4, 164)" opacity="0.5046497174933466"/>
<circle cx="10" cy="688" r="39" fill="rgb(159, 96, 7)" opacity="0.5829081876485405"/>
<circle cx="923" cy="703" r="24" fill="rgb(230, 248, 187)" opacity="0.12220730943836045"/>
<circle cx="118" cy="169" r="64" fill="rgb(122, 101, 217)" opacity="0.5875445371041335"/>
<circle cx="668" cy="576" r="96" fill="rgb(200, 251, 106)" opacity="0.45907493523582155"/>
<circle cx="58" cy="588" r="32" fill="rgb(48, 125, 163)" opacity="0.6560824843918427"/>
<circle cx="911" cy="603" r="35" fill="rgb(4, 184, 120)" opacity="0.7069090086712321"/>
<circle cx="778" cy="840" r="64" fill="rgb(86, 107, 165)" opacity="0.8701825841613824"/>
<circle cx="329" cy="616" r="93" fill="rgb(14, 93, 227)" opacity="0.9187560341525158"/>
<circle cx="538" cy="743" r="52" fill="rgb(127, 162, 28)" opacity="0.8262248666138766"/>
<circle cx="643" cy="894" r="76" fill="rgb(139, 194, 6)" opacity="0.3858162210574886"/>
<circle cx="316" cy="701" r="60" fill="rgb(220, 83, 237)" opacity="0.31166405582041823"/>
<circle cx="981" cy="399" r="45" fill="rgb(96, 34, 213)" opacity="0.667299011348948"/>
<circle cx="628" cy="570" r="75" fill="rgb(66, 64, 121)" opacity="0.10110805999065897"/>
<circle cx="951" cy="206" r="39" fill="rgb(192, 27, 75)" opacity="0.8882972778335444"/>
<circle cx="121" cy="385" r="95" fill="rgb(2, 135, 119)" opacity="0.7556911622515333"/>
<circle cx="282" cy="853" r="82" fill="rgb(108, 40, 16)" opacity="0.47945166770187664"/>
<circle cx="321" cy="942" r="24" fill="rgb(193, 33, 26)" opacity="0.45640179432970995"/>
<circle cx="978" cy="410" r="89" fill="rgb(97, 111, 209)" opacity="0.04814661771040496"/>
<circle cx="159" cy="571" r="39" fill="rgb(37, 254, 44)" opacity="0.19705501243616497"/>
<circle cx="540" cy="860" r="50" fill="rgb(78, 65, 2)" opacity="0.2646553143886631"/>

</svg>