<?xml version="1.0" standalone="no"?>
<!DOCTYPE svg PUBLIC "-//W3C//DTD SVG 1.1//EN" "http://www.w3.org/Graphics/SVG/1.1/DTD/svg11.dtd">

<svg width="1000" height="800" style="background:#fff" 
  xmlns="http://www.w3.org/2000/svg"
  xmlns:xlink="http://www.w3.org/1999/xlink">

<style type="text/css">
<![CDATA[

]]>
</style>

<g transform="rotate(0 0 0)">
<path d="M -68,-15 l -56,97 l 112,0 l -56,-97 Z" fill="" stroke=""/>
<path d="M -68,-15 l 112,0 l -56,97 l -56,-97 Z" fill="rgb(0, 0, 0)" stroke="rgb(0, 0, 0)"/>
<path d="M 44,-15 l -56,97 l 112,0 l -56,-97 Z" fill="rgb(0, 0, 0)" stroke="rgb(0, 0, 0)"/>
<path d="M 44,-15 l 112,0 l -56,97 l -56,-97 Z" fill="rgb(0, 2, 25)" stroke="rgb(0, 2, 25)"/>
<path d="M 156,-15 l -56,97 l 112,0 l -56,-97 Z" fill="rgb(0, 2, 25)" stroke="rgb(0, 2, 25)"/>
<path d="M 156,-15 l 112,0 l -56,97 l -56,-97 Z" fill="rgb(0, 5, 50)" stroke="rgb(0, 5, 50)"/>
<path d="M 268,-15 l -56,97 l 112,0 l -56,-97 Z" fill="rgb(0, 5, 50)" stroke="rgb(0, 5, 50)"/>
<path d="M 268,-15 l 112,0 l -56,97 l -56,-97 Z" fill="rgb(0, 8, 75)" stroke="rgb(0, 8, 75)"/>
<path d="M 380,-15 l -56,97 l 112,0 l -56,-97 Z" fill="rgb(0, 8, 75)" stroke="rgb(0, 8, 75)"/>
<path d="M 380,-15 l 112,0 l -56,97 l -56,-97 Z" fill="rgb(0, 11, 100)" stroke="rgb(0, 11, 100)"/>
<path d="M 492,-15 l -56,97 l 112,0 l -56,-97 Z" fill="rgb(0, 11, 100)" stroke="rgb(0, 11, 100)"/>
<path d="M 492,-15 l 112,0 l -56,97 l -56,-97 Z" fill="rgb(0, 14, 125)" stroke="rgb(0, 14, 125)"/>
<path d="M 604,-15 l -56,97 l 112,0 l -56,-97 Z" fill="rgb(0, 14, 125)" stroke="rgb(0, 14, 125)"/>
<path d="M 604,-15 l 112,0 l -56,97 l -56,-97 Z" fill="rgb(0, 16, 150)" stroke="rgb(0, 16, 150)"/>
<path d="M 716,-15 l -56,97 l 112,0 l -56,-97 Z" fill="rgb(0, 16, 150)" stroke="rgb(0, 16, 150)"/>
<path d="M 716,-15 l 112,0 l -56,97 l -56,-97 Z" fill="rgb(0, 19, 175)" stroke="rgb(0, 19, 175)"/>
<path d="M 828,-15 l -56,97 l 112,0 l -56,-97 Z" fill="rgb(0, 19, 175)" stroke="rgb(0, 19, 175)"/>
<path d="M 828,-15 l 112,0 l -56,97 l -56,-97 Z" fill="rgb(0, 22, 200)" stroke="rgb(0, 22, 200)"/>
<path d="M 940,-15 l -56,97 l 112,0 l -56,-97 Z" fill="rgb(0, 22, 200)" stroke="rgb(0, 22, 200)"/>
<path d="M 940,-15 l 112,0 l -56,97 l -56,-97 Z" fill="rgb(0, 25, 225)" stroke="rgb(0, 25, 225)"/>
<path d="M 1052,-15 l -56,97 l 112,0 l -56,-97 Z" fill="rgb(0, 25, 225)" stroke="rgb(0, 25, 225)"/>
<path d="M 1052,-15 l 112,0 l -56,97 l -56,-97 Z" fill="rgb(0, 28, 250)" stroke="rgb(0, 28, 250)"/>
<path d="M -124,82 l -56,97 l 112,0 l -56,-97 Z" fill="rgb(0, 28, 250)" stroke="rgb(0, 28, 250)"/>
<path d="M -124,82 l 112,0 l -56,97 l -56,-97 Z" fill="rgb(25, 2, 0)" stroke="rgb(25, 2, 0)"/>
<path d="M -12,82 l -56,97 l 112,0 l -56,-97 Z" fill="rgb(25, 2, 0)" stroke="rgb(25, 2, 0)"/>
<path d="M -12,82 l 112,0 l -56,97 l -56,-97 Z" fill="rgb(25, 5, 25)" stroke="rgb(25, 5, 25)"/>
<path d="M 100,82 l -56,97 l 112,0 l -56,-97 Z" fill="rgb(25, 5, 25)" stroke="rgb(25, 5, 25)"/>
<path d="M 100,82 l 112,0 l -56,97 l -56,-97 Z" fill="rgb(25, 8, 50)" stroke="rgb(25, 8, 50)"/>
<path d="M 212,82 l -56,97 l 112,0 l -56,-97 Z" fill="rgb(25, 8, 50)" stroke="rgb(25, 8, 50)"/>
<path d="M 212,82 l 112,0 l -56,97 l -56,-97 Z" fill="rgb(25, 11, 75)" stroke="rgb(25, 11, 75)"/>
<path d="M 324,82 l -56,97 l 112,0 l -56,-97 Z" fill="rgb(25, 11, 75)" stroke="rgb(25, 11, 75)"/>
<path d="M 324,82 l 112,0 l -56,97 l -56,-97 Z" fill="rgb(25, 14, 100)" stroke="rgb(25, 14, 100)"/>
<path d="M 436,82 l -56,97 l 112,0 l -56,-97 Z" fill="rgb(25, 14, 100)" stroke="rgb(25, 14, 100)"/>
<path d="M 436,82 l 112,0 l -56,97 l -56,-97 Z" fill="rgb(25, 16, 125)" stroke="rgb(25, 16, 125)"/>
<path d="M 548,82 l -56,97 l 112,0 l -56,-97 Z" fill="rgb(25, 16, 125)" stroke="rgb(25, 16, 125)"/>
<path d="M 548,82 l 112,0 l -56,97 l -56,-97 Z" fill="rgb(25, 19, 150)" stroke="rgb(25, 19, 150)"/>
<path d="M 660,82 l -56,97 l 112,0 l -56,-97 Z" fill="rgb(25, 19, 150)" stroke="rgb(25, 19, 150)"/>
<path d="M 660,82 l 112,0 l -56,97 l -56,-97 Z" fill="rgb(25, 22, 175)" stroke="rgb(25, 22, 175)"/>
<path d="M 772,82 l -56,97 l 112,0 l -56,-97 Z" fill="rgb(25, 22, 175)" stroke="rgb(25, 22, 175)"/>
<path d="M 772,82 l 112,0 l -56,97 l -56,-97 Z" fill="rgb(25, 25, 200)" stroke="rgb(25, 25, 200)"/>
<path d="M 884,82 l -56,97 l 112,0 l -56,-97 Z" fill="rgb(25, 25, 200)" stroke="rgb(25, 25, 200)"/>
<path d="M 884,82 l 112,0 l -56,97 l -56,-97 Z" fill="rgb(25, 28, 225)" stroke="rgb(25, 28, 225)"/>
<path d="M 996,82 l -56,97 l 112,0 l -56,-97 Z" fill="rgb(25, 28, 225)" stroke="rgb(25, 28, 225)"/>
<path d="M 996,82 l 112,0 l -56,97 l -56,-97 Z" fill="rgb(25, 30, 250)" stroke="rgb(25, 30, 250)"/>
<path d="M -68,179 l -56,97 l 112,0 l -56,-97 Z" fill="rgb(25, 30, 250)" stroke="rgb(25, 30, 250)"/>
<path d="M -68,179 l 112,0 l -56,97 l -56,-97 Z" fill="rgb(50, 5, 0)" stroke="rgb(50, 5, 0)"/>
<path d="M 44,179 l -56,97 l 112,0 l -56,-97 Z" fill="rgb(50, 5, 0)" stroke="rgb(50, 5, 0)"/>
<path d="M 44,179 l 112,0 l -56,97 l -56,-97 Z" fill="rgb(50, 8, 25)" stroke="rgb(50, 8, 25)"/>
<path d="M 156,179 l -56,97 l 112,0 l -56,-97 Z" fill="rgb(50, 8, 25)" stroke="rgb(50, 8, 25)"/>
<path d="M 156,179 l 112,0 l -56,97 l -56,-97 Z" fill="rgb(50, 11, 50)" stroke="rgb(50, 11, 50)"/>
<path d="M 268,179 l -56,97 l 112,0 l -56,-97 Z" fill="rgb(50, 11, 50)" stroke="rgb(50, 11, 50)"/>
<path d="M 268,179 l 112,0 l -56,97 l -56,-97 Z" fill="rgb(50, 14, 75)" stroke="rgb(50, 14, 75)"/>
<path d="M 380,179 l -56,97 l 112,0 l -56,-97 Z" fill="rgb(50, 14, 75)" stroke="rgb(50, 14, 75)"/>
<path d="M 380,179 l 112,0 l -56,97 l -56,-97 Z" fill="rgb(50, 16, 100)" stroke="rgb(50, 16, 100)"/>
<path d="M 492,179 l -56,97 l 112,0 l -56,-97 Z" fill="rgb(50, 16, 100)" stroke="rgb(50, 16, 100)"/>
<path d="M 492,179 l 112,0 l -56,97 l -56,-97 Z" fill="rgb(50, 19, 125)" stroke="rgb(50, 19, 125)"/>
<path d="M 604,179 l -56,97 l 112,0 l -56,-97 Z" fill="rgb(50, 19, 125)" stroke="rgb(50, 19, 125)"/>
<path d="M 604,179 l 112,0 l -56,97 l -56,-97 Z" fill="rgb(50, 22, 150)" stroke="rgb(50, 22, 150)"/>
<path d="M 716,179 l -56,97 l 112,0 l -56,-97 Z" fill="rgb(50, 22, 150)" stroke="rgb(50, 22, 150)"/>
<path d="M 716,179 l 112,0 l -56,97 l -56,-97 Z" fill="rgb(50, 25, 175)" stroke="rgb(50, 25, 175)"/>
<path d="M 828,179 l -56,97 l 112,0 l -56,-97 Z" fill="rgb(50, 25, 175)" stroke="rgb(50, 25, 175)"/>
<path d="M 828,179 l 112,0 l -56,97 l -56,-97 Z" fill="rgb(50, 28, 200)" stroke="rgb(50, 28, 200)"/>
<path d="M 940,179 l -56,97 l 112,0 l -56,-97 Z" fill="rgb(50, 28, 200)" stroke="rgb(50, 28, 200)"/>
<path d="M 940,179 l 112,0 l -56,97 l -56,-97 Z" fill="rgb(50, 30, 225)" stroke="rgb(50, 30, 225)"/>
<path d="M 1052,179 l -56,97 l 112,0 l -56,-97 Z" fill="rgb(50, 30, 225)" stroke="rgb(50, 30, 225)"/>
<path d="M 1052,179 l 112,0 l -56,97 l -56,-97 Z" fill="rgb(50, 33, 250)" stroke="rgb(50, 33, 250)"/>
<path d="M -124,276 l -56,97 l 112,0 l -56,-97 Z" fill="rgb(50, 33, 250)" stroke="rgb(50, 33, 250)"/>
<path d="M -124,276 l 112,0 l -56,97 l -56,-97 Z" fill="rgb(75, 8, 0)" stroke="rgb(75, 8, 0)"/>
<path d="M -12,276 l -56,97 l 112,0 l -56,-97 Z" fill="rgb(75, 8, 0)" stroke="rgb(75, 8, 0)"/>
<path d="M -12,276 l 112,0 l -56,97 l -56,-97 Z" fill="rgb(75, 11, 25)" stroke="rgb(75, 11, 25)"/>
<path d="M 100,276 l -56,97 l 112,0 l -56,-97 Z" fill="rgb(75, 11, 25)" stroke="rgb(75, 11, 25)"/>
<path d="M 100,276 l 112,0 l -56,97 l -56,-97 Z" fill="rgb(75, 14, 50)" stroke="rgb(75, 14, 50)"/>
<path d="M 212,276 l -56,97 l 112,0 l -56,-97 Z" fill="rgb(75, 14, 50)" stroke="rgb(75, 14, 50)"/>
<path d="M 212,276 l 112,0 l -56,97 l -56,-97 Z" fill="rgb(75, 16, 75)" stroke="rgb(75, 16, 75)"/>
<path d="M 324,276 l -56,97 l 112,0 l -56,-97 Z" fill="rgb(75, 16, 75)" stroke="rgb(75, 16, 75)"/>
<path d="M 324,276 l 112,0 l -56,97 l -56,-97 Z" fill="rgb(75, 19, 100)" stroke="rgb(75, 19, 100)"/>
<path d="M 436,276 l -56,97 l 112,0 l -56,-97 Z" fill="rgb(75, 19, 100)" stroke="rgb(75, 19, 100)"/>
<path d="M 436,276 l 112,0 l -56,97 l -56,-97 Z" fill="rgb(75, 22, 125)" stroke="rgb(75, 22, 125)"/>
<path d="M 548,276 l -56,97 l 112,0 l -56,-97 Z" fill="rgb(75, 22, 125)" stroke="rgb(75, 22, 125)"/>
<path d="M 548,276 l 112,0 l -56,97 l -56,-97 Z" fill="rgb(75, 25, 150)" stroke="rgb(75, 25, 150)"/>
<path d="M 660,276 l -56,97 l 112,0 l -56,-97 Z" fill="rgb(75, 25, 150)" stroke="rgb(75, 25, 150)"/>
<path d="M 660,276 l 112,0 l -56,97 l -56,-97 Z" fill="rgb(75, 28, 175)" stroke="rgb(75, 28, 175)"/>
<path d="M 772,276 l -56,97 l 112,0 l -56,-97 Z" fill="rgb(75, 28, 175)" stroke="rgb(75, 28, 175)"/>
<path d="M 772,276 l 112,0 l -56,97 l -56,-97 Z" fill="rgb(75, 30, 200)" stroke="rgb(75, 30, 200)"/>
<path d="M 884,276 l -56,97 l 112,0 l -56,-97 Z" fill="rgb(75, 30, 200)" stroke="rgb(75, 30, 200)"/>
<path d="M 884,276 l 112,0 l -56,97 l -56,-97 Z" fill="rgb(75, 33, 225)" stroke="rgb(75, 33, 225)"/>
<path d="M 996,276 l -56,97 l 112,0 l -56,-97 Z" fill="rgb(75, 33, 225)" stroke="rgb(75, 33, 225)"/>
<path d="M 996,276 l 112,0 l -56,97 l -56,-97 Z" fill="rgb(75, 36, 250)" stroke="rgb(75, 36, 250)"/>
<path d="M -68,373 l -56,97 l 112,0 l -56,-97 Z" fill="rgb(75, 36, 250)" stroke="rgb(75, 36, 250)"/>
<path d="M -68,373 l 112,0 l -56,97 l -56,-97 Z" fill="rgb(100, 11, 0)" stroke="rgb(100, 11, 0)"/>
<path d="M 44,373 l -56,97 l 112,0 l -56,-97 Z" fill="rgb(100, 11, 0)" stroke="rgb(100, 11, 0)"/>
<path d="M 44,373 l 112,0 l -56,97 l -56,-97 Z" fill="rgb(100, 14, 25)" stroke="rgb(100, 14, 25)"/>
<path d="M 156,373 l -56,97 l 112,0 l -56,-97 Z" fill="rgb(100, 14, 25)" stroke="rgb(100, 14, 25)"/>
<path d="M 156,373 l 112,0 l -56,97 l -56,-97 Z" fill="rgb(100, 16, 50)" stroke="rgb(100, 16, 50)"/>
<path d="M 268,373 l -56,97 l 112,0 l -56,-97 Z" fill="rgb(100, 16, 50)" stroke="rgb(100, 16, 50)"/>
<path d="M 268,373 l 112,0 l -56,97 l -56,-97 Z" fill="rgb(100, 19, 75)" stroke="rgb(100, 19, 75)"/>
<path d="M 380,373 l -56,97 l 112,0 l -56,-97 Z" fill="rgb(100, 19, 75)" stroke="rgb(100, 19, 75)"/>
<path d="M 380,373 l 112,0 l -56,97 l -56,-97 Z" fill="rgb(100, 22, 100)" stroke="rgb(100, 22, 100)"/>
<path d="M 492,373 l -56,97 l 112,0 l -56,-97 Z" fill="rgb(100, 22, 100)" stroke="rgb(100, 22, 100)"/>
<path d="M 492,373 l 112,0 l -56,97 l -56,-97 Z" fill="rgb(100, 25, 125)" stroke="rgb(100, 25, 125)"/>
<path d="M 604,373 l -56,97 l 112,0 l -56,-97 Z" fill="rgb(100, 25, 125)" stroke="rgb(100, 25, 125)"/>
<path d="M 604,373 l 112,0 l -56,97 l -56,-97 Z" fill="rgb(100, 28, 150)" stroke="rgb(100, 28, 150)"/>
<path d="M 716,373 l -56,97 l 112,0 l -56,-97 Z" fill="rgb(100, 28, 150)" stroke="rgb(100, 28, 150)"/>
<path d="M 716,373 l 112,0 l -56,97 l -56,-97 Z" fill="rgb(100, 30, 175)" stroke="rgb(100, 30, 175)"/>
<path d="M 828,373 l -56,97 l 112,0 l -56,-97 Z" fill="rgb(100, 30, 175)" stroke="rgb(100, 30, 175)"/>
<path d="M 828,373 l 112,0 l -56,97 l -56,-97 Z" fill="rgb(100, 33, 200)" stroke="rgb(100, 33, 200)"/>
<path d="M 940,373 l -56,97 l 112,0 l -56,-97 Z" fill="rgb(100, 33, 200)" stroke="rgb(100, 33, 200)"/>
<path d="M 940,373 l 112,0 l -56,97 l -56,-97 Z" fill="rgb(100, 36, 225)" stroke="rgb(100, 36, 225)"/>
<path d="M 1052,373 l -56,97 l 112,0 l -56,-97 Z" fill="rgb(100, 36, 225)" stroke="rgb(100, 36, 225)"/>
<path d="M 1052,373 l 112,0 l -56,97 l -56,-97 Z" fill="rgb(100, 39, 250)" stroke="rgb(100, 39, 250)"/>
<path d="M -124,470 l -56,97 l 112,0 l -56,-97 Z" fill="rgb(100, 39, 250)" stroke="rgb(100, 39, 250)"/>
<path d="M -124,470 l 112,0 l -56,97 l -56,-97 Z" fill="rgb(125, 14, 0)" stroke="rgb(125, 14, 0)"/>
<path d="M -12,470 l -56,97 l 112,0 l -56,-97 Z" fill="rgb(125, 14, 0)" stroke="rgb(125, 14, 0)"/>
<path d="M -12,470 l 112,0 l -56,97 l -56,-97 Z" fill="rgb(125, 16, 25)" stroke="rgb(125, 16, 25)"/>
<path d="M 100,470 l -56,97 l 112,0 l -56,-97 Z" fill="rgb(125, 16, 25)" stroke="rgb(125, 16, 25)"/>
<path d="M 100,470 l 112,0 l -56,97 l -56,-97 Z" fill="rgb(125, 19, 50)" stroke="rgb(125, 19, 50)"/>
<path d="M 212,470 l -56,97 l 112,0 l -56,-97 Z" fill="rgb(125, 19, 50)" stroke="rgb(125, 19, 50)"/>
<path d="M 212,470 l 112,0 l -56,97 l -56,-97 Z" fill="rgb(125, 22, 75)" stroke="rgb(125, 22, 75)"/>
<path d="M 324,470 l -56,97 l 112,0 l -56,-97 Z" fill="rgb(125, 22, 75)" stroke="rgb(125, 22, 75)"/>
<path d="M 324,470 l 112,0 l -56,97 l -56,-97 Z" fill="rgb(125, 25, 100)" stroke="rgb(125, 25, 100)"/>
<path d="M 436,470 l -56,97 l 112,0 l -56,-97 Z" fill="rgb(125, 25, 100)" stroke="rgb(125, 25, 100)"/>
<path d="M 436,470 l 112,0 l -56,97 l -56,-97 Z" fill="rgb(125, 28, 125)" stroke="rgb(125, 28, 125)"/>
<path d="M 548,470 l -56,97 l 112,0 l -56,-97 Z" fill="rgb(125, 28, 125)" stroke="rgb(125, 28, 125)"/>
<path d="M 548,470 l 112,0 l -56,97 l -56,-97 Z" fill="rgb(125, 30, 150)" stroke="rgb(125, 30, 150)"/>
<path d="M 660,470 l -56,97 l 112,0 l -56,-97 Z" fill="rgb(125, 30, 150)" stroke="rgb(125, 30, 150)"/>
<path d="M 660,470 l 112,0 l -56,97 l -56,-97 Z" fill="rgb(125, 33, 175)" stroke="rgb(125, 33, 175)"/>
<path d="M 772,470 l -56,97 l 112,0 l -56,-97 Z" fill="rgb(125, 33, 175)" stroke="rgb(125, 33, 175)"/>
<path d="M 772,470 l 112,0 l -56,97 l -56,-97 Z" fill="rgb(125, 36, 200)" stroke="rgb(125, 36, 200)"/>
<path d="M 884,470 l -56,97 l 112,0 l -56,-97 Z" fill="rgb(125, 36, 200)" stroke="rgb(125, 36, 200)"/>
<path d="M 884,470 l 112,0 l -56,97 l -56,-97 Z" fill="rgb(125, 39, 225)" stroke="rgb(125, 39, 225)"/>
<path d="M 996,470 l -56,97 l 112,0 l -56,-97 Z" fill="rgb(125, 39, 225)" stroke="rgb(125, 39, 225)"/>
<path d="M 996,470 l 112,0 l -56,97 l -56,-97 Z" fill="rgb(125, 42, 250)" stroke="rgb(125, 42, 250)"/>
<path d="M -68,567 l -56,97 l 112,0 l -56,-97 Z" fill="rgb(125, 42, 250)" stroke="rgb(125, 42, 250)"/>
<path d="M -68,567 l 112,0 l -56,97 l -56,-97 Z" fill="rgb(150, 16, 0)" stroke="rgb(150, 16, 0)"/>
<path d="M 44,567 l -56,97 l 112,0 l -56,-97 Z" fill="rgb(150, 16, 0)" stroke="rgb(150, 16, 0)"/>
<path d="M 44,567 l 112,0 l -56,97 l -56,-97 Z" fill="rgb(150, 19, 25)" stroke="rgb(150, 19, 25)"/>
<path d="M 156,567 l -56,97 l 112,0 l -56,-97 Z" fill="rgb(150, 19, 25)" stroke="rgb(150, 19, 25)"/>
<path d="M 156,567 l 112,0 l -56,97 l -56,-97 Z" fill="rgb(150, 22, 50)" stroke="rgb(150, 22, 50)"/>
<path d="M 268,567 l -56,97 l 112,0 l -56,-97 Z" fill="rgb(150, 22, 50)" stroke="rgb(150, 22, 50)"/>
<path d="M 268,567 l 112,0 l -56,97 l -56,-97 Z" fill="rgb(150, 25, 75)" stroke="rgb(150, 25, 75)"/>
<path d="M 380,567 l -56,97 l 112,0 l -56,-97 Z" fill="rgb(150, 25, 75)" stroke="rgb(150, 25, 75)"/>
<path d="M 380,567 l 112,0 l -56,97 l -56,-97 Z" fill="rgb(150, 28, 100)" stroke="rgb(150, 28, 100)"/>
<path d="M 492,567 l -56,97 l 112,0 l -56,-97 Z" fill="rgb(150, 28, 100)" stroke="rgb(150, 28, 100)"/>
<path d="M 492,567 l 112,0 l -56,97 l -56,-97 Z" fill="rgb(150, 30, 125)" stroke="rgb(150, 30, 125)"/>
<path d="M 604,567 l -56,97 l 112,0 l -56,-97 Z" fill="rgb(150, 30, 125)" stroke="rgb(150, 30, 125)"/>
<path d="M 604,567 l 112,0 l -56,97 l -56,-97 Z" fill="rgb(150, 33, 150)" stroke="rgb(150, 33, 150)"/>
<path d="M 716,567 l -56,97 l 112,0 l -56,-97 Z" fill="rgb(150, 33, 150)" stroke="rgb(150, 33, 150)"/>
<path d="M 716,567 l 112,0 l -56,97 l -56,-97 Z" fill="rgb(150, 36, 175)" stroke="rgb(150, 36, 175)"/>
<path d="M 828,567 l -56,97 l 112,0 l -56,-97 Z" fill="rgb(150, 36, 175)" stroke="rgb(150, 36, 175)"/>
<path d="M 828,567 l 112,0 l -56,97 l -56,-97 Z" fill="rgb(150, 39, 200)" stroke="rgb(150, 39, 200)"/>
<path d="M 940,567 l -56,97 l 112,0 l -56,-97 Z" fill="rgb(150, 39, 200)" stroke="rgb(150, 39, 200)"/>
<path d="M 940,567 l 112,0 l -56,97 l -56,-97 Z" fill="rgb(150, 42, 225)" stroke="rgb(150, 42, 225)"/>
<path d="M 1052,567 l -56,97 l 112,0 l -56,-97 Z" fill="rgb(150, 42, 225)" stroke="rgb(150, 42, 225)"/>
<path d="M 1052,567 l 112,0 l -56,97 l -56,-97 Z" fill="rgb(150, 44, 250)" stroke="rgb(150, 44, 250)"/>
<path d="M -124,664 l -56,97 l 112,0 l -56,-97 Z" fill="rgb(150, 44, 250)" stroke="rgb(150, 44, 250)"/>
<path d="M -124,664 l 112,0 l -56,97 l -56,-97 Z" fill="rgb(175, 19, 0)" stroke="rgb(175, 19, 0)"/>
<path d="M -12,664 l -56,97 l 112,0 l -56,-97 Z" fill="rgb(175, 19, 0)" stroke="rgb(175, 19, 0)"/>
<path d="M -12,664 l 112,0 l -56,97 l -56,-97 Z" fill="rgb(175, 22, 25)" stroke="rgb(175, 22, 25)"/>
<path d="M 100,664 l -56,97 l 112,0 l -56,-97 Z" fill="rgb(175, 22, 25)" stroke="rgb(175, 22, 25)"/>
<path d="M 100,664 l 112,0 l -56,97 l -56,-97 Z" fill="rgb(175, 25, 50)" stroke="rgb(175, 25, 50)"/>
<path d="M 212,664 l -56,97 l 112,0 l -56,-97 Z" fill="rgb(175, 25, 50)" stroke="rgb(175, 25, 50)"/>
<path d="M 212,664 l 112,0 l -56,97 l -56,-97 Z" fill="rgb(175, 28, 75)" stroke="rgb(175, 28, 75)"/>
<path d="M 324,664 l -56,97 l 112,0 l -56,-97 Z" fill="rgb(175, 28, 75)" stroke="rgb(175, 28, 75)"/>
<path d="M 324,664 l 112,0 l -56,97 l -56,-97 Z" fill="rgb(175, 30, 100)" stroke="rgb(175, 30, 100)"/>
<path d="M 436,664 l -56,97 l 112,0 l -56,-97 Z" fill="rgb(175, 30, 100)" stroke="rgb(175, 30, 100)"/>
<path d="M 436,664 l 112,0 l -56,97 l -56,-97 Z" fill="rgb(175, 33, 125)" stroke="rgb(175, 33, 125)"/>
<path d="M 548,664 l -56,97 l 112,0 l -56,-97 Z" fill="rgb(175, 33, 125)" stroke="rgb(175, 33, 125)"/>
<path d="M 548,664 l 112,0 l -56,97 l -56,-97 Z" fill="rgb(175, 36, 150)" stroke="rgb(175, 36, 150)"/>
<path d="M 660,664 l -56,97 l 112,0 l -56,-97 Z" fill="rgb(175, 36, 150)" stroke="rgb(175, 36, 150)"/>
<path d="M 660,664 l 112,0 l -56,97 l -56,-97 Z" fill="rgb(175, 39, 175)" stroke="rgb(175, 39, 175)"/>
<path d="M 772,664 l -56,97 l 112,0 l -56,-97 Z" fill="rgb(175, 39, 175)" stroke="rgb(175, 39, 175)"/>
<path d="M 772,664 l 112,0 l -56,97 l -56,-97 Z" fill="rgb(175, 42, 200)" stroke="rgb(175, 42, 200)"/>
<path d="M 884,664 l -56,97 l 112,0 l -56,-97 Z" fill="rgb(175, 42, 200)" stroke="rgb(175, 42, 200)"/>
<path d="M 884,664 l 112,0 l -56,97 l -56,-97 Z" fill="rgb(175, 44, 225)" stroke="rgb(175, 44, 225)"/>
<path d="M 996,664 l -56,97 l 112,0 l -56,-97 Z" fill="rgb(175, 44, 225)" stroke="rgb(175, 44, 225)"/>
<path d="M 996,664 l 112,0 l -56,97 l -56,-97 Z" fill="rgb(175, 47, 250)" stroke="rgb(175, 47, 250)"/>
<path d="M -68,761 l -56,97 l 112,0 l -56,-97 Z" fill="rgb(175, 47, 250)" stroke="rgb(175, 47, 250)"/>
<path d="M -68,761 l 112,0 l -56,97 l -56,-97 Z" fill="rgb(200, 22, 0)" stroke="rgb(200, 22, 0)"/>
<path d="M 44,761 l -56,97 l 112,0 l -56,-97 Z" fill="rgb(200, 22, 0)" stroke="rgb(200, 22, 0)"/>
<path d="M 44,761 l 112,0 l -56,97 l -56,-97 Z" fill="rgb(200, 25, 25)" stroke="rgb(200, 25, 25)"/>
<path d="M 156,761 l -56,97 l 112,0 l -56,-97 Z" fill="rgb(200, 25, 25)" stroke="rgb(200, 25, 25)"/>
<path d="M 156,761 l 112,0 l -56,97 l -56,-97 Z" fill="rgb(200, 28, 50)" stroke="rgb(200, 28, 50)"/>
<path d="M 268,761 l -56,97 l 112,0 l -56,-97 Z" fill="rgb(200, 28, 50)" stroke="rgb(200, 28, 50)"/>
<path d="M 268,761 l 112,0 l -56,97 l -56,-97 Z" fill="rgb(200, 30, 75)" stroke="rgb(200, 30, 75)"/>
<path d="M 380,761 l -56,97 l 112,0 l -56,-97 Z" fill="rgb(200, 30, 75)" stroke="rgb(200, 30, 75)"/>
<path d="M 380,761 l 112,0 l -56,97 l -56,-97 Z" fill="rgb(200, 33, 100)" stroke="rgb(200, 33, 100)"/>
<path d="M 492,761 l -56,97 l 112,0 l -56,-97 Z" fill="rgb(200, 33, 100)" stroke="rgb(200, 33, 100)"/>
<path d="M 492,761 l 112,0 l -56,97 l -56,-97 Z" fill="rgb(200, 36, 125)" stroke="rgb(200, 36, 125)"/>
<path d="M 604,761 l -56,97 l 112,0 l -56,-97 Z" fill="rgb(200, 36, 125)" stroke="rgb(200, 36, 125)"/>
<path d="M 604,761 l 112,0 l -56,97 l -56,-97 Z" fill="rgb(200, 39, 150)" stroke="rgb(200, 39, 150)"/>
<path d="M 716,761 l -56,97 l 112,0 l -56,-97 Z" fill="rgb(200, 39, 150)" stroke="rgb(200, 39, 150)"/>
<path d="M 716,761 l 112,0 l -56,97 l -56,-97 Z" fill="rgb(200, 42, 175)" stroke="rgb(200, 42, 175)"/>
<path d="M 828,761 l -56,97 l 112,0 l -56,-97 Z" fill="rgb(200, 42, 175)" stroke="rgb(200, 42, 175)"/>
<path d="M 828,761 l 112,0 l -56,97 l -56,-97 Z" fill="rgb(200, 44, 200)" stroke="rgb(200, 44, 200)"/>
<path d="M 940,761 l -56,97 l 112,0 l -56,-97 Z" fill="rgb(200, 44, 200)" stroke="rgb(200, 44, 200)"/>
<path d="M 940,761 l 112,0 l -56,97 l -56,-97 Z" fill="rgb(200, 47, 225)" stroke="rgb(200, 47, 225)"/>
<path d="M 1052,761 l -56,97 l 112,0 l -56,-97 Z" fill="rgb(200, 47, 225)" stroke="rgb(200, 47, 225)"/>
<path d="M 1052,761 l 112,0 l -56,97 l -56,-97 Z" fill="rgb(200, 50, 250)" stroke="rgb(200, 50, 250)"/>
<path d="M -124,858 l -56,97 l 112,0 l -56,-97 Z" fill="rgb(200, 50, 250)" stroke="rgb(200, 50, 250)"/>
<path d="M -124,858 l 112,0 l -56,97 l -56,-97 Z" fill="rgb(225, 25, 0)" stroke="rgb(225, 25, 0)"/>
<path d="M -12,858 l -56,97 l 112,0 l -56,-97 Z" fill="rgb(225, 25, 0)" stroke="rgb(225, 25, 0)"/>
<path d="M -12,858 l 112,0 l -56,97 l -56,-97 Z" fill="rgb(225, 28, 25)" stroke="rgb(225, 28, 25)"/>
<path d="M 100,858 l -56,97 l 112,0 l -56,-97 Z" fill="rgb(225, 28, 25)" stroke="rgb(225, 28, 25)"/>
<path d="M 100,858 l 112,0 l -56,97 l -56,-97 Z" fill="rgb(225, 30, 50)" stroke="rgb(225, 30, 50)"/>
<path d="M 212,858 l -56,97 l 112,0 l -56,-97 Z" fill="rgb(225, 30, 50)" stroke="rgb(225, 30, 50)"/>
<path d="M 212,858 l 112,0 l -56,97 l -56,-97 Z" fill="rgb(225, 33, 75)" stroke="rgb(225, 33, 75)"/>
<path d="M 324,858 l -56,97 l 112,0 l -56,-97 Z" fill="rgb(225, 33, 75)" stroke="rgb(225, 33, 75)"/>
<path d="M 324,858 l 112,0 l -56,97 l -56,-97 Z" fill="rgb(225, 36, 100)" stroke="rgb(225, 36, 100)"/>
<path d="M 436,858 l -56,97 l 112,0 l -56,-97 Z" fill="rgb(225, 36, 100)" stroke="rgb(225, 36, 100)"/>
<path d="M 436,858 l 112,0 l -56,97 l -56,-97 Z" fill="rgb(225, 39, 125)" stroke="rgb(225, 39, 125)"/>
<path d="M 548,858 l -56,97 l 112,0 l -56,-97 Z" fill="rgb(225, 39, 125)" stroke="rgb(225, 39, 125)"/>
<path d="M 548,858 l 112,0 l -56,97 l -56,-97 Z" fill="rgb(225, 42, 150)" stroke="rgb(225, 42, 150)"/>
<path d="M 660,858 l -56,97 l 112,0 l -56,-97 Z" fill="rgb(225, 42, 150)" stroke="rgb(225, 42, 150)"/>
<path d="M 660,858 l 112,0 l -56,97 l -56,-97 Z" fill="rgb(225, 44, 175)" stroke="rgb(225, 44, 175)"/>
<path d="M 772,858 l -56,97 l 112,0 l -56,-97 Z" fill="rgb(225, 44, 175)" stroke="rgb(225, 44, 175)"/>
<path d="M 772,858 l 112,0 l -56,97 l -56,-97 Z" fill="rgb(225, 47, 200)" stroke="rgb(225, 47, 200)"/>
<path d="M 884,858 l -56,97 l 112,0 l -56,-97 Z" fill="rgb(225, 47, 200)" stroke="rgb(225, 47, 200)"/>
<path d="M 884,858 l 112,0 l -56,97 l -56,-97 Z" fill="rgb(225, 50, 225)" stroke="rgb(225, 50, 225)"/>
<path d="M 996,858 l -56,97 l 112,0 l -56,-97 Z" fill="rgb(225, 50, 225)" stroke="rgb(225, 50, 225)"/>
<path d="M 996,858 l 112,0 l -56,97 l -56,-97 Z" fill="rgb(225, 53, 250)" stroke="rgb(225, 53, 250)"/>
</g>

</svg>